<svg width="140" height="144" viewBox="0 0 140 144" fill="none" xmlns="http://www.w3.org/2000/svg">
<g clip-path="url(#clip0)">
<path fill-rule="evenodd" clip-rule="evenodd" d="M38.8333 4.09545C32.25 7.43433 26.8333 13.5278 25 20.7899C22.4166 31.1404 26.8333 42.8265 21.9166 52.1754C17.5 60.4391 7.16665 63.8615 2.58332 71.9582C-0.0833476 76.7996 -0.416681 82.7261 0.416652 88.1518C2.91665 106.182 16 121.29 31.6666 129.971C47.3333 138.652 65.3333 141.741 83.0833 143.41C90.5833 144.078 98.25 144.579 105.5 142.659C112.917 140.656 119.75 136.232 124.5 130.138C126.667 127.384 128.5 124.212 129.167 120.789C130.25 114.612 127.5 108.519 126.667 102.259C124.333 84.3121 138.333 68.1185 139.917 50.0051C140.333 44.8298 139.667 39.5711 138.083 34.7297C136.583 30.0553 134.083 25.7147 130.417 22.5428C123.583 16.5328 114.417 15.865 105.833 14.5295C96.3333 13.1104 89.9166 8.93683 81.3333 4.84669C69.4166 -0.745935 50.9166 -2.16496 38.8333 4.09545Z" fill="#D7DBFA"/>
<path d="M113.583 90.4056C110.417 97.0833 103.167 101.507 95.8334 101.424C93.5 106.015 89 109.771 84.4167 111.357C78.25 113.527 71.5 112.359 66.3334 108.602C61 113.611 50.25 112.025 46.75 105.764C41.9167 107.517 36.3333 104.345 34.25 99.7544C32.1667 95.3304 33.0833 90.5725 35.9167 86.9832C28.5833 85.3138 23.5833 77.217 24.8333 69.788C26 62.6928 31.9167 57.8515 38.6667 57.601C37.6667 47.6679 41.8333 37.5678 52.1667 34.2289C62.75 30.8065 71.1667 37.1504 76.4167 45.6645C81 41.4909 87.6667 39.8215 93.5834 42.8265C99.25 45.748 101.083 51.2572 100.75 56.9333C104.333 56.0986 108.167 56.5994 110.417 59.9383C112.333 62.6928 112.333 66.616 110.25 69.1202C115.5 74.6294 116.833 83.5609 113.583 90.4056Z" fill="#4756DF"/>
<path d="M62.9167 56.349C62.75 56.5159 62.4167 56.6829 62.25 56.4324C62.0833 56.182 62.25 55.7647 62.3333 55.5143C62.3333 55.5143 61.0833 55.0134 59.75 54.5126C59.6667 54.6795 59.5833 54.8465 59.5 55.0134C58.9167 55.8481 58.0834 56.7663 57.0834 57.4341C57.1667 57.6845 57.25 57.9349 57.3334 58.1019C57.4167 58.0184 57.5834 58.0184 57.75 58.0184C57.8334 58.1019 57.8334 58.1854 57.9167 58.2688C57.8334 58.6027 57.25 58.9366 57 58.9366C56.9167 58.9366 56.6667 58.8531 56.6667 58.6862C56.6667 58.4358 57 58.2688 57.0834 58.1854C57.0834 58.1854 57 57.9349 56.8334 57.6011C56.0834 58.0184 55.3334 58.2688 54.5834 58.3523C54.0834 58.3523 53.6667 58.3523 53.25 58.2688C53.0834 58.9366 52.8334 59.6044 52.75 60.1052C52.9167 60.1887 53.1667 60.2722 53.25 60.4391C53.4167 60.5226 53.4167 60.6895 53.3334 60.773C52.9167 61.1904 52 61.0234 51.75 60.8565C51.5 60.6895 51.3334 60.4391 51.5 60.2722C51.6667 60.0217 52.1667 60.0217 52.4167 60.1052C52.4167 60.1052 52.5 59.187 52.6667 58.1854C51.5834 57.8515 50.5834 57.2672 49.75 56.5159C48.8334 57.1002 47.8334 57.768 47.0834 58.2688C47.1667 58.4358 47.3334 58.6027 47.3334 58.8531C47.3334 59.0201 47.1667 59.1036 47.0834 59.1036C46.5 59.187 45.9167 58.4358 45.8334 58.1019C45.75 57.8515 45.8334 57.5176 46.0834 57.5176C46.3334 57.4341 46.6667 57.768 46.8334 58.0184C46.9167 58.0184 48.1667 56.8498 49.25 55.9316C49 55.6812 48.8334 55.3473 48.6667 55.0969C48.0834 55.2638 47.4167 55.4308 46.9167 55.5977C47 55.7647 47 55.9316 46.9167 56.0151C46.9167 56.182 46.8334 56.182 46.75 56.182C46.4167 56.0986 46.0834 55.5143 46.0834 55.3473C46.0834 55.1804 46.1667 54.9299 46.4167 55.0134C46.5834 55.0134 46.75 55.2638 46.8334 55.4308C46.8334 55.4308 47.6667 55.0134 48.4167 54.6795C47.75 53.4275 47.5 51.925 47.75 50.6729C47.8334 50.5059 47.8334 50.339 47.9167 50.172C47.0834 49.8382 46.1667 49.4208 45.5 49.1704C45.4167 49.2538 45.3334 49.4208 45.25 49.5043C45.1667 49.5043 45.0834 49.5043 45 49.4208C44.75 49.1704 44.9167 48.5861 45.0834 48.4191C45.1667 48.2522 45.4167 48.1687 45.5 48.3357C45.6667 48.5026 45.5834 48.753 45.5 48.92C45.5 48.92 47 49.3373 48.0834 49.6712C48.5834 48.2522 49.6667 47.0001 51 46.1654C50.4167 45.1637 49.8334 43.9951 49.4167 43.0769C49.25 43.1604 49 43.2439 48.8334 43.2439C48.6667 43.2439 48.5834 43.0769 48.5834 42.9934C48.5834 42.4091 49.3334 41.9083 49.6667 41.8248C49.9167 41.8248 50.25 41.9083 50.25 42.1587C50.25 42.4926 49.9167 42.743 49.6667 42.91C49.6667 42.9934 50.8334 44.4959 51.6667 45.8315C52.1667 45.5811 52.6667 45.3307 53.1667 45.2472C53.1667 44.6629 53.25 44.0786 53.25 43.6612C53.0834 43.6612 52.9167 43.6612 52.8334 43.5777C52.75 43.4943 52.75 43.4108 52.75 43.3273C53 42.9934 53.5834 42.91 53.8334 42.9934C54 43.0769 54.1667 43.2439 54.0834 43.4108C53.9167 43.5777 53.6667 43.6612 53.5 43.6612C53.5 43.6612 53.5 44.329 53.5834 45.1637C54.6667 44.9133 55.6667 44.9968 56.6667 45.3307C56.9167 45.4141 57.1667 45.4976 57.4167 45.5811C57.8334 44.9968 58.3334 44.4125 58.6667 43.9116C58.5 43.8282 58.3334 43.6612 58.3334 43.4943C58.25 43.3273 58.3334 43.1604 58.4167 43.1604C58.9167 42.91 59.75 43.4108 59.9167 43.6612C60.0833 43.8282 60.1667 44.162 59.8333 44.329C59.5833 44.4125 59.1667 44.2455 59 44.0786C58.9167 44.0786 58.5 44.9133 57.9167 45.915C58.5834 46.2489 59.1667 46.7497 59.6667 47.4175C60.1667 47.167 60.6667 47.0001 61 46.8332C60.9167 46.6662 60.9167 46.4993 60.9167 46.4158C60.9167 46.2489 61 46.2489 61.0833 46.2489C61.5 46.2489 61.8333 46.7497 61.8333 47.0001C61.8333 47.167 61.8333 47.4175 61.5833 47.4175C61.4167 47.4175 61.25 47.167 61.1667 47.0001C61.0833 47.0001 60.5833 47.334 59.9167 47.7513C60.25 48.1687 60.5 48.6695 60.6667 49.2538C60.8333 49.8382 60.8333 50.4225 60.8333 51.0068C61.0833 51.0902 61.25 51.0902 61.4167 51.0902C61.4167 51.0068 61.5 50.8398 61.5833 50.7563C61.6667 50.6729 61.75 50.6729 61.8333 50.6729C62.1667 50.8398 62.0833 51.5076 62 51.758C61.9167 51.8415 61.8333 52.0084 61.6667 51.925C61.5 51.8415 61.4167 51.5076 61.4167 51.3406C61.4167 51.3406 61.1667 51.3406 60.8333 51.3406C60.75 52.2588 60.5 53.0936 60.0833 53.9283C60.9167 54.3456 61.75 54.8465 62.4167 55.1804C62.5833 55.0134 62.6667 54.763 62.8333 54.6795C63 54.6795 63.1667 54.6795 63.25 54.763C63.5833 55.2638 63.1667 56.0986 62.9167 56.349Z" fill="#D7DBFA"/>
<path d="M105.167 96.3321C105 96.3321 104.833 96.1651 104.917 95.9982C105 95.8313 105.25 95.7478 105.417 95.7478C105.417 95.7478 105.25 94.9131 105.083 94.0783C105 94.0783 104.833 94.0783 104.75 94.0783C104.083 94.0783 103.333 93.9114 102.667 93.661C102.583 93.7445 102.417 93.9114 102.417 93.9949C102.417 93.9949 102.5 94.0783 102.583 94.1618C102.583 94.2453 102.583 94.3288 102.5 94.3288C102.333 94.4122 101.917 94.2453 101.833 94.0783C101.833 93.9949 101.75 93.9114 101.917 93.8279C102 93.7445 102.167 93.8279 102.25 93.9114C102.25 93.9114 102.333 93.7445 102.5 93.5775C102 93.3271 101.583 92.9932 101.333 92.6593C101.167 92.4089 101 92.1585 100.917 91.9081C100.5 91.9915 100.083 92.1585 99.75 92.242C99.8333 92.4089 99.8333 92.4924 99.8333 92.6593C99.75 92.7428 99.75 92.7428 99.6667 92.7428C99.25 92.7428 99.0833 92.1585 99.0833 91.9915C99.0833 91.8246 99.0833 91.6577 99.3333 91.6577C99.5 91.6577 99.6667 91.9081 99.6667 92.075C99.6667 92.075 100.167 91.8246 100.75 91.5742C100.583 90.9064 100.5 90.1552 100.667 89.4874C100.083 89.1535 99.4167 88.9031 98.8333 88.6527C98.8333 88.7361 98.75 88.9031 98.6667 88.9866C98.5833 88.9866 98.5 88.9866 98.4167 88.9031C98.1667 88.6527 98.3333 88.0684 98.5 87.9014C98.5833 87.8179 98.75 87.7345 98.9167 87.9014C99 87.9849 99 88.3188 98.9167 88.4857C98.9167 88.4857 99.9167 88.7361 100.833 88.9866C100.917 88.8196 100.917 88.5692 101.083 88.4022C100.75 88.1518 100.417 87.9014 100.167 87.651C100.083 87.7345 100.083 87.8179 100 87.8179C99.9167 87.8179 99.8333 87.8179 99.8333 87.8179C99.75 87.5675 99.9167 87.2336 100.083 87.1502C100.167 87.0667 100.25 87.0667 100.333 87.1502C100.417 87.3171 100.333 87.4841 100.25 87.5675C100.25 87.5675 100.75 87.9014 101.167 88.1518C101.667 87.4006 102.333 86.7328 103.083 86.4824C103.167 86.3989 103.25 86.3989 103.333 86.3989C103.25 85.8146 103.167 85.2303 103.083 84.7295C103 84.7295 102.917 84.7295 102.833 84.7295C102.75 84.7295 102.75 84.646 102.75 84.5625C102.833 84.3956 103.167 84.2286 103.333 84.3121C103.417 84.3121 103.583 84.3956 103.5 84.4791C103.5 84.5625 103.333 84.646 103.25 84.7295C103.167 84.7295 103.5 85.6477 103.667 86.3154C104.583 86.065 105.583 86.232 106.5 86.6493C106.833 85.9816 107.25 85.3138 107.583 84.8129C107.5 84.7295 107.333 84.646 107.333 84.4791C107.25 84.3956 107.333 84.3121 107.333 84.3121C107.667 84.0617 108.167 84.3121 108.333 84.4791C108.417 84.646 108.5 84.8129 108.333 84.8964C108.167 84.9799 107.917 84.8964 107.75 84.8964C107.75 84.8964 107.333 85.9816 106.917 86.8998C107.25 87.0667 107.5 87.2336 107.75 87.4841C108 87.3171 108.333 87.1502 108.583 86.9832C108.5 86.8998 108.5 86.8163 108.5 86.7328C108.5 86.6493 108.583 86.6493 108.583 86.6493C108.833 86.5659 109.083 86.8998 109.083 87.0667C109.167 87.1502 109.083 87.3171 109 87.3171C108.833 87.3171 108.75 87.1502 108.667 87.0667C108.667 87.0667 108.333 87.4006 107.917 87.651C108.333 88.1518 108.667 88.7361 108.833 89.3204C108.917 89.4874 108.917 89.6543 109 89.8213C109.417 89.8213 109.917 89.9047 110.25 89.9882C110.25 89.8213 110.333 89.6543 110.417 89.5709C110.417 89.4874 110.5 89.4874 110.583 89.4874C110.917 89.6543 110.917 90.3221 110.833 90.489C110.75 90.656 110.667 90.7395 110.5 90.656C110.333 90.5725 110.25 90.3221 110.25 90.1552C110.25 90.1552 109.667 90.1552 109 90.1552C109 90.656 108.917 91.1568 108.75 91.6577C109.083 91.8246 109.333 91.9915 109.583 92.1585C109.583 92.075 109.667 91.9915 109.75 91.9081C109.833 91.9081 109.833 91.9081 109.917 91.9915C110 92.1585 109.833 92.5758 109.75 92.6593C109.667 92.6593 109.5 92.7428 109.417 92.6593C109.417 92.4924 109.417 92.3254 109.5 92.242C109.5 92.242 109.083 92.075 108.667 91.9081C108.583 92.1585 108.333 92.4924 108.167 92.7428C107.917 92.9932 107.583 93.2436 107.25 93.494C107.333 93.5775 107.417 93.661 107.417 93.8279C107.5 93.7445 107.583 93.7445 107.667 93.7445C107.75 93.7445 107.75 93.8279 107.833 93.8279C107.833 94.0783 107.417 94.3288 107.333 94.3288C107.167 94.3288 107.083 94.3288 107.083 94.1618C107.083 94.0783 107.25 93.9114 107.333 93.9114C107.333 93.8279 107.25 93.7445 107.083 93.5775C106.583 93.8279 106.083 93.9949 105.5 94.0783C105.583 94.6627 105.583 95.247 105.667 95.7478C105.75 95.6643 105.917 95.6643 106 95.7478C106.083 95.8313 106.167 95.9147 106.083 95.9982C106 96.3321 105.417 96.4156 105.167 96.3321Z" fill="#D7DBFA"/>
<path d="M38.5 71.374C38.4167 71.4575 38.1667 71.5409 38.0833 71.374C38 71.207 38.0833 70.9566 38.1667 70.7897C38.1667 70.7897 37.3333 70.4558 36.5833 70.1219C36.5 70.2054 36.5 70.2888 36.4167 70.3723C36 70.9566 35.4167 71.4575 34.8333 71.7913C34.8333 71.9583 34.9167 72.1252 34.9167 72.2922C35 72.2087 35.0833 72.2087 35.1667 72.2087C35.25 72.2922 35.25 72.2922 35.25 72.3756C35.25 72.6261 34.8333 72.7095 34.75 72.7095C34.5833 72.7095 34.5 72.7095 34.5 72.5426C34.5 72.4591 34.6667 72.3756 34.8333 72.2922C34.8333 72.2922 34.75 72.1252 34.5833 71.8748C34.1667 72.1252 33.6667 72.2922 33.1667 72.2922C32.9167 72.2922 32.6667 72.2922 32.4167 72.2087C32.25 72.6261 32.0833 73.0434 32 73.2938C32.1667 73.3773 32.25 73.4608 32.3333 73.5443C32.4167 73.6277 32.4167 73.7112 32.3333 73.7947C32.0833 74.0451 31.5 73.8781 31.3333 73.7947C31.25 73.7112 31.0833 73.4608 31.25 73.3773C31.3333 73.2104 31.6667 73.2938 31.8333 73.2938C31.8333 73.2938 31.9167 72.793 32 72.1252C31.3333 71.8748 30.75 71.4575 30.25 70.9566C29.6667 71.2905 29 71.7079 28.5833 71.9583C28.5833 72.0418 28.6667 72.2087 28.6667 72.2922C28.6667 72.4591 28.5833 72.4591 28.5 72.5426C28.1667 72.5426 27.8333 72.0418 27.75 71.8748C27.75 71.7079 27.75 71.4575 27.9167 71.4575C28.1667 71.4575 28.3333 71.7079 28.4167 71.7913C28.4167 71.7913 29.25 71.1236 30 70.6227C29.8333 70.4558 29.75 70.2054 29.6667 70.0384C29.25 70.1219 28.8333 70.2054 28.5 70.2888C28.5833 70.4558 28.5833 70.5393 28.5833 70.6227C28.5 70.6227 28.5 70.7062 28.4167 70.7062C28.1667 70.6227 28.0833 70.2888 28.0833 70.1219C28.0833 70.0384 28.0833 69.8715 28.25 69.8715C28.3333 69.955 28.4167 70.1219 28.5 70.2054C28.5 70.2054 29 69.955 29.5 69.788C29.1667 68.9533 29 68.0351 29.25 67.2838C29.25 67.2004 29.3333 67.1169 29.3333 66.95C28.8333 66.783 28.3333 66.4491 27.9167 66.1987C27.8333 66.2822 27.75 66.3657 27.75 66.4491C27.6667 66.4491 27.5833 66.4491 27.5833 66.4491C27.4167 66.1987 27.5833 65.8648 27.6667 65.7813C27.75 65.6979 27.8333 65.6144 27.9167 65.6979C28 65.7813 28 66.0318 27.9167 66.1152C27.9167 66.1152 28.8333 66.4491 29.5 66.6161C29.8333 65.7813 30.5833 65.0301 31.4167 64.6127C31.0833 63.945 30.8333 63.1937 30.5833 62.6094C30.4167 62.6929 30.3333 62.6929 30.1667 62.6929C30.0833 62.6929 30 62.6094 30 62.5259C30 62.192 30.5833 61.8582 30.75 61.8582C30.9167 61.8582 31.0833 61.8582 31.0833 62.1086C31.0833 62.2755 30.8333 62.4425 30.75 62.5259C30.75 62.5259 31.3333 63.5276 31.8333 64.3623C32.1667 64.2788 32.5 64.1119 32.8333 64.1119C32.8333 63.6945 32.9167 63.3607 32.9167 63.1102C32.8333 63.1102 32.75 63.1102 32.6667 63.0268C32.6667 62.9433 32.5833 62.9433 32.6667 62.8598C32.75 62.6929 33.1667 62.6929 33.3333 62.6929C33.4167 62.7763 33.5 62.8598 33.4167 62.9433C33.3333 63.1102 33.1667 63.1102 33.0833 63.1102C33.0833 63.1102 33.0833 63.5276 33.0833 64.0284C33.75 63.945 34.4167 64.0284 35 64.2788C35.1667 64.2788 35.3333 64.3623 35.4167 64.4458C35.75 64.1119 36.0833 63.778 36.3333 63.5276C36.1667 63.3607 36.0833 63.2772 36.0833 63.1937C36.0833 63.1102 36.0833 63.0268 36.1667 62.9433C36.5 62.8598 37 63.1937 37.0833 63.3607C37.1667 63.4441 37.1667 63.6945 37 63.778C36.8333 63.8615 36.5833 63.6945 36.5 63.6111C36.4167 63.6111 36.1667 64.1119 35.75 64.6962C36.1667 64.9466 36.5 65.2805 36.75 65.6979C37.0833 65.5309 37.4167 65.4475 37.6667 65.364C37.5833 65.2805 37.5833 65.197 37.5833 65.1136C37.6667 65.0301 37.6667 65.0301 37.75 64.9466C38 65.0301 38.1667 65.364 38.1667 65.5309C38.1667 65.6144 38.0833 65.7813 38 65.6979C37.9167 65.6979 37.75 65.5309 37.75 65.4475C37.6667 65.4475 37.3333 65.6979 36.9167 65.8648C37.0833 66.1987 37.25 66.5326 37.3333 66.8665C37.4167 67.2004 37.4167 67.6177 37.4167 67.9516C37.5 68.0351 37.6667 68.0351 37.75 68.0351C37.75 67.9516 37.8333 67.8682 37.8333 67.7847C37.9167 67.7847 38 67.7847 38 67.7847C38.1667 67.9516 38.1667 68.369 38.0833 68.4525C38.0833 68.5359 37.9167 68.6194 37.8333 68.5359C37.75 68.4525 37.75 68.2855 37.75 68.202C37.75 68.202 37.5833 68.202 37.3333 68.202C37.25 68.7029 37.0833 69.2872 36.8333 69.7045C37.3333 70.0384 37.8333 70.3723 38.25 70.6227C38.3333 70.5393 38.4167 70.3723 38.5 70.3723C38.5833 70.2888 38.6667 70.3723 38.75 70.3723C38.9167 70.7062 38.6667 71.207 38.5 71.374Z" fill="#D7DBFA"/>
<path d="M87.0001 81.7245C87.2501 81.641 87.4167 81.4741 87.2501 81.2236C87.1667 81.0567 86.7501 81.0567 86.5834 81.0567C86.5001 81.0567 86.5001 79.9716 86.5001 78.8864C86.6667 78.803 86.8334 78.803 86.9167 78.803C87.7501 78.5525 88.6667 78.1352 89.4167 77.5509C89.5834 77.7178 89.7501 77.8013 89.9167 77.9682C89.8334 78.0517 89.7501 78.1352 89.7501 78.2187C89.7501 78.3856 89.7501 78.3856 89.8334 78.3856C90.1667 78.4691 90.5001 78.1352 90.5834 77.9682C90.6667 77.8848 90.6667 77.6343 90.5001 77.6343C90.3334 77.6343 90.1667 77.7178 90.0001 77.8013C90.0001 77.8013 89.8334 77.6343 89.6667 77.4674C90.1667 77.05 90.5834 76.5492 90.8334 75.9649C91.0001 75.631 91.0834 75.2971 91.1667 74.9632C91.7501 74.9632 92.2501 74.9632 92.6667 75.0467C92.6667 75.2137 92.6667 75.3806 92.7501 75.5475C92.8334 75.631 92.9167 75.7145 93.0001 75.631C93.4167 75.4641 93.5834 74.7128 93.5001 74.4624C93.5001 74.2955 93.3334 74.045 93.0834 74.1285C92.9167 74.212 92.7501 74.6294 92.7501 74.7963C92.7501 74.7963 92.0834 74.6294 91.2501 74.4624C91.3334 73.5442 91.1667 72.626 90.7501 71.7913C91.5001 71.2905 92.2501 70.7062 92.8334 70.2053C92.9167 70.3723 93.0834 70.5392 93.1667 70.6227C93.3334 70.6227 93.4167 70.5392 93.5001 70.4557C93.6667 70.1219 93.3334 69.4541 93.0834 69.2871C92.9167 69.1202 92.6667 69.1202 92.5834 69.2871C92.4167 69.5376 92.5834 69.8714 92.6667 70.0384C92.6667 70.0384 91.5001 70.7062 90.5001 71.2905C90.3334 71.0401 90.1667 70.7896 90.0001 70.6227C90.3334 70.2053 90.6667 69.7045 90.9167 69.3706C91.0001 69.4541 91.0834 69.5376 91.1667 69.5376C91.2501 69.5376 91.3334 69.5376 91.3334 69.4541C91.4167 69.1202 91.0834 68.7863 90.8334 68.7028C90.7501 68.7028 90.5834 68.7028 90.5001 68.8698C90.5001 68.9532 90.6667 69.2037 90.7501 69.2871C90.7501 69.2871 90.2501 69.788 89.7501 70.2888C89.0001 69.4541 88.0001 68.8698 86.9167 68.7028C86.7501 68.7028 86.6667 68.6194 86.5001 68.6194C86.5001 67.9516 86.4167 67.1169 86.4167 66.5326C86.5001 66.5326 86.6667 66.5326 86.7501 66.4491C86.7501 66.3656 86.8334 66.2821 86.7501 66.2821C86.6667 65.9483 86.0834 65.9483 85.9167 66.0317C85.8334 66.1152 85.6667 66.1987 85.7501 66.3656C85.8334 66.4491 86.0834 66.5326 86.2501 66.5326C86.2501 66.5326 86.1667 67.7846 86.0834 68.6194C84.8334 68.7028 83.6667 69.1202 82.6667 69.8714C82.0001 69.2037 81.2501 68.4524 80.7501 67.8681C80.8334 67.7012 81.0001 67.6177 81.0001 67.4508C81.0834 67.2838 81.0001 67.2003 80.9167 67.2003C80.5001 67.0334 79.8334 67.4508 79.7501 67.7012C79.6667 67.8681 79.5834 68.1185 79.8334 68.202C80.0001 68.2855 80.3334 68.1185 80.5001 68.0351C80.5834 68.0351 81.4167 69.2871 82.1667 70.2888C81.8334 70.6227 81.5834 70.9566 81.3334 71.2905C80.9167 71.1235 80.5001 71.0401 80.0834 70.9566C80.1667 70.7896 80.1667 70.7062 80.1667 70.5392C80.0834 70.4557 80.0834 70.4557 80.0001 70.4557C79.6667 70.5392 79.5001 70.9566 79.5001 71.207C79.5001 71.2905 79.5834 71.4574 79.6667 71.4574C79.8334 71.4574 80.0001 71.207 80.0834 71.0401C80.0834 71.0401 80.5834 71.2905 81.1667 71.6244C80.7501 72.2921 80.4167 73.1269 80.4167 73.9616C80.4167 74.1285 80.4167 74.3789 80.4167 74.5459C79.8334 74.7963 79.3334 74.9632 78.8334 75.1302C78.7501 74.9632 78.7501 74.7963 78.5834 74.7128C78.5001 74.6294 78.3334 74.6294 78.2501 74.7128C78.0001 74.9632 78.0834 75.7145 78.2501 75.9649C78.4167 76.1318 78.5834 76.2988 78.7501 76.1318C78.9167 75.9649 78.9167 75.5475 78.9167 75.3806C78.9167 75.3806 79.6667 75.2137 80.5001 75.0467C80.5834 75.7145 80.8334 76.2988 81.1667 76.7996C80.9167 77.1335 80.5834 77.3839 80.3334 77.6343C80.2501 77.5509 80.1667 77.4674 80.0834 77.4674C80.0001 77.4674 79.9167 77.4674 79.9167 77.5509C79.7501 77.8848 80.0834 78.2187 80.2501 78.3021C80.4167 78.3856 80.5834 78.3856 80.6667 78.3021C80.6667 78.1352 80.5001 77.8848 80.4167 77.8013C80.5001 77.8013 80.9167 77.4674 81.3334 77.05C81.5834 77.4674 81.9167 77.8013 82.3334 78.0517C82.6667 78.3021 83.1667 78.5525 83.5834 78.7195C83.5834 78.8864 83.5001 79.0534 83.5001 79.1368C83.4167 79.1368 83.2501 79.1368 83.1667 79.1368C83.0834 79.2203 83.0834 79.2203 83.0834 79.3038C83.0834 79.6377 83.5834 79.8046 83.8334 79.8046C83.9167 79.8046 84.0834 79.7211 84.0834 79.5542C84.0001 79.3873 83.7501 79.3038 83.6667 79.2203C83.6667 79.2203 83.7501 79.0534 83.8334 78.7195C84.5001 78.9699 85.2501 78.9699 86.0001 78.8864C86.0834 79.7211 86.1667 80.4724 86.3334 81.0567C86.0834 81.0567 85.9167 81.1402 85.8334 81.2236C85.7501 81.3071 85.7501 81.3906 85.7501 81.5575C86.0001 81.8914 86.7501 81.8914 87.0001 81.7245Z" fill="#D7DBFA"/>
<path d="M52.5 105.681C52.75 105.764 53.0833 105.764 53.1667 105.514C53.1667 105.18 52.8333 104.846 52.6667 104.679C52.6667 104.679 53.5833 103.678 54.5 102.676C54.6667 102.843 54.8333 102.926 55 103.01C55.9167 103.511 57.0833 103.928 58.25 104.095C58.25 104.345 58.25 104.596 58.3333 104.763C58.1667 104.763 58 104.846 57.9167 104.93C57.8333 105.013 57.8333 105.097 57.8333 105.18C58 105.514 58.6667 105.514 58.9167 105.347C59 105.347 59.1667 105.18 59.0833 105.013C59 104.846 58.6667 104.763 58.5 104.763C58.5 104.763 58.5 104.512 58.5 104.095C59.3333 104.178 60.1667 104.095 60.8333 103.761C61.25 103.594 61.6667 103.427 62 103.177C62.4167 103.678 62.9167 104.178 63.25 104.512C63.0833 104.679 62.9167 104.846 62.8333 105.013C62.8333 105.18 62.9167 105.347 63 105.347C63.5 105.597 64.25 105.097 64.5 104.763C64.5833 104.596 64.6667 104.262 64.4167 104.095C64.0833 104.011 63.6667 104.262 63.5 104.345C63.5 104.345 63 103.678 62.4167 102.759C63.3333 102.092 63.9167 101.09 64.25 100.005C65.3333 100.172 66.5 100.255 67.4167 100.422C67.4167 100.589 67.4167 100.84 67.5 101.006C67.5833 101.173 67.6667 101.173 67.8333 101.173C68.3333 101.006 68.5833 100.088 68.5 99.7544C68.4167 99.504 68.25 99.2536 68 99.337C67.75 99.4205 67.5833 99.8379 67.5 100.088C67.5 100.088 65.9167 99.6709 64.5 99.2536C64.5833 99.0031 64.5833 98.6693 64.6667 98.3354C65.25 98.1684 65.9167 98.0849 66.4167 98.0015C66.4167 98.1684 66.5 98.3354 66.5833 98.4188C66.6667 98.5023 66.75 98.5023 66.8333 98.4188C67.0833 98.2519 67.0833 97.5841 67 97.4172C66.9167 97.2502 66.75 97.0833 66.5833 97.1668C66.4167 97.3337 66.4167 97.5841 66.4167 97.7511C66.4167 97.8345 65.5 97.8345 64.6667 97.8345C64.6667 96.4155 64.25 94.9965 63.5 93.9948C63.4167 93.8279 63.25 93.7444 63.1667 93.6609C63.75 92.9931 64.4167 92.1584 64.8333 91.6576C64.9167 91.7411 65.0833 91.8245 65.25 91.8245C65.3333 91.8245 65.4167 91.7411 65.4167 91.6576C65.5 91.3237 65.0833 90.9063 64.8333 90.7394C64.75 90.7394 64.5 90.7394 64.4167 90.9063C64.4167 91.0733 64.5833 91.3237 64.6667 91.4907C64.75 91.4907 63.5833 92.4923 62.75 93.2436C61.6667 92.2419 60.1667 91.5741 58.6667 91.4072C58.6667 90.2386 58.6667 88.9865 58.6667 87.9848C58.9167 87.9848 59.1667 87.9848 59.3333 87.9013C59.4167 87.7344 59.4167 87.6509 59.4167 87.484C59.1667 86.9832 58.25 86.8997 57.9167 86.9832C57.6667 87.0666 57.4167 87.317 57.5833 87.5675C57.6667 87.8179 58.0833 87.9013 58.3333 87.9848C58.4167 87.9848 58.0833 89.8212 57.9167 91.4072C57.3333 91.4072 56.8333 91.4072 56.3333 91.5741C56 91.0733 55.75 90.5725 55.5 90.1551C55.6667 90.1551 55.8333 90.0716 55.8333 89.9047C55.9167 89.8212 55.8333 89.7377 55.8333 89.6543C55.5 89.4873 54.9167 89.7377 54.75 89.9047C54.6667 89.9882 54.5833 90.1551 54.75 90.322C54.9167 90.4055 55.1667 90.322 55.3333 90.2386C55.3333 90.2386 55.5833 90.9063 55.9167 91.6576C54.9167 91.908 54 92.4088 53.25 93.1601C53.0833 93.327 52.9167 93.494 52.75 93.7444C52.0833 93.4105 51.4167 93.0766 50.8333 92.8262C50.9167 92.6593 51 92.4088 51 92.2419C50.9167 92.075 50.8333 91.9915 50.75 91.9915C50.1667 91.9915 49.6667 92.8262 49.5833 93.1601C49.5833 93.327 49.6667 93.6609 49.9167 93.6609C50.25 93.6609 50.5 93.327 50.6667 93.0766C50.6667 93.0766 51.4167 93.6609 52.3333 94.2452C51.9167 94.8295 51.6667 95.5808 51.5 96.332C51 96.332 50.4167 96.4155 50 96.4155C50 96.2486 50 96.0816 49.9167 95.9981C49.8333 95.9147 49.75 95.9147 49.6667 95.9147C49.3333 96.0816 49.3333 96.7494 49.4167 96.9163C49.4167 97.0833 49.5833 97.2502 49.75 97.1668C49.9167 97.0833 50 96.7494 50 96.5825C50 96.5825 50.6667 96.6659 51.4167 96.7494C51.3333 97.3337 51.3333 97.8345 51.4167 98.4188C51.5833 99.0031 51.75 99.5874 52.0833 100.088C51.9167 100.172 51.75 100.339 51.5833 100.422C51.5 100.255 51.4167 100.172 51.25 100.088C51.1667 100.088 51.0833 100.088 51 100.172C50.8333 100.506 51.1667 101.09 51.3333 101.173C51.4167 101.34 51.6667 101.34 51.75 101.173C51.8333 101.006 51.75 100.756 51.6667 100.589C51.6667 100.589 51.8333 100.506 52.1667 100.339C52.6667 101.09 53.25 101.758 53.9167 102.342C53.4167 103.093 52.9167 103.845 52.5 104.512C52.25 104.345 52.0833 104.262 51.9167 104.262C51.75 104.262 51.6667 104.345 51.5833 104.429C51.5 105.013 52.25 105.597 52.5 105.681Z" fill="#D7DBFA"/>
</g>
<defs>
<clipPath id="clip0">
<rect width="140" height="144" fill="white"/>
</clipPath>
</defs>
</svg>
