<?xml version="1.0" encoding="UTF-8"?>
<!DOCTYPE svg PUBLIC "-//W3C//DTD SVG 1.1//EN" "http://www.w3.org/Graphics/SVG/1.1/DTD/svg11.dtd">
<!-- Creator: CorelDRAW X7 -->
<svg xmlns="http://www.w3.org/2000/svg" xml:space="preserve" width="146.448mm" height="150.382mm" version="1.1" style="shape-rendering:geometricPrecision; text-rendering:geometricPrecision; image-rendering:optimizeQuality; fill-rule:evenodd; clip-rule:evenodd"
viewBox="0 0 1177 1208"
 xmlns:xlink="http://www.w3.org/1999/xlink">
 <defs>
  <style type="text/css">
   <![CDATA[
    .str0 {stroke:#4756DF;stroke-width:0.612353}
    .fil1 {fill:#FEFEFE}
    .fil2 {fill:#4756DF}
    .fil0 {fill:#D7DBFA}
   ]]>
  </style>
 </defs>
 <g id="Layer_x0020_1">
  <metadata id="CorelCorpID_0Corel-Layer"/>
  <g id="_2201731488784">
   <path class="fil0" d="M326 34c-55,29 -101,80 -116,141 -22,86 16,184 -26,263 -37,69 -124,98 -162,166 -23,41 -25,90 -19,136 22,151 131,278 263,351 132,72 283,98 432,112 63,6 128,10 189,-6 62,-16 119,-54 160,-105 18,-23 33,-49 38,-79 10,-51 -13,-103 -20,-155 -20,-151 98,-287 111,-438 3,-44 -2,-88 -15,-129 -13,-39 -34,-76 -65,-102 -57,-50 -134,-56 -206,-67 -80,-12 -134,-47 -206,-81 -101,-47 -256,-59 -358,-7z"/>
   <path class="fil1" d="M768 1208c28,-53 18,-128 -5,-189 -57,-152 -167,-230 -273,-262 -120,-36 -282,-40 -374,90 -17,24 -29,55 -30,88 47,64 111,117 180,156 132,72 283,98 432,112 24,3 47,4 70,5z"/>
   <path class="fil2" d="M759 1208c25,-44 24,-112 -4,-187 -64,-172 -195,-234 -267,-256 -59,-18 -259,-64 -365,87 -20,29 -30,62 -29,94 -5,-7 -11,-14 -16,-21 3,-29 14,-57 31,-82 75,-106 191,-121 279,-114 45,4 84,14 105,20 75,23 211,88 278,267 28,75 30,145 6,192 -6,0 -12,0 -18,0z"/>
   <path class="fil2 str0" d="M434 695c-46,-73 -72,-158 -75,-243 -32,-43 -54,-97 -52,-150 2,-54 38,-108 91,-116 24,-4 47,2 71,0 34,-2 66,-20 95,-37 30,-18 59,-37 93,-44 34,-6 73,3 92,32 9,13 13,29 21,42 12,17 30,29 49,38 19,10 38,19 53,34 14,15 23,38 14,58 -10,23 -42,37 -39,63 3,20 28,32 30,52 1,17 -14,30 -28,40 -71,52 -143,104 -215,156 -29,21 -59,43 -92,57 -34,14 -74,28 -108,18z"/>
   <path class="fil2" d="M438 689c32,8 69,-5 101,-19 33,-13 63,-35 91,-56l215 -156c13,-9 26,-20 25,-33 -1,-9 -7,-16 -13,-23 -7,-9 -15,-18 -16,-30 -3,-18 10,-31 21,-43 7,-7 15,-15 18,-23 8,-17 -1,-38 -13,-50 -12,-13 -29,-21 -45,-29l-6 -4c-20,-10 -40,-22 -52,-41 -4,-7 -7,-14 -10,-21 -3,-8 -6,-15 -10,-21 -18,-27 -56,-34 -86,-28 -30,6 -58,23 -85,39l-5 3c-30,19 -63,36 -99,39 -10,1 -21,0 -32,-1 -13,-1 -26,-1 -38,1 -51,7 -84,61 -85,109 -2,48 17,101 50,146l2 1 0 2c3,84 28,166 72,238zm22 16c-10,0 -19,-1 -28,-4l-3 -1 -1 -2c-46,-73 -72,-157 -76,-244 -35,-47 -54,-102 -52,-152 2,-54 39,-114 97,-123 14,-2 28,-1 41,0 11,0 20,1 30,0 33,-2 64,-19 93,-36l5 -4c28,-17 57,-34 90,-41 34,-6 77,2 99,35 5,7 8,15 11,22 3,7 6,14 10,20 11,17 29,28 46,36l6 3c17,9 35,18 49,32 15,16 26,42 16,65 -5,11 -13,19 -21,27 -10,11 -19,21 -18,33 1,8 7,15 13,22 8,9 16,18 17,31 1,19 -15,34 -31,45l-215 156c-29,22 -59,44 -94,58 -26,11 -56,22 -84,22z"/>
   <path class="fil1" d="M768 464c5,59 7,121 2,181 -3,40 -19,83 -51,108 -41,33 -94,23 -142,19 -5,0 -38,134 -41,149 -35,15 -78,11 -110,-9 -32,-19 -55,-54 -58,-91 21,-45 65,-128 70,-183 -23,0 -48,-13 -63,-31 -11,-12 -15,-29 -9,-44 8,-23 31,-27 50,-22 12,3 24,10 35,16 -1,-66 7,-83 35,-143 8,-18 5,-40 1,-61 -2,-14 8,-26 22,-28 50,-4 104,-10 153,-14 30,-2 65,-2 87,19 10,10 11,57 13,72 3,20 5,41 6,62z"/>
   <path class="fil2" d="M375 822c4,35 24,67 54,85 31,18 70,21 101,9l1 -4c36,-147 39,-147 46,-147 7,1 13,1 19,2 41,4 85,8 118,-19 28,-22 46,-60 50,-103 4,-53 3,-112 -2,-181 -2,-20 -4,-41 -7,-61 0,-4 -1,-9 -1,-15 -1,-15 -3,-47 -10,-53 -19,-19 -51,-19 -82,-17 -28,2 -59,5 -88,8 -22,2 -43,5 -64,6 -5,1 -10,3 -13,7 -2,4 -4,8 -3,13 4,21 7,45 -2,65 -28,59 -35,75 -34,140l0 13 -10 -7c-11,-6 -22,-13 -34,-16 -16,-4 -35,-1 -42,18 -4,12 -1,27 8,37 15,18 37,29 57,29 1,0 1,0 1,0l8 0 -1 8c-4,49 -39,119 -62,166 -3,6 -6,12 -8,17zm115 115c-23,0 -47,-7 -68,-19 -34,-20 -57,-57 -61,-97l0 -2 1 -1c3,-6 6,-12 9,-19 21,-44 53,-108 60,-154 -22,-3 -46,-15 -61,-34 -13,-14 -17,-34 -11,-50 10,-28 38,-32 58,-27 10,2 19,7 27,11 0,-58 10,-79 36,-134 7,-16 4,-37 1,-57 -2,-8 0,-17 6,-24 5,-6 13,-11 21,-11 21,-2 43,-4 64,-6 30,-3 61,-6 89,-8 33,-3 69,-3 93,20 9,9 12,33 14,62 0,6 0,11 1,14 2,21 5,42 6,62l0 0c6,70 6,129 2,183 -3,47 -23,88 -54,113 -38,30 -86,25 -129,22 -4,-1 -9,-1 -13,-2 -4,9 -13,39 -37,137l-3 10 -3 1c-14,7 -31,10 -48,10z"/>
   <path class="fil2" d="M441 604c-3,0 -5,-1 -7,-3 -7,-14 -20,-25 -35,-30 -4,-1 -6,-5 -5,-8 1,-4 5,-6 9,-5 18,6 34,19 44,36 1,4 0,8 -3,10 -1,0 -2,0 -3,0z"/>
   <path class="fil2" d="M594 501c-18,0 -35,-11 -41,-26 -1,-4 0,-8 4,-9 3,-1 7,0 9,4 4,11 17,19 30,18 12,-1 24,-11 26,-22 1,-4 5,-6 9,-5 3,0 6,4 5,8 -4,17 -20,31 -39,32 -1,0 -2,0 -3,0z"/>
   <path class="fil2" d="M719 495c-17,0 -33,-11 -39,-26 -1,-4 1,-8 4,-9 4,-1 8,0 9,4 4,11 16,19 27,18 12,-1 23,-11 25,-22 0,-4 4,-6 8,-6 3,1 6,5 5,8 -3,18 -19,32 -36,33 -1,0 -2,0 -3,0z"/>
   <path class="fil2" d="M546 407c-1,0 -2,0 -3,0 -3,0 -6,-3 -6,-7 0,-4 3,-7 7,-7 0,0 0,0 0,0 25,1 50,-11 66,-31 2,-3 6,-4 9,-1 3,2 4,6 2,9 -18,23 -46,37 -75,37z"/>
   <path class="fil2" d="M729 392c-20,0 -41,-8 -57,-21 -3,-2 -3,-6 -1,-9 3,-3 7,-3 10,-1 16,13 37,19 57,16 4,0 7,3 8,6 0,4 -2,8 -6,8 -4,1 -7,1 -11,1z"/>
   <path class="fil2" d="M696 645c-4,0 -6,-3 -7,-6 -1,-4 2,-7 6,-8 7,-1 14,-4 20,-9 4,-3 9,-7 10,-13 1,-7 -4,-14 -9,-21l-21 -29c-2,-3 -2,-8 1,-10 4,-2 8,-1 10,2l21 29c7,9 13,19 11,31 -1,8 -6,16 -14,22 -8,6 -17,10 -27,11 -1,1 -1,1 -1,1z"/>
   <path class="fil2" d="M713 687c-1,0 -3,0 -4,1 -16,2 -30,13 -36,27 -2,5 -3,13 0,16 3,4 10,3 15,2l0 0c13,-4 23,-14 30,-28 3,-8 3,-14 1,-16 -1,-1 -4,-2 -6,-2zm-23 52l0 0 0 0zm-9 9c-7,0 -14,-3 -18,-7 -7,-8 -7,-19 -2,-31 8,-19 26,-33 46,-36 13,-2 20,3 23,7 5,7 5,18 0,30 -8,17 -21,30 -38,35l0 0c-4,1 -7,2 -11,2z"/>
   <path class="fil2" d="M877 855c-13,0 -26,-8 -32,-20 -4,-8 -5,-16 -4,-24 -2,1 -4,1 -6,1 -9,0 -17,-4 -21,-11 -4,-6 -5,-15 -2,-23 2,-3 4,-6 7,-9l-55 -21c-4,-1 -6,-5 -4,-9 1,-3 5,-5 9,-4l65 25c2,1 4,3 4,6 0,2 -1,5 -3,6 -4,4 -9,9 -10,12 -2,3 -1,7 0,10 2,2 6,4 10,4 5,0 11,-2 16,-3 3,-1 6,0 8,3 1,2 1,6 -1,8 -6,6 -4,16 -1,23 4,8 13,13 21,12 9,-1 16,-7 19,-15 0,-2 2,-4 5,-5 2,0 5,1 6,2 6,7 22,8 30,2 7,-5 10,-17 5,-25 -2,-3 -1,-7 1,-9 2,-2 4,-2 6,-2 11,-7 19,-18 20,-30 1,-13 -6,-26 -17,-31 -12,-5 -30,-3 -35,6 -2,4 -5,5 -9,4 -3,-1 -5,-5 -4,-8 2,-6 -3,-13 -9,-15 -6,-3 -14,-1 -20,3 -8,6 -14,13 -16,20 -1,2 -2,4 -4,4 -2,1 -4,1 -6,0 -21,-10 -42,-20 -64,-29 -3,-2 -5,-6 -3,-9 1,-4 5,-5 9,-4 19,8 39,17 58,27 4,-8 10,-14 17,-20 11,-7 24,-9 34,-5 7,3 13,8 16,15 11,-7 28,-8 41,-2 17,7 28,27 26,46 -2,16 -12,30 -26,40 3,12 -1,28 -12,36 -11,8 -28,8 -40,2 -6,9 -16,15 -27,16 -1,0 -1,0 -2,0z"/>
   <path class="fil1" d="M429 1157c-2,-10 -2,-20 0,-30 2,-16 11,-31 19,-45 9,-16 18,-32 27,-48 3,-5 6,-11 12,-12 7,-2 14,4 17,10 2,7 2,14 1,21 -2,15 -3,29 -5,43 11,-31 28,-58 44,-87 4,-6 8,-12 14,-15 7,-3 16,0 17,7 2,-11 18,-17 28,-13 8,3 10,12 7,27 6,-2 13,0 16,5 3,6 0,17 -3,26 3,13 11,23 10,36 -5,39 -20,77 -43,109 -55,-8 -109,-19 -161,-34z"/>
   <path class="fil2" d="M582 1189c24,-31 39,-68 44,-107 1,-7 -2,-13 -5,-21 -1,-4 -3,-8 -4,-13 -1,-2 -1,-3 0,-4 4,-16 3,-20 3,-21 -1,-2 -5,-2 -8,-2 -2,1 -5,0 -6,-1 -2,-2 -3,-4 -2,-7 1,-6 2,-17 -3,-19 -4,-1 -10,0 -14,2 -3,2 -5,4 -5,6 -1,3 -3,6 -7,6 -3,0 -6,-2 -7,-6 0,0 0,-1 -1,-1 -2,-1 -4,-1 -6,-1 -5,2 -8,8 -11,13l-5 8c-15,26 -29,50 -38,78 -1,3 -5,5 -8,4 -3,-1 -6,-4 -5,-7l4 -43c1,-7 1,-13 -1,-18 -1,-4 -5,-7 -8,-7 -3,1 -6,6 -8,10l-27 47c-8,14 -16,28 -19,43 -1,10 -1,21 1,31 -5,-1 -10,-3 -14,-4 -2,-10 -2,-19 0,-29 3,-18 12,-34 20,-48l27 -47c3,-5 7,-14 17,-16 10,-2 20,6 24,15 3,8 3,16 2,23 6,-13 14,-26 21,-39l5 -8c4,-7 9,-14 17,-18 6,-3 13,-2 18,1 1,0 1,0 1,0 2,-2 3,-3 6,-4 8,-5 18,-7 25,-4 7,3 15,9 13,27 6,1 11,4 14,9 4,7 2,18 -2,29 1,4 3,7 4,10 3,9 7,17 6,27 -5,39 -20,77 -43,109 -5,-1 -10,-2 -15,-3z"/>
   <path class="fil2" d="M552 1089c-1,0 -2,0 -2,-1 -4,-1 -5,-5 -4,-9 12,-25 20,-53 23,-81 0,-4 4,-7 8,-6 3,0 6,4 6,7 -4,30 -12,59 -24,86 -2,3 -4,4 -7,4z"/>
   <path class="fil2" d="M579 1110c-1,0 -3,-1 -4,-1 -3,-2 -4,-6 -2,-9 15,-30 26,-62 32,-95 0,-3 4,-6 7,-5 4,0 7,4 6,8 -6,34 -17,67 -33,98 -2,2 -4,4 -6,4z"/>
   <path class="fil2" d="M599 1115c-1,0 -2,0 -3,0 -4,-2 -5,-6 -3,-10 11,-22 20,-46 26,-71 1,-3 5,-5 9,-5 3,1 5,5 5,9 -7,25 -16,50 -28,74 -1,2 -4,3 -6,3z"/>
   <path class="fil1" d="M952 742c-13,-16 -30,-7 -42,6 -4,-10 -11,-18 -23,-18 -14,-1 -24,12 -25,25 -18,-8 -35,-17 -54,-24 0,0 -1,1 0,2 14,9 30,17 45,25 -5,3 -8,10 -5,18 3,8 10,10 17,9 -1,12 2,25 16,29 9,3 16,-1 20,-7 14,8 34,-4 29,-22 19,-6 38,-24 22,-43z"/>
  </g>
 </g>
</svg>
