<?xml version="1.0" encoding="UTF-8"?>
<!DOCTYPE svg PUBLIC "-//W3C//DTD SVG 1.1//EN" "http://www.w3.org/Graphics/SVG/1.1/DTD/svg11.dtd">
<!-- Creator: CorelDRAW X7 -->
<svg xmlns="http://www.w3.org/2000/svg" xml:space="preserve" width="137.805mm" height="139.276mm" version="1.1" style="shape-rendering:geometricPrecision; text-rendering:geometricPrecision; image-rendering:optimizeQuality; fill-rule:evenodd; clip-rule:evenodd"
viewBox="0 0 1541 1558"
 xmlns:xlink="http://www.w3.org/1999/xlink">
 <defs>
  <style type="text/css">
   <![CDATA[
    .str0 {stroke:#4756DF;stroke-width:0.85222}
    .fil1 {fill:#FEFEFE}
    .fil2 {fill:#4756DF}
    .fil0 {fill:#D7DBFA}
   ]]>
  </style>
 </defs>
 <g id="Layer_x0020_1">
  <metadata id="CorelCorpID_0Corel-Layer"/>
  <g id="_2201833287664">
   <path class="fil0" d="M323 74c-69,48 -122,123 -131,207 -14,118 54,241 12,352 -37,99 -149,152 -189,250 -23,57 -17,123 0,183 57,196 228,344 419,417 191,73 401,80 605,72 86,-3 173,-10 253,-42 81,-33 151,-93 197,-167 20,-34 36,-72 38,-111 3,-71 -38,-134 -56,-202 -54,-196 80,-397 70,-600 -3,-58 -18,-116 -44,-168 -25,-49 -60,-94 -106,-124 -127,-82 -289,-32 -429,-64 -71,-16 -132,-62 -203,-73 -60,-8 -128,-1 -188,-1 -87,2 -175,21 -248,71z"/>
   <path class="fil1" d="M1375 1443c-30,-162 -146,-365 -167,-347 -19,17 -48,36 -65,55 -16,17 -32,36 -37,62 -4,17 -2,36 1,54 11,93 22,185 34,278l0 3c52,-6 103,-16 151,-35 31,-13 60,-29 86,-48 -1,-7 -2,-14 -3,-22z"/>
   <path class="fil2" d="M1212 1106c-6,5 -13,11 -21,16 -15,12 -30,24 -41,35 -14,16 -30,34 -35,58 -3,16 -1,34 1,51 12,93 23,185 34,278l1 3c-7,1 -13,2 -20,2l0 -3c-12,-92 -23,-185 -34,-278 -2,-18 -5,-38 -1,-57 5,-28 22,-49 40,-67 12,-13 28,-25 43,-37 8,-7 16,-13 22,-18 5,-4 10,-5 16,-2 38,13 140,206 168,355l0 0c1,5 2,11 2,16 -6,5 -12,9 -18,13 -1,-8 -2,-17 -4,-26l0 0c-27,-147 -126,-326 -153,-339z"/>
   <path class="fil1" d="M1055 1474c-5,-10 -11,-20 -19,-31 -104,-147 -238,-212 -370,-236 -71,-13 -142,-15 -213,-13 -71,2 -160,-8 -209,71 -18,28 -24,62 -23,97 64,51 137,92 213,121 191,73 401,80 605,72 11,0 22,-1 33,-1 1,-27 -4,-54 -17,-80z"/>
   <path class="fil2" d="M496 1204c-14,0 -28,0 -43,0 -8,0 -17,0 -26,0 -66,1 -135,1 -175,66 -16,26 -23,61 -20,100 -7,-5 -14,-11 -21,-16 1,-36 8,-69 24,-94 46,-75 127,-75 192,-75 9,0 17,0 26,-1 86,-2 152,2 215,14 157,28 283,109 376,240 8,10 14,21 20,32l0 0c12,25 18,54 18,83 -7,0 -13,1 -20,1 1,-26 -4,-52 -16,-76 -5,-9 -11,-19 -18,-29 -90,-127 -212,-205 -364,-232 -50,-9 -103,-13 -168,-13z"/>
   <path class="fil2 str0" d="M589 1040c-66,-105 -104,-227 -108,-350 -47,-62 -78,-140 -76,-217 3,-77 56,-156 132,-167 34,-6 68,2 102,0 50,-3 95,-28 138,-54 42,-26 85,-53 134,-63 49,-9 106,4 133,45 13,19 18,42 30,61 17,26 44,42 71,56 27,14 55,27 76,49 21,22 33,55 21,83 -14,34 -60,54 -56,91 4,29 40,46 42,76 2,24 -19,42 -39,57 -104,75 -207,150 -311,226 -42,30 -85,61 -133,82 -49,20 -107,41 -156,25z"/>
   <path class="fil2" d="M595 1032c46,13 99,-7 146,-27 47,-19 90,-50 131,-80l311 -226c18,-14 37,-30 36,-49 -1,-11 -10,-22 -19,-32 -11,-13 -21,-26 -24,-43 -3,-26 15,-45 32,-63 10,-10 20,-21 25,-33 11,-25 -2,-54 -19,-72 -18,-18 -42,-31 -65,-43l-9 -4c-28,-15 -56,-32 -74,-59 -6,-10 -11,-21 -15,-32 -5,-10 -9,-20 -15,-29 -26,-40 -80,-49 -123,-41 -44,8 -84,33 -123,56l-8 5c-43,26 -90,52 -142,56 -16,1 -31,0 -46,-1 -20,-1 -37,-2 -55,0 -75,11 -122,89 -124,158 -2,70 25,146 74,211l1 2 1 3c4,121 40,240 104,343zm31 24c-14,0 -27,-2 -40,-6l-4 -1 -2 -4c-66,-105 -104,-227 -109,-352 -50,-67 -78,-147 -76,-220 3,-77 56,-165 141,-177 20,-3 40,-2 59,-1 15,1 29,2 44,1 47,-3 92,-28 133,-53l8 -5c40,-24 82,-49 129,-59 49,-9 112,3 144,50 7,10 11,22 16,32 4,11 8,20 14,29 15,24 42,40 67,52l8 5c25,12 50,26 70,46 22,23 38,61 23,94 -6,15 -18,27 -29,39 -15,16 -28,30 -26,47 1,11 10,21 19,32 11,13 22,26 23,44 2,28 -21,49 -43,66l-311 226c-42,30 -86,62 -136,83 -38,16 -81,32 -122,32z"/>
   <path class="fil1" d="M1072 707c7,86 10,176 3,262 -5,58 -28,119 -75,156 -59,47 -135,33 -204,28 -8,0 -55,193 -60,214 -50,22 -112,16 -159,-12 -46,-28 -78,-78 -83,-132 30,-65 94,-185 101,-264 -34,0 -69,-19 -92,-45 -15,-18 -21,-42 -13,-64 12,-33 45,-39 73,-32 18,5 35,14 51,24 -2,-95 10,-121 50,-207 12,-26 7,-57 2,-88 -3,-20 11,-38 31,-40 73,-6 150,-15 221,-20 44,-3 94,-4 126,27 15,14 16,82 19,104 3,29 7,59 9,89z"/>
   <path class="fil2" d="M504 1224c5,50 35,97 78,123 44,26 101,31 145,13l2 -6c52,-211 57,-211 67,-211 9,0 18,1 26,2 61,5 124,11 172,-27 40,-32 66,-87 71,-150 6,-76 5,-161 -3,-260 -2,-29 -5,-59 -9,-89 -1,-5 -1,-13 -2,-21 -1,-23 -5,-69 -14,-77 -28,-28 -74,-27 -118,-24 -41,3 -86,7 -129,11 -31,3 -62,7 -92,9 -7,1 -13,4 -17,10 -5,5 -6,12 -5,19 5,30 10,64 -3,93 -40,86 -51,109 -49,203l0 18 -15 -9c-16,-10 -32,-19 -49,-23 -23,-6 -50,-2 -61,26 -6,17 -1,38 12,53 22,26 54,42 83,42 0,0 1,0 1,0l11 0 -1 11c-6,71 -56,172 -89,240 -5,9 -9,17 -12,24zm166 166c-33,0 -68,-9 -98,-26 -49,-30 -83,-83 -88,-141l0 -2 1 -3c4,-8 8,-17 13,-27 31,-63 77,-156 86,-223 -31,-3 -65,-21 -88,-48 -18,-21 -24,-49 -15,-73 14,-41 54,-46 84,-39 14,4 27,10 39,17 0,-85 14,-115 51,-195 11,-23 6,-52 1,-81 -2,-12 2,-25 9,-34 8,-10 19,-16 32,-18 30,-2 61,-5 92,-8 42,-4 87,-9 128,-12 47,-3 99,-4 134,29 13,13 17,49 20,90 0,9 1,16 1,21 4,30 7,60 10,89l0 0c8,101 9,187 3,264 -6,68 -34,128 -79,163 -54,43 -124,37 -186,32 -6,-1 -13,-2 -19,-2 -5,12 -18,55 -53,196l-4 15 -4 2c-22,9 -45,14 -70,14z"/>
   <path class="fil2" d="M598 910c-3,0 -7,-2 -8,-5 -11,-20 -30,-36 -52,-43 -5,-1 -8,-7 -7,-12 2,-5 7,-8 13,-6 27,8 50,27 63,52 3,5 1,11 -4,13 -2,1 -3,1 -5,1z"/>
   <path class="fil2" d="M820 761c-26,0 -50,-15 -59,-38 -2,-5 0,-11 5,-13 5,-2 11,1 13,6 6,16 25,27 44,26 18,-2 35,-16 38,-32 1,-5 7,-9 12,-8 5,2 9,7 8,12 -6,25 -30,45 -57,47 -1,0 -3,0 -4,0z"/>
   <path class="fil2" d="M1000 753c-24,0 -47,-16 -56,-39 -1,-5 1,-11 6,-12 5,-2 11,0 13,5 6,16 23,27 40,26 16,-2 32,-15 35,-32 1,-5 6,-9 11,-7 6,1 9,6 8,11 -5,25 -27,45 -53,47 -1,1 -3,1 -4,1z"/>
   <path class="fil2" d="M751 625c-1,0 -3,0 -4,0 -5,0 -10,-5 -10,-10 1,-6 5,-10 11,-10 36,1 73,-16 95,-45 3,-4 9,-5 14,-2 4,4 5,10 1,14 -25,33 -66,53 -107,53z"/>
   <path class="fil2" d="M1015 603c-29,0 -59,-11 -82,-29 -4,-4 -5,-10 -1,-14 3,-4 10,-5 14,-1 22,18 53,27 82,23 6,0 11,4 11,9 1,5 -3,10 -8,11 -5,1 -10,1 -16,1z"/>
   <path class="fil2" d="M967 968c-5,0 -9,-3 -10,-8 -1,-5 3,-11 8,-11 11,-2 22,-7 31,-14 5,-4 12,-10 13,-18 1,-10 -6,-21 -13,-31l-30 -42c-3,-4 -2,-10 2,-14 5,-3 11,-2 14,3l30 42c10,13 19,28 16,45 -1,11 -9,22 -21,31 -11,9 -24,15 -38,17 -1,0 -1,0 -2,0z"/>
   <path class="fil2" d="M935 1010c-19,3 -36,15 -47,34 -6,11 -7,20 -4,23 2,4 10,4 14,4 23,-1 45,-15 56,-34 4,-7 7,-17 2,-23 -4,-5 -14,-6 -21,-4l0 0zm-39 81c-17,0 -25,-7 -29,-14 -7,-10 -5,-26 4,-42 14,-24 35,-40 60,-45l0 0c18,-3 33,2 41,12 9,12 8,28 -1,44 -14,26 -43,43 -72,45 -1,0 -2,0 -3,0z"/>
   <path class="fil1" d="M1026 1194c-19,7 -41,-5 -49,-23 -9,-18 -7,-39 -2,-59 10,-47 41,-94 88,-104 27,-5 55,3 78,17 23,14 43,33 62,52 19,18 33,40 45,62 12,22 20,48 18,73 -3,26 -16,51 -36,67 -20,16 -47,23 -73,20l-131 -105z"/>
   <path class="fil2" d="M1161 1290c22,2 46,-5 63,-19 18,-14 30,-37 32,-59 2,-21 -4,-45 -17,-68 -9,-17 -23,-41 -43,-60 -18,-18 -38,-37 -60,-51 -24,-14 -49,-19 -71,-15 -45,9 -72,58 -81,97 -5,22 -4,39 2,51 6,14 22,24 36,19 3,-1 7,-1 10,1l129 104zm9 20c-5,0 -9,-1 -14,-1 -2,0 -3,-1 -5,-2l-127 -102c-23,5 -47,-10 -56,-30 -8,-17 -9,-38 -3,-65 10,-45 42,-101 96,-111 27,-5 57,1 85,17 24,15 45,35 64,54 21,20 37,47 47,64 14,27 21,54 19,79 -3,29 -17,56 -40,73 -19,16 -42,24 -66,24z"/>
   <path class="fil1" d="M1077 1090c-22,24 -37,53 -44,84 -3,12 -5,25 -1,37 4,12 16,22 28,20l17 -141z"/>
   <path class="fil2" d="M1058 1241c-17,0 -30,-13 -35,-27 -5,-15 -3,-31 0,-42 8,-33 24,-63 46,-88 4,-4 10,-5 14,-1 4,4 5,10 1,14 -20,22 -35,50 -42,79 -2,9 -4,21 -1,32 3,7 10,14 18,14 6,-1 10,3 11,8 0,6 -3,11 -9,11 -1,0 -2,0 -3,0z"/>
   <path class="fil1" d="M1109 1134c-21,23 -36,52 -44,83 -3,12 -4,26 0,37 4,12 15,22 28,21l16 -141z"/>
   <path class="fil2" d="M1091 1285c-17,0 -31,-13 -36,-27 -5,-16 -2,-31 1,-43 8,-33 24,-63 46,-88 4,-4 10,-4 14,-1 4,4 4,10 1,14 -21,23 -35,50 -42,80 -2,9 -5,21 -1,31 3,8 10,15 18,14 5,0 10,4 11,9 0,5 -4,10 -9,11 -1,0 -2,0 -3,0z"/>
   <path class="fil1" d="M1140 1160c-21,23 -36,52 -44,83 -3,12 -4,25 0,37 4,12 15,22 28,21 20,-2 44,-6 61,-18 -2,-10 -7,-22 -17,-25 -8,2 -18,2 -26,4 23,-4 44,-25 50,-47l-52 -55z"/>
   <path class="fil2" d="M1121 1311c-16,0 -30,-14 -35,-28 -5,-15 -2,-30 1,-42 7,-33 24,-63 46,-88 4,-4 10,-4 14,-1 4,4 4,10 1,14 -21,23 -35,50 -42,80 -3,9 -5,21 -1,31 3,7 10,15 18,14 18,-2 37,-5 51,-13 -2,-4 -4,-8 -7,-10 -4,1 -7,1 -11,2 -2,0 -4,0 -6,1 -2,0 -4,1 -6,1 -5,1 -10,-2 -11,-7 -1,-5 2,-11 7,-12 2,-1 3,-1 5,-1 17,-6 33,-22 38,-40 1,-5 7,-8 12,-7 5,2 8,7 7,12 -4,14 -12,27 -22,36 8,7 13,19 14,29 1,3 -1,7 -3,9 -19,13 -43,17 -66,20 -1,0 -3,0 -4,0z"/>
   <polygon class="fil2" points="1254,998 1141,981 1144,961 1223,973 1202,921 1326,921 1326,941 1231,941 "/>
   <polygon class="fil2" points="961,1382 942,1290 986,1290 962,1224 980,1217 1015,1310 966,1310 981,1378 "/>
  </g>
 </g>
</svg>
