<svg width="164" height="208" viewBox="0 0 164 208" fill="none" xmlns="http://www.w3.org/2000/svg">
<ellipse cx="82" cy="182" rx="82" ry="26" fill="#30242A" fill-opacity="0.1"/>
<path fill-rule="evenodd" clip-rule="evenodd" d="M88.4244 175.047L86.1277 182.598L76.9466 182.93L76.3329 171.576L88.4244 175.047Z" fill="#F77F89"/>
<path fill-rule="evenodd" clip-rule="evenodd" d="M76.5436 181.624V191.545L101.369 192.106C101.369 192.106 100.663 185.016 87.9687 184.9C88.0161 181.785 88.0214 181.624 88.0214 181.624H76.5436Z" fill="#6367FD"/>
<path fill-rule="evenodd" clip-rule="evenodd" d="M65.2213 176.475L65.3924 183.91L74.9792 184.244L77.4707 175.969L65.2213 176.475Z" fill="#F77F89"/>
<path fill-rule="evenodd" clip-rule="evenodd" d="M79.7199 0C90.1521 0 92.3117 9.91068 92.317 13.5505C92.317 17.0191 91.6401 17.5485 91.6638 21.0645C91.6796 23.7351 92.4539 25.605 92.3828 27.122C91.972 35.0232 81.2896 37.3014 78.2398 37.3461C75.1899 37.3909 61.9107 34.8204 61.9107 28.6786C61.9107 24.3935 64.6366 17.5406 64.5629 12.7814C64.3996 2.89709 72.6642 0 79.7199 0Z" fill="black"/>
<path fill-rule="evenodd" clip-rule="evenodd" d="M65.1686 182.59L65.3108 192.52L89.6806 193.07C89.6806 193.07 89.6806 185.83 76.3329 185.696V182.59H65.1686Z" fill="#6367FD"/>
<path fill-rule="evenodd" clip-rule="evenodd" d="M62.7772 108.114L62.8404 177.573L80.2546 177.194L80.518 173.978L91.7481 175.493L98.875 103.065L95.0271 84.5187L69.5933 83.8234L62.7772 108.114Z" fill="#3B4161"/>
<path fill-rule="evenodd" clip-rule="evenodd" d="M83.2939 137.628L93.7366 155.176L91.7534 175.308L80.5048 173.991L83.2939 137.628Z" fill="#15192C"/>
<path fill-rule="evenodd" clip-rule="evenodd" d="M75.9668 90.0732H94.4661L96.9707 62.7431L93.6286 41.7998L87.3076 35.7132L80.9709 32.8846L69.5274 34.6334L75.9668 90.0732Z" fill="#F7D167"/>
<path d="M68.6925 177.447L68.8137 103.563" stroke="#737999" stroke-width="1.7" stroke-linecap="round" stroke-linejoin="round"/>
<path fill-rule="evenodd" clip-rule="evenodd" d="M72.7879 32.5475C68.4634 32.666 55.5503 37.354 53.6645 42.1105C52.2318 45.7187 51.2494 78.3663 54.6153 79.9597C54.8314 80.0642 55.0572 80.1471 55.2895 80.2073C55.0867 81.2081 53.1483 104.382 53.6408 106.31C54.1333 108.238 55.4265 111.156 57.299 111.051C64.5444 110.616 77.8552 101.106 79.1773 99.5546C79.3801 96.6153 79.9411 85.5748 79.9411 85.5748L78.7876 52.8166L72.1848 34.7651C72.1848 34.7651 77.1125 32.429 72.7879 32.5475Z" fill="white"/>
<path fill-rule="evenodd" clip-rule="evenodd" d="M82.2114 32.3421C89.6464 33.2665 100.142 39.0317 101.493 41.6575C102.631 43.8646 102.054 72.4378 102.054 72.4378C102.054 72.4378 97.8399 78.2188 99.7388 86.5335C101.482 94.2028 101.999 104.556 100.171 106.492C97.1578 104.967 93.2836 98.854 92.5856 97.3475C91.8877 95.841 91.706 87.3183 91.1687 85.4958C90.6314 83.6732 88.2268 51.4076 88.2268 51.4076C88.2268 51.4076 87.1049 38.3733 82.2114 32.3421Z" fill="white"/>
<path d="M63.4936 35.0864C67.2361 41.9104 74.8186 49.6877 78.727 52.6559" stroke="#C9C9C9" stroke-width="2" stroke-linecap="round" stroke-linejoin="round"/>
<path d="M85.975 33.1243C89.3066 37.6174 90.1652 45.2525 87.5552 53.0062" stroke="#C9C9C9" stroke-width="2" stroke-linecap="round" stroke-linejoin="round"/>
<path d="M67.2756 54.1493C67.2756 53.5626 67.4496 52.9891 67.7755 52.5014C68.1015 52.0137 68.5648 51.6335 69.1069 51.4092C69.6489 51.1848 70.2453 51.1262 70.8207 51.2409C71.396 51.3555 71.9244 51.6382 72.339 52.0532C72.7537 52.4682 73.0359 52.9969 73.1501 53.5723C73.2642 54.1477 73.2051 54.7441 72.9802 55.286C72.7554 55.8278 72.3748 56.2908 71.8868 56.6163C71.3988 56.9419 70.8252 57.1153 70.2385 57.1148C69.4524 57.1141 68.6988 56.8014 68.1432 56.2453C67.5877 55.6892 67.2756 54.9353 67.2756 54.1493V54.1493Z" stroke="#353823" stroke-width="3.41" stroke-linecap="round" stroke-linejoin="round"/>
<path fill-rule="evenodd" clip-rule="evenodd" d="M68.7189 54.1493C68.7189 53.8497 68.8077 53.5569 68.9741 53.3079C69.1405 53.0589 69.377 52.8648 69.6537 52.7501C69.9304 52.6355 70.2349 52.6055 70.5287 52.664C70.8225 52.7224 71.0923 52.8666 71.3041 53.0784C71.5159 53.2902 71.6601 53.56 71.7185 53.8538C71.777 54.1476 71.747 54.4521 71.6324 54.7288C71.5178 55.0055 71.3236 55.242 71.0746 55.4084C70.8256 55.5748 70.5328 55.6636 70.2333 55.6636C69.8316 55.6636 69.4464 55.5041 69.1624 55.2201C68.8784 54.9361 68.7189 54.5509 68.7189 54.1493Z" fill="#353823"/>
<path d="M69.4379 51.2917C67.4363 43.941 67.3072 33.7116 72.4746 31.868" stroke="#353823" stroke-width="3.41" stroke-linecap="round" stroke-linejoin="round"/>
<path d="M81.4977 30.617C84.4448 31.8654 87.2524 37.6227 87.9108 42.553" stroke="#353823" stroke-width="3.41" stroke-linecap="round" stroke-linejoin="round"/>
<path d="M84.7293 51.8131C83.7864 47.2568 85.2086 43.1219 87.9055 42.553C90.6025 41.9841 93.5548 45.2341 94.4898 49.7905C95.4248 54.3468 94.0105 58.4817 91.3136 59.048C88.6166 59.6142 85.6721 56.3616 84.7293 51.8131Z" stroke="#353823" stroke-width="3.41" stroke-linecap="round" stroke-linejoin="round"/>
<path d="M66.388 44.6468L65.2502 66.799" stroke="#C9C9C9" stroke-width="2" stroke-linecap="round" stroke-linejoin="round"/>
<path d="M63.1854 45.3L66.1431 49.4244" stroke="#C9C9C9" stroke-width="2" stroke-linecap="round" stroke-linejoin="round"/>
<path fill-rule="evenodd" clip-rule="evenodd" d="M73.0698 65.037L61.6974 67.7577L73.0698 65.037Z" fill="#606060"/>
<path d="M73.0698 65.037L61.6974 67.7577" stroke="#C9C9C9" stroke-width="2" stroke-linecap="round" stroke-linejoin="round"/>
<path d="M62.2715 64.7157L65.1686 66.928" stroke="#C9C9C9" stroke-width="2" stroke-linecap="round" stroke-linejoin="round"/>
<path d="M73.5017 77.8659C68.7189 79.7911 57.357 82.093 55.2105 80.1862C52.3398 77.6341 51.5233 51.2943 52.964 44.307C53.8041 40.2406 58.047 37.6227 60.2594 36.5692" stroke="#C9C9C9" stroke-width="2" stroke-linecap="round" stroke-linejoin="round"/>
<path d="M70.0831 78.9931C68.7189 77.2628 68.1974 68.6347 68.8558 66.0458" stroke="#C9C9C9" stroke-width="2" stroke-linecap="round" stroke-linejoin="round"/>
<path fill-rule="evenodd" clip-rule="evenodd" d="M70.2333 67.7313C70.2328 67.5937 70.2731 67.459 70.3492 67.3443C70.4253 67.2297 70.5337 67.1401 70.6607 67.0871C70.7877 67.0341 70.9276 67.0199 71.0626 67.0465C71.1977 67.073 71.3218 67.139 71.4193 67.2361C71.5168 67.3333 71.5833 67.4571 71.6103 67.5921C71.6374 67.727 71.6238 67.867 71.5712 67.9942C71.5187 68.1214 71.4295 68.2301 71.3151 68.3066C71.2007 68.3832 71.0662 68.424 70.9286 68.424C70.8374 68.4244 70.747 68.4067 70.6627 68.372C70.5784 68.3374 70.5017 68.2864 70.4371 68.2221C70.3725 68.1577 70.3212 68.0812 70.2863 67.997C70.2513 67.9128 70.2333 67.8225 70.2333 67.7313Z" fill="#C9C9C9"/>
<path d="M68.9664 88.8801C67.4541 89.4641 65.8469 89.7632 64.2257 89.7624C63.0229 89.7507 61.8274 89.5735 60.6729 89.2357C60.5861 89.5696 60.5393 89.9126 60.5333 90.2575V95.7594C60.5333 96.9119 60.9911 98.0172 61.8061 98.8322C62.621 99.6472 63.7264 100.105 64.8789 100.105C66.0314 100.105 67.1368 99.6472 67.9517 98.8322C68.7667 98.0172 69.2245 96.9119 69.2245 95.7594V90.2523C69.2135 89.7839 69.1263 89.3205 68.9664 88.8801Z" stroke="#C9C9C9" stroke-width="2" stroke-linecap="round" stroke-linejoin="round"/>
<path fill-rule="evenodd" clip-rule="evenodd" d="M85.8222 50.1776H108.533C109.91 50.1776 110.732 51.2548 110.376 52.5822L101.609 84.8347C101.395 85.5129 100.976 86.1081 100.41 86.5387C99.8443 86.9693 99.1589 87.214 98.4483 87.2393H75.7509C74.3761 87.2393 73.5517 86.1621 73.9073 84.8347L82.6723 52.5822C82.8853 51.9055 83.3023 51.3112 83.8662 50.8807C84.4301 50.4502 85.1133 50.2046 85.8222 50.1776Z" fill="#6367FD"/>
<path fill-rule="evenodd" clip-rule="evenodd" d="M92.0905 48.5184H104.98C105.123 48.5064 105.267 48.5309 105.398 48.5896C105.529 48.6482 105.643 48.7391 105.73 48.8537C105.816 48.9683 105.872 49.103 105.893 49.2452C105.913 49.3873 105.897 49.5323 105.846 49.6667L105.22 51.8579C105.113 52.1818 104.911 52.4655 104.638 52.6707C104.366 52.876 104.038 52.9931 103.697 53.0062H90.8079C90.665 53.0174 90.5215 52.9925 90.3908 52.9336C90.2601 52.8748 90.1463 52.7839 90.06 52.6695C89.9736 52.5551 89.9175 52.4207 89.8968 52.2789C89.8761 52.137 89.8914 51.9923 89.9414 51.8579L90.5682 49.6667C90.6751 49.3432 90.878 49.0599 91.15 48.8548C91.422 48.6496 91.7501 48.5322 92.0905 48.5184Z" fill="#3B4161"/>
<path fill-rule="evenodd" clip-rule="evenodd" d="M73.0039 66.6173C74.008 66.0366 75.0744 65.571 76.1828 65.2293C77.7815 63.9124 78.9561 58.7108 79.3802 58.3816C79.8042 58.0524 81.2238 58.2658 81.2659 58.7583C81.4503 60.5624 81.3528 62.6693 79.7542 64.5524C84.4053 61.5948 84.7582 60.2832 86.0382 61.2735C87.3182 62.2637 87.7791 67.094 86.6808 69.0903C83.6573 74.6001 75.7035 75.3454 73.2699 75.3823C72.6642 72.7617 72.6642 69.5934 73.0039 66.6173Z" fill="#F77F89"/>
<path d="M62.8378 172.153L80.8208 171.576" stroke="#737999" stroke-width="1.7" stroke-linecap="round" stroke-linejoin="round"/>
<path d="M86.0198 101.833L80.5258 173.981" stroke="#737999" stroke-width="1.7" stroke-linecap="round" stroke-linejoin="round"/>
<path d="M80.9709 168.184L92.3275 169.517" stroke="#737999" stroke-width="1.7" stroke-linecap="round" stroke-linejoin="round"/>
<path d="M95.3484 138.908C94.6534 138.977 93.9515 138.892 93.2934 138.658C92.6353 138.423 92.0374 138.046 91.5427 137.553C91.0481 137.06 90.669 136.463 90.4329 135.805C90.1967 135.148 90.1094 134.446 90.1771 133.751C90.2448 133.056 90.466 132.384 90.8246 131.785C91.1832 131.185 91.6703 130.673 92.2509 130.284C92.8315 129.896 93.491 129.641 94.1819 129.538C94.8728 129.435 95.578 129.487 96.2465 129.69" stroke="#737999" stroke-width="1.7" stroke-linecap="round" stroke-linejoin="round"/>
<path d="M82.9857 142.139C81.6303 142.064 80.3575 141.464 79.438 140.465C78.5186 139.466 78.0251 138.148 78.0625 136.791C78.0999 135.434 78.6652 134.145 79.6383 133.199C80.6113 132.252 81.9153 131.723 83.2728 131.723C83.4484 131.723 83.6143 131.731 83.7706 131.747" stroke="#737999" stroke-width="1.7" stroke-linecap="round" stroke-linejoin="round"/>
<path d="M86.8573 62.7062L82.7882 65.9641" stroke="#A7464F" stroke-width="3.41" stroke-linecap="round" stroke-linejoin="round"/>
<path d="M87.2919 66.0774L82.1245 70.186" stroke="#A7464F" stroke-width="3.41" stroke-linecap="round" stroke-linejoin="round"/>
<path fill-rule="evenodd" clip-rule="evenodd" d="M109.984 65.922C109.921 64.8369 110.247 62.427 111.211 60.1278C111.564 59.2955 111.585 57.926 110.345 57.926C108.933 57.926 107.045 60.7599 107.974 64.1337C108.904 67.5075 110.076 67.4548 109.984 65.922Z" fill="#F77F89"/>
<path fill-rule="evenodd" clip-rule="evenodd" d="M105.612 59.5457C106.734 59.5457 110.145 66.2933 110.121 67.1124C110.097 67.9315 109.742 69.1773 109.212 69.1141C108.683 69.0508 104.253 63.412 104.253 61.4973C104.253 60.3885 104.793 59.5457 105.612 59.5457Z" fill="#F77F89"/>
<path fill-rule="evenodd" clip-rule="evenodd" d="M104.148 63.4226C105.546 63.4226 109.233 68.8006 109.26 69.4169C109.286 70.0332 108.541 70.5995 107.924 70.6258C107.308 70.6521 102.902 67.0387 102.902 65.3584C102.894 64.3312 103.358 63.4226 104.148 63.4226Z" fill="#F77F89"/>
<path fill-rule="evenodd" clip-rule="evenodd" d="M105.438 73.4808C106.044 73.4518 107.73 71.9453 107.73 70.7601C107.73 70.294 106.552 69.0877 105.962 69.1246C105.372 69.1614 104.169 71.4291 104.192 72.0059C104.216 72.5827 104.645 73.5097 105.438 73.4808Z" fill="#F77F89"/>
<path d="M107.729 62.0399C108.938 64.052 110.134 66.6278 110.121 67.1124" stroke="#A7464F" stroke-width="3.41" stroke-linecap="round" stroke-linejoin="round"/>
<path d="M104.993 63.8176C106.658 65.0713 109.231 68.9033 109.252 69.4169" stroke="#A94B53" stroke-width="3.41" stroke-linecap="round" stroke-linejoin="round"/>
<path fill-rule="evenodd" clip-rule="evenodd" d="M68.6083 15.4046C68.6083 9.37604 73.4306 4.47733 79.3907 4.47733C85.3508 4.47733 90.1626 9.36551 90.1626 15.3941C90.1626 21.4227 85.3298 26.3214 79.3907 26.3214C73.4517 26.3214 68.6083 21.4358 68.6083 15.4046Z" fill="#F77F89"/>
<path fill-rule="evenodd" clip-rule="evenodd" d="M77.7947 16.1921C77.9106 15.4968 78.3214 14.9832 78.7323 15.0517C79.1431 15.1202 79.3696 15.7365 79.259 16.4318C79.1484 17.1271 78.7323 17.6407 78.3214 17.5748C77.9106 17.509 77.6814 16.89 77.7947 16.1921Z" fill="#B5545C"/>
<path fill-rule="evenodd" clip-rule="evenodd" d="M85.9091 16.7136C86.0171 16.0631 86.4069 15.5837 86.7835 15.6469C87.1601 15.7101 87.3787 16.2869 87.2734 16.9374C87.168 17.588 86.773 18.0647 86.3964 17.9909C86.0197 17.9172 85.8011 17.3641 85.9091 16.7136Z" fill="#B5545C"/>
<path fill-rule="evenodd" clip-rule="evenodd" d="M70.2543 20.2112C70.8943 21.9916 72.5035 31.2438 72.0979 34.6044C73.7835 37.1591 81.2949 36.448 83.5335 34.2858C82.4195 31.1753 82.3773 28.9446 82.7856 26.3214C83.1727 23.8668 69.6143 18.436 70.2543 20.2112Z" fill="#F77F89"/>
<path fill-rule="evenodd" clip-rule="evenodd" d="M83.6547 4.21395C83.7469 6.80816 81.3792 9.28649 74.9424 10.5164C75.6482 12.3363 75.7061 15.0728 72.1901 15.5653C68.0894 16.1342 67.7549 10.8957 67.7549 10.8957L73.8968 3.6398C73.8968 3.6398 83.5652 1.61447 83.6547 4.21395Z" fill="black"/>
<path fill-rule="evenodd" clip-rule="evenodd" d="M81.7215 2.38878C81.4582 4.69329 84.1103 10.2899 90.2521 10.4427C94.6188 10.4427 81.977 0.081646 81.7215 2.38878Z" fill="black"/>
<path fill-rule="evenodd" clip-rule="evenodd" d="M74.5973 25.9342C74.0073 25.1889 74.8607 21.7914 75.7904 20.2349C76.9123 19.5738 80.8919 20.1242 82.9436 18.3597C83.5467 17.8329 83.8706 18.2227 84.3394 18.7995C85.1638 19.8108 87.6421 20.3349 88.5692 20.9065C88.7061 22.3813 87.3524 25.7578 86.7677 26.5136C85.8512 27.712 77.4733 27.82 74.5973 25.9342Z" fill="white"/>
<path d="M76.333 20.543C75.7904 19.637 73.4201 15.5837 72.6642 14.5566" stroke="white" stroke-width="3.41" stroke-linecap="round" stroke-linejoin="round"/>
<path d="M75.0635 25.7183C73.4596 25.7183 69.6459 20.701 69.2114 19.0181" stroke="white" stroke-width="3.41" stroke-linecap="round" stroke-linejoin="round"/>
<path fill-rule="evenodd" clip-rule="evenodd" d="M66.7646 16.3001C66.7646 15.6057 66.9706 14.927 67.3563 14.3496C67.7421 13.7723 68.2904 13.3223 68.9319 13.0566C69.5734 12.7909 70.2793 12.7213 70.9603 12.8568C71.6413 12.9923 72.2669 13.3266 72.7579 13.8176C73.2489 14.3086 73.5832 14.9342 73.7187 15.6152C73.8541 16.2962 73.7846 17.0021 73.5189 17.6436C73.2532 18.2851 72.8032 18.8334 72.2259 19.2192C71.6485 19.6049 70.9698 19.8108 70.2754 19.8108C69.3443 19.8108 68.4513 19.4409 67.7929 18.7826C67.1345 18.1242 66.7646 17.2312 66.7646 16.3001Z" fill="#F77F89"/>
<path d="M88.9485 190.723L65.2819 190.56" stroke="#4C4FD9" stroke-width="1.7" stroke-linecap="round" stroke-linejoin="round"/>
<path d="M89.4541 191.885C88.8036 189.828 86.2594 185.798 76.3329 185.701V184.703" stroke="#4C4FD9" stroke-width="1.7" stroke-linecap="round" stroke-linejoin="round"/>
<path d="M65.2819 187.832C65.8698 187.832 66.452 187.947 66.9953 188.172C67.5385 188.397 68.032 188.727 68.4478 189.143C68.8636 189.559 69.1934 190.052 69.4184 190.595C69.6434 191.139 69.7592 191.721 69.7592 192.309C69.7592 192.427 69.7592 192.543 69.7592 192.659" stroke="#4C4FD9" stroke-width="1.7" stroke-linecap="round" stroke-linejoin="round"/>
<path d="M78.9561 187.974L80.1176 185.962" stroke="#4C4FD9" stroke-width="1.7" stroke-linecap="round" stroke-linejoin="round"/>
<path d="M81.6899 188.448L82.6802 186.473" stroke="#4C4FD9" stroke-width="1.7" stroke-linecap="round" stroke-linejoin="round"/>
<path d="M84.2762 188.967L85.1375 187.368" stroke="#4C4FD9" stroke-width="1.7" stroke-linecap="round" stroke-linejoin="round"/>
<path d="M79.5724 92.6121L91.8719 92.2275" stroke="#737999" stroke-width="1.7" stroke-linecap="round" stroke-linejoin="round"/>
<path d="M65.187 183.868L76.3329 183.686" stroke="#4C4FD9" stroke-width="1.7" stroke-linecap="round" stroke-linejoin="round"/>
<path d="M76.5436 182.78L88.0056 182.688" stroke="#4C4FD9" stroke-width="1.7" stroke-linecap="round" stroke-linejoin="round"/>
<path d="M100.774 190.37L88.5482 190.107" stroke="#4C4FD9" stroke-width="1.7" stroke-linecap="round" stroke-linejoin="round"/>
<path d="M91.6823 185.166L90.6288 187.039" stroke="#4C4FD9" stroke-width="1.7" stroke-linecap="round" stroke-linejoin="round"/>
<path d="M93.4389 185.585L92.3854 187.46" stroke="#4C4FD9" stroke-width="1.7" stroke-linecap="round" stroke-linejoin="round"/>
<path d="M95.3142 186.101L94.2607 187.976" stroke="#4C4FD9" stroke-width="1.7" stroke-linecap="round" stroke-linejoin="round"/>
<path d="M60.557 110.405C56.6064 112.059 53.6408 109.112 53.6171 106.192C53.5934 103.271 54.7496 85.8434 54.9076 84.1052" stroke="#C9C9C9" stroke-width="2" stroke-linecap="round" stroke-linejoin="round"/>
<path d="M101.993 45.8267C102.199 39.864 95.9199 37.1354 93.3362 35.9661" stroke="#C9C9C9" stroke-width="2" stroke-linecap="round" stroke-linejoin="round"/>
<path d="M100.766 105.349C101.258 102.17 101.293 93.5681 100.46 90.2865" stroke="#C9C9C9" stroke-width="2" stroke-linecap="round" stroke-linejoin="round"/>
</svg>
