<svg width="140" height="144" viewBox="0 0 140 144" fill="none" xmlns="http://www.w3.org/2000/svg">
<g clip-path="url(#clip0)">
<path fill-rule="evenodd" clip-rule="evenodd" d="M120.811 131.879C126.49 126.578 130.308 118.897 130.308 111C130.21 99.8569 122.671 89.255 125.217 78.3286C127.469 68.7004 136.965 62.3177 139.315 52.6895C140.783 47.064 139.51 41.0059 137.357 35.7049C130.112 18.1794 113.077 6.71215 95.1608 2.38487C77.2447 -1.83423 58.4475 0.221231 40.2378 3.68305C32.5035 5.08942 24.7692 6.82033 17.9161 10.9313C11.0629 15.0422 5.4825 21.4249 2.25173 28.9976C0.783202 32.4595 -0.195819 36.1377 -1.50185e-05 39.8158C0.587398 46.415 4.89509 51.8241 7.34264 57.8822C14.2937 75.4077 4.50348 95.8541 7.73425 114.57C8.71327 119.871 10.6713 125.063 13.5105 129.499C16.2517 133.826 19.8741 137.504 24.3776 139.668C32.7972 143.779 42.0979 141.831 51.007 140.641C60.8951 139.343 68.4336 141.831 78.028 143.346C91.4406 145.618 110.336 141.723 120.811 131.879Z" fill="#D7DBFA"/>
<path fill-rule="evenodd" clip-rule="evenodd" d="M73.1329 132.528C72.7413 131.554 72.1538 130.689 71.5664 129.715C62.6573 115.76 51.2028 109.593 39.9441 107.43C33.8741 106.24 27.8042 106.023 21.8322 106.24C17.1329 106.348 11.4545 105.807 7.14685 109.052C7.24475 110.891 7.44056 112.731 7.73426 114.57C8.71328 119.871 10.6713 125.063 13.5105 129.499C16.2517 133.826 19.8741 137.504 24.3776 139.668C32.7972 143.779 42.0979 141.831 51.007 140.641C59.6224 139.56 66.3776 141.182 74.3077 142.697C74.8951 139.451 74.6014 135.881 73.1329 132.528Z" fill="#FEFEFE"/>
<path d="M74.3077 142.697C74.8951 139.451 74.6014 135.881 73.1329 132.528M73.1329 132.528C72.7413 131.554 72.1538 130.689 71.5664 129.715C62.6573 115.76 51.2028 109.593 39.9441 107.43C33.8741 106.24 27.8042 106.023 21.8322 106.24C17.1329 106.348 11.4545 105.807 7.14685 109.052L73.1329 132.528Z" stroke="#4756DF" stroke-width="1.95939"/>
<path fill-rule="evenodd" clip-rule="evenodd" d="M33.3846 91.6351C27.8042 81.7905 24.5734 70.3232 24.1818 58.6395C20.1678 52.9059 17.5245 45.5495 17.7203 38.1931C18.014 30.9449 22.5175 23.4804 28.979 22.3986C31.9161 21.9658 34.8531 22.7231 37.6923 22.5068C42 22.1822 45.8182 19.8022 49.4405 17.4222C53.0629 14.934 56.7832 12.3376 60.8951 11.4722C65.1049 10.6067 69.9021 11.7967 72.2517 15.7995C73.3287 17.5304 73.8182 19.694 74.7972 21.5331C76.1678 23.9131 78.5175 25.4277 80.8671 26.7258C83.1189 28.024 85.5664 29.3222 87.3287 31.3777C89.0909 33.4331 90.1678 36.5704 89.0909 39.1668C87.9161 42.3041 84 44.3595 84.2937 47.7132C84.6853 50.5259 87.7203 52.1486 87.9161 54.8532C88.1119 57.125 86.2517 58.8559 84.5874 60.2623C75.7762 67.2941 66.8671 74.4341 58.0559 81.5741C54.4336 84.3869 50.8112 87.3078 46.6993 89.2551C42.5874 91.2023 37.5944 93.1496 33.3846 91.6351Z" fill="#4756DF"/>
<path fill-rule="evenodd" clip-rule="evenodd" d="M33.3846 91.6351C27.8042 81.7905 24.5734 70.3232 24.1818 58.6395C20.1678 52.9059 17.5245 45.5495 17.7203 38.1931C17.9161 30.9449 22.5175 23.4804 28.979 22.3986C31.9161 21.9658 34.7552 22.7231 37.6923 22.5067C41.9021 22.1822 45.8182 19.8022 49.4406 17.4222C53.0629 14.934 56.6853 12.3376 60.8951 11.4722C65.007 10.6067 69.9021 11.7967 72.2517 15.7995C73.3287 17.5304 73.7203 19.694 74.7972 21.5331C76.1678 23.9131 78.5175 25.4277 80.7692 26.7258C83.1189 28.024 85.4685 29.3222 87.3287 31.3777C89.0909 33.4331 90.1678 36.5704 89.0909 39.1668C87.9161 42.3041 83.9021 44.3595 84.2937 47.7132C84.5874 50.5259 87.7203 52.1486 87.9161 54.8532C88.1119 57.125 86.2517 58.8559 84.5874 60.2623C75.7762 67.2941 66.8671 74.4341 58.0559 81.5741C54.4336 84.3869 50.8112 87.3078 46.6993 89.2551C42.5874 91.2023 37.5944 93.1496 33.3846 91.6351Z" stroke="#4756DF" stroke-width="1.95939"/>
<path fill-rule="evenodd" clip-rule="evenodd" d="M74.6014 60.2622C75.1888 68.3758 75.3846 76.814 74.8951 84.9277C74.5035 90.3368 72.4475 96.1786 68.4335 99.7486C63.4405 104.076 56.979 102.778 51.1048 102.237C50.3216 102.237 46.4055 120.411 45.916 122.467C41.7062 124.522 36.4195 123.981 32.4055 121.385C28.4895 118.789 25.7482 113.92 25.2587 108.836C27.902 102.778 33.3846 91.5268 33.972 83.954C31.0349 84.0622 28 82.2231 26.1398 79.7349C24.8671 78.1122 24.2797 75.8404 24.965 73.7849C26.0419 70.6476 28.7832 70.1067 31.1328 70.7558C32.6993 71.1886 34.1678 72.054 35.5384 73.0277C35.4405 64.0485 36.4195 61.6685 39.8461 53.4467C40.8251 51.0667 40.4335 48.1458 39.944 45.2249C39.7482 43.3858 40.923 41.6549 42.6853 41.4385C48.8531 40.8976 55.4125 40.0321 61.4825 39.5994C65.2028 39.2749 69.5104 39.1667 72.2517 42.0876C73.5244 43.3858 73.6223 49.7685 73.8181 51.824C74.1118 54.6367 74.4056 57.4494 74.6014 60.2622Z" fill="#FEFEFE"/>
<path fill-rule="evenodd" clip-rule="evenodd" d="M74.6014 60.2622C75.1888 68.3758 75.3846 76.814 74.8951 84.9277C74.5035 90.3368 72.4475 96.1786 68.4335 99.7486C63.4405 104.076 56.979 102.778 51.1048 102.237C50.3216 102.237 46.4055 120.411 45.916 122.467C41.7062 124.522 36.4195 123.981 32.4055 121.385C28.4895 118.789 25.7482 113.92 25.2587 108.836C27.902 102.778 33.3846 91.5268 33.972 83.954C31.0349 84.0622 28 82.2231 26.1398 79.7349C24.8671 78.1122 24.2797 75.8404 24.965 73.7849C26.0419 70.6476 28.7832 70.1067 31.1328 70.7558C32.6993 71.1886 34.1678 72.054 35.5384 73.0277C35.4405 64.0485 36.4195 61.6685 39.8461 53.4467C40.8251 51.0667 40.4335 48.1458 39.944 45.2249C39.7482 43.3858 40.923 41.6549 42.6853 41.4385C48.8531 40.8976 55.4125 40.0321 61.4825 39.5994C65.2028 39.2749 69.5104 39.1667 72.2517 42.0876C73.5244 43.3858 73.6223 49.7685 73.8181 51.824C74.1118 54.6367 74.4056 57.4494 74.6014 60.2622Z" stroke="#4756DF" stroke-width="1.95939"/>
<path d="M29.2727 74.0013C31.4266 74.7586 33.1888 76.3813 34.2657 78.545" stroke="#4756DF" stroke-width="1.95939" stroke-linecap="round"/>
<path d="M46.8951 51.6076C50.3217 51.7158 53.6504 49.9849 55.7063 46.9558" stroke="#4756DF" stroke-width="1.95939" stroke-linecap="round"/>
<path d="M63.3427 46.9558C65.3986 48.9031 68.2378 49.8767 70.979 49.444" stroke="#4756DF" stroke-width="1.95939" stroke-linecap="round"/>
<path d="M66.2797 72.7031C67.0629 74.0013 67.944 75.2995 68.8251 76.5977C69.5104 77.6795 70.1958 78.8695 70.0979 80.1677C69.902 81.1413 69.3146 82.0068 68.6293 82.5477C67.7482 83.3049 66.6713 83.7377 65.6923 83.954" stroke="#4756DF" stroke-width="1.95939" stroke-linecap="round"/>
<path d="M55.5105 88.4977C56.4895 88.065 57.4685 88.065 58.4476 88.1731C59.6224 88.1731 60.6993 88.3895 61.6783 88.9304C62.7553 89.4713 63.5385 90.445 63.9301 91.5268" stroke="#4756DF" stroke-width="1.95939" stroke-linecap="round"/>
<path d="M53.5525 57.2332C53.7483 59.2886 53.8462 61.4523 53.9441 63.6159" stroke="#4756DF" stroke-width="1.95939" stroke-linecap="round"/>
<path d="M67.9441 56.9086C68.3357 58.8558 68.4336 60.9113 68.4336 62.9668" stroke="#4756DF" stroke-width="1.95939" stroke-linecap="round"/>
<path fill-rule="evenodd" clip-rule="evenodd" d="M43.1748 55.394C43.1748 57.2331 43.1748 59.0722 43.1748 60.9113C43.1748 61.3441 43.1748 61.885 43.3706 62.3177C43.5664 62.7504 43.958 63.075 44.3496 62.9668C44.8391 62.8586 45.0349 62.2095 45.1328 61.5604C45.2308 60.8031 45.2308 59.9377 45.2308 59.0722L43.1748 55.394Z" fill="#FAF9F9"/>
<path d="M43.1748 55.394C43.1748 57.2331 43.1748 59.0722 43.1748 60.9113C43.1748 61.3441 43.1748 61.885 43.3706 62.3177C43.5664 62.7504 43.958 63.075 44.3496 62.9668C44.8391 62.8586 45.0349 62.2095 45.1328 61.5604C45.2308 60.8031 45.2308 59.9377 45.2308 59.0722" stroke="#4756DF" stroke-width="1.95939" stroke-linecap="round"/>
<path fill-rule="evenodd" clip-rule="evenodd" d="M38.5734 61.2358C38.5734 63.0749 38.5734 64.914 38.5734 66.7531C38.5734 67.1858 38.5734 67.6186 38.7692 68.0513C38.965 68.484 39.3566 68.8086 39.7482 68.7004C40.2377 68.5922 40.4335 67.9431 40.5314 67.4022C40.6293 66.5368 40.7272 65.7795 40.6293 64.914L38.5734 61.2358Z" fill="#FAF9F9"/>
<path d="M38.5734 61.2358C38.5734 63.0749 38.5734 64.914 38.5734 66.7531C38.5734 67.1858 38.5734 67.6186 38.7692 68.0513C38.965 68.484 39.3566 68.8086 39.7482 68.7004C40.2377 68.5922 40.4335 67.9431 40.5314 67.4022C40.6293 66.5368 40.7272 65.7795 40.6293 64.914" stroke="#4756DF" stroke-width="1.95939" stroke-linecap="round"/>
<path fill-rule="evenodd" clip-rule="evenodd" d="M45.2307 66.3204C45.2307 68.1595 45.2307 69.9986 45.2307 71.8377C45.2307 72.3786 45.2307 72.8114 45.4265 73.2441C45.6223 73.6768 46.0139 74.0014 46.4055 73.8932C46.993 73.785 47.1888 73.1359 47.2867 72.595C47.3846 71.7295 47.3846 68.1595 47.2867 67.2941L45.2307 66.3204Z" fill="#FAF9F9"/>
<path d="M45.2307 66.3204C45.2307 68.1595 45.2307 69.9986 45.2307 71.8377C45.2307 72.3786 45.2307 72.8114 45.4265 73.2441C45.6223 73.6768 46.0139 74.0014 46.4055 73.8932C46.993 73.785 47.1888 73.1359 47.2867 72.595C47.3846 71.7295 47.3846 68.1595 47.2867 67.2941" stroke="#4756DF" stroke-width="1.95939" stroke-linecap="round"/>
<path fill-rule="evenodd" clip-rule="evenodd" d="M101.916 117.058C101.916 116.95 101.916 116.95 101.818 116.95C99.7623 116.084 97.4126 117.815 97.3147 120.411C97.021 128.092 96.2378 135.773 94.9651 143.238C102.993 142.048 111.021 139.235 117.189 134.8C117.189 130.472 117.091 126.145 117.189 121.818C117.189 119.762 115.72 118.14 113.86 118.031C109.846 117.923 105.245 118.464 101.916 117.058Z" fill="#FEFEFE"/>
<path fill-rule="evenodd" clip-rule="evenodd" d="M116.406 135.449C116.308 130.905 116.308 126.361 116.308 121.818C116.308 120.303 115.231 119.005 113.86 119.005C112.783 118.897 111.706 119.005 110.531 119.005C107.399 119.005 104.168 119.005 101.622 117.923H101.524L101.916 117.058L101.524 117.815C100.839 117.491 99.958 117.599 99.3706 118.14C98.5874 118.572 98.1957 119.438 98.0978 120.411C97.902 127.984 97.1188 135.665 95.8461 143.13C95.2587 143.238 94.6713 143.346 94.0839 143.454C95.3566 135.773 96.1398 128.092 96.4335 120.303C96.5314 118.789 97.2167 117.382 98.3916 116.517C99.5664 115.76 100.937 115.543 102.21 116.084V116.192C104.461 117.166 107.594 117.166 110.531 117.058C111.706 117.058 112.783 117.058 113.958 117.166C116.21 117.166 117.972 119.33 117.972 121.818C117.972 125.929 117.972 130.148 118.07 134.259C117.482 134.583 116.993 135.016 116.406 135.449Z" fill="#4756DF"/>
<path fill-rule="evenodd" clip-rule="evenodd" d="M110.923 94.2314C111.217 92.9332 111.608 91.5269 111.608 90.2287C111.608 88.8223 111.217 87.4159 110.336 86.4423C109.063 85.2523 107.105 85.0359 106.42 83.4132C106.224 83.1968 106.126 82.7641 105.832 82.5478C105.245 82.0068 104.364 82.6559 103.874 83.4132C102.504 86.0096 103.287 89.9041 105.636 91.5269C105.832 91.635 105.93 91.7432 106.028 91.9596C106.126 92.0678 106.126 92.2841 106.028 92.5005C105.93 94.1232 105.538 95.746 105.147 97.3687L110.923 94.2314Z" fill="#FEFEFE"/>
<path fill-rule="evenodd" clip-rule="evenodd" d="M105.343 83.305C105.245 83.305 104.853 83.5213 104.657 83.954C103.385 86.1177 104.07 89.3631 106.126 90.7695C106.322 90.8777 106.615 91.0941 106.811 91.5268C107.007 91.9595 106.909 92.3922 106.909 92.6086C106.811 93.5822 106.615 94.5559 106.42 95.5295L110.238 93.5822C110.531 92.5004 110.727 91.3104 110.727 90.2286C110.825 88.9304 110.434 87.7404 109.748 87.0913C109.357 86.7668 108.769 86.4422 108.182 86.1177C107.301 85.685 106.224 85.144 105.636 83.954C105.538 83.8459 105.538 83.7377 105.538 83.6295C105.441 83.5213 105.343 83.305 105.343 83.305ZM103.678 99.0995L104.364 97.0441C104.755 95.5295 105.049 93.9068 105.245 92.3922C105.245 92.2841 105.245 92.2841 105.245 92.2841C102.406 90.3368 101.524 86.0095 103.189 82.9804C103.482 82.3313 104.168 81.574 105.049 81.4659C105.538 81.3577 106.028 81.4659 106.42 81.7904C106.713 82.115 106.909 82.5477 107.007 82.764C107.007 82.8722 107.105 82.9804 107.105 82.9804C107.399 83.6295 108.182 84.0622 108.965 84.495C109.552 84.8195 110.238 85.144 110.825 85.7931C111.902 86.7668 112.489 88.3895 112.489 90.2286C112.489 91.7431 112.098 93.1495 111.706 94.4477L111.608 94.8804L103.678 99.0995Z" fill="#4756DF"/>
<path fill-rule="evenodd" clip-rule="evenodd" d="M103.287 96.5033C101.916 96.5033 102.993 91.9596 102.406 90.5532C101.818 89.1469 100.741 87.9569 99.3707 87.6323C98.7833 87.5241 98.2937 87.5241 97.8042 87.8487C97.021 88.2814 96.7273 89.2551 96.7273 90.1205C96.7273 91.0942 96.9231 91.9596 97.021 92.9332C97.4126 95.4214 96.8252 97.9096 96.2378 100.398C95.7483 102.886 95.2588 105.482 95.7483 107.971C96.2378 110.459 98 112.731 100.35 112.839C100.839 115.327 100.839 117.815 100.448 120.303C104.559 122.359 109.65 123.657 114.154 122.791C113.566 119.979 113.664 117.058 113.664 114.029C114.643 113.812 115.525 112.514 116.112 111.432C116.699 110.351 117.189 109.161 117.483 107.971C118.07 105.266 118.168 102.453 117.58 99.7487C117.385 99.0996 116.895 98.5587 116.21 98.4505C115.231 98.2342 114.154 97.6933 113.175 97.3687C109.944 96.5033 106.615 96.5033 103.287 96.5033Z" fill="#FEFEFE"/>
<path fill-rule="evenodd" clip-rule="evenodd" d="M101.427 119.762C105.343 121.601 109.65 122.467 113.077 122.034C112.783 119.654 112.783 117.274 112.881 114.894V113.38L113.468 113.163C114.252 112.947 115.035 111.54 115.329 110.891C116.014 109.918 116.406 108.836 116.699 107.754C117.287 104.941 117.287 102.345 116.797 100.073C116.699 99.6404 116.406 99.4241 116.112 99.3159C115.427 99.2077 114.741 98.9914 114.154 98.775C113.762 98.5586 113.371 98.4504 112.979 98.3423C109.748 97.4768 106.126 97.4768 103.287 97.4768C102.895 97.4768 102.503 97.2604 102.308 97.0441C101.622 96.2868 101.622 94.8804 101.72 93.2577C101.72 92.3923 101.72 91.3104 101.622 90.9859C101.133 89.6877 100.154 88.7141 99.1748 88.4977C98.7832 88.4977 98.3916 88.4977 98.1958 88.6059C97.7063 88.9304 97.6084 89.5795 97.6084 90.1204C97.5105 90.6613 97.6084 91.2023 97.7063 91.8513C97.8042 92.1759 97.9021 92.3923 97.9021 92.7168C98.1958 95.3132 97.7063 97.9095 97.1188 100.398V100.614C96.5314 103.102 96.1398 105.482 96.5314 107.754C97.0209 109.701 98.3916 111.865 100.35 111.973H101.035L101.133 112.73C101.622 114.894 101.622 117.274 101.427 119.762ZM111.315 123.981C107.79 123.981 103.776 123.008 100.154 121.169L99.5664 120.844L99.6643 120.195C99.958 117.923 99.958 115.76 99.6643 113.704C97.2167 113.163 95.4545 110.567 94.965 108.187C94.3776 105.482 94.8671 102.886 95.4545 100.181L95.5524 99.965C96.0419 97.585 96.5314 95.3132 96.2377 93.0413C96.2377 92.7168 96.1398 92.5004 96.1398 92.1759C95.944 91.5268 95.8461 90.8777 95.8461 90.1204C95.944 88.7141 96.4335 87.5241 97.4125 86.9832C98 86.6586 98.6853 86.5504 99.4685 86.6586C101.035 87.0913 102.406 88.3895 103.189 90.2286C103.482 90.9859 103.385 92.0677 103.385 93.3659C103.385 94.015 103.385 95.205 103.482 95.6377C106.42 95.6377 110.042 95.6377 113.371 96.5032C113.762 96.6114 114.252 96.8277 114.741 96.9359C115.231 97.1523 115.818 97.3686 116.406 97.4768C117.287 97.6932 118.168 98.4504 118.364 99.5323C119.049 102.129 118.951 105.05 118.266 108.187C117.972 109.485 117.482 110.783 116.797 111.973C116.112 113.055 115.427 114.137 114.545 114.678V114.894C114.448 117.599 114.448 120.087 114.937 122.683L115.133 123.549L114.252 123.765C113.273 123.981 112.294 123.981 111.315 123.981Z" fill="#4756DF"/>
<path fill-rule="evenodd" clip-rule="evenodd" d="M104.755 98.1259C104.755 99.2078 104.853 100.29 105.538 101.155C106.126 102.02 107.399 102.345 108.182 101.696C108.769 101.263 108.965 100.506 109.161 99.7487C109.552 97.9096 111.413 93.3659 109.846 91.8514C108.476 90.5532 106.517 91.9596 105.832 93.3659C105.147 94.7723 104.755 96.5032 104.755 98.1259Z" fill="#FEFEFE"/>
<path fill-rule="evenodd" clip-rule="evenodd" d="M105.538 98.1259C105.538 99.2078 105.734 100.073 106.126 100.614C106.517 101.047 107.301 101.371 107.692 100.939C107.986 100.722 108.182 100.073 108.28 99.5323C108.378 99.0996 108.573 98.775 108.671 98.2341C109.161 96.7196 110.14 93.4741 109.259 92.6087C108.965 92.2841 108.671 92.1759 108.28 92.2841C107.692 92.3923 106.909 93.0414 106.517 93.7987C105.93 95.0968 105.636 96.6114 105.538 98.1259ZM107.203 102.994C106.322 102.994 105.441 102.453 104.853 101.804C104.168 100.939 103.874 99.6405 103.874 98.0178C103.874 96.2868 104.266 94.5559 105.049 92.9332C105.538 91.9596 106.615 90.7696 107.986 90.445C108.867 90.3368 109.65 90.5532 110.336 91.2023C112.098 92.825 111.021 96.395 110.336 98.775C110.14 99.3159 110.042 99.6405 109.944 99.965C109.748 100.722 109.552 101.804 108.671 102.453C108.28 102.886 107.692 102.994 107.203 102.994Z" fill="#4756DF"/>
<path fill-rule="evenodd" clip-rule="evenodd" d="M108.182 100.181C108.182 101.263 108.28 102.453 108.965 103.21C109.65 104.076 110.825 104.4 111.608 103.751C112.196 103.319 112.392 102.561 112.587 101.804C112.979 99.965 114.839 95.4214 113.273 93.9068C111.902 92.6086 109.944 94.015 109.259 95.4214C108.573 96.8277 108.182 98.5586 108.182 100.181Z" fill="#FEFEFE"/>
<path fill-rule="evenodd" clip-rule="evenodd" d="M112 94.3395C111.902 94.3395 111.804 94.3395 111.706 94.3395C111.119 94.5559 110.336 95.0968 109.944 95.8541C109.357 97.1523 109.063 98.6668 108.965 100.181C108.965 101.263 109.161 102.129 109.65 102.67C109.944 103.102 110.727 103.427 111.119 102.994C111.413 102.778 111.608 102.237 111.804 101.588C111.804 101.263 112 100.83 112.098 100.29C112.587 98.775 113.566 95.5295 112.685 94.6641C112.489 94.4477 112.196 94.3395 112 94.3395ZM110.629 105.05C109.748 105.05 108.867 104.617 108.28 103.86C107.594 102.994 107.301 101.696 107.301 100.181C107.301 98.3423 107.79 96.6114 108.475 94.9886C108.965 94.015 110.042 92.825 111.413 92.5004C112.294 92.3923 113.077 92.6086 113.762 93.2577C115.524 94.8804 114.448 98.5586 113.762 100.939C113.566 101.371 113.468 101.696 113.371 102.02C113.175 102.778 112.979 103.86 112.098 104.509C111.706 104.941 111.119 105.05 110.629 105.05Z" fill="#4756DF"/>
<path fill-rule="evenodd" clip-rule="evenodd" d="M111.902 101.804C111.902 102.886 112.098 104.076 112.685 104.941C113.371 105.807 114.545 106.131 115.329 105.482C115.916 105.05 116.112 104.184 116.308 103.427C116.797 101.696 118.559 97.1523 116.993 95.6378C115.622 94.3396 113.664 95.6378 112.979 97.1523C112.294 98.5587 111.902 100.181 111.902 101.804Z" fill="#FEFEFE"/>
<path fill-rule="evenodd" clip-rule="evenodd" d="M115.72 96.0705C115.622 96.0705 115.524 96.0705 115.427 96.0705C114.839 96.1787 114.056 96.8278 113.762 97.585C113.077 98.8832 112.783 100.29 112.783 101.804C112.685 102.994 112.979 103.751 113.371 104.292C113.664 104.833 114.448 105.05 114.839 104.725C115.133 104.401 115.329 103.86 115.524 103.211C115.622 102.886 115.72 102.453 115.818 102.021C116.308 100.398 117.287 97.1523 116.406 96.2869C116.21 96.0705 116.014 96.0705 115.72 96.0705ZM114.448 106.781C113.469 106.781 112.587 106.24 112.098 105.482C111.413 104.617 111.021 103.427 111.021 101.804C111.119 100.073 111.511 98.2341 112.196 96.7196C112.783 95.6378 113.86 94.4478 115.133 94.2314C116.014 94.015 116.895 94.2314 117.58 94.8805C119.245 96.6114 118.168 100.181 117.483 102.561C117.287 102.994 117.189 103.427 117.091 103.751C116.993 104.401 116.699 105.591 115.916 106.24C115.427 106.564 114.937 106.781 114.448 106.781Z" fill="#4756DF"/>
<path fill-rule="evenodd" clip-rule="evenodd" d="M107.399 112.406C107.301 112.406 107.105 112.298 106.909 112.19C106.517 111.973 106.42 111.324 106.713 110.891C107.105 110.242 107.301 109.161 107.105 107.862C106.909 106.456 106.517 105.374 106.028 104.509C105.441 103.751 104.559 102.778 103.58 102.67L102.895 102.561L102.797 101.912C102.503 99.8569 102.21 97.9096 101.818 95.8541C101.72 95.4214 102.014 94.8805 102.406 94.7723C102.895 94.6641 103.385 94.9887 103.483 95.5296C103.776 97.2605 104.168 99.0996 104.364 100.939C105.441 101.263 106.615 102.237 107.399 103.427C108.084 104.509 108.573 105.915 108.769 107.646C108.965 109.377 108.769 110.891 108.084 111.973C107.986 112.19 107.692 112.406 107.399 112.406Z" fill="#4756DF"/>
<path fill-rule="evenodd" clip-rule="evenodd" d="M101.916 93.3659C100.448 93.3659 99.1748 92.0677 99.1748 90.3368V64.6977C99.1748 62.9668 100.448 61.5604 101.916 61.5604C103.482 61.5604 104.755 62.9668 104.755 64.6977V90.3368C104.755 92.0677 103.482 93.3659 101.916 93.3659Z" fill="#FEFEFE"/>
<path fill-rule="evenodd" clip-rule="evenodd" d="M101.916 62.534C100.839 62.534 100.056 63.5077 100.056 64.6977V90.3368C100.056 91.5268 100.839 92.5005 101.916 92.5005C102.993 92.5005 103.874 91.5268 103.874 90.3368V64.6977C103.874 63.5077 102.993 62.534 101.916 62.534ZM101.916 94.3396C99.958 94.3396 98.2937 92.5005 98.2937 90.3368V64.6977C98.2937 62.4259 99.958 60.6949 101.916 60.6949C103.972 60.6949 105.538 62.4259 105.538 64.6977V90.3368C105.538 92.5005 103.972 94.3396 101.916 94.3396Z" fill="#4756DF"/>
<path fill-rule="evenodd" clip-rule="evenodd" d="M102.014 87.9568C101.133 87.9568 100.35 88.6059 100.35 89.5795C100.35 90.445 100.937 91.4186 101.818 91.4186C102.699 91.4186 103.482 90.6613 103.482 89.6877C103.482 88.8222 102.895 87.9568 102.014 87.9568Z" fill="#EE7865"/>
<path fill-rule="evenodd" clip-rule="evenodd" d="M102.112 89.3632C102.014 89.3632 102.014 89.4713 102.112 89.4713V89.3632Z" fill="#EE7865"/>
<path fill-rule="evenodd" clip-rule="evenodd" d="M101.916 68.1595C101.524 68.1595 101.231 68.4841 101.231 68.9168V88.9305C101.231 89.3632 101.524 89.6878 101.916 89.6878C102.308 89.6878 102.601 89.3632 102.601 88.9305V68.9168C102.601 68.4841 102.308 68.1595 101.916 68.1595Z" fill="#EE7865"/>
<path fill-rule="evenodd" clip-rule="evenodd" d="M112.392 124.09C110.531 124.09 108.769 123.981 106.909 123.765C103.189 123.224 99.958 121.926 97.6084 119.979C97.2168 119.654 97.1189 119.113 97.4126 118.68C97.7063 118.248 98.1958 118.14 98.5874 118.464C100.741 120.195 103.678 121.385 107.203 121.926C110.336 122.359 113.566 122.25 116.895 122.142C117.385 122.142 117.776 122.467 117.776 123.008C117.776 123.549 117.483 123.981 116.993 123.981C115.427 124.09 113.86 124.09 112.392 124.09Z" fill="#4756DF"/>
</g>
<defs>
<clipPath id="clip0">
<rect width="140" height="144" fill="white"/>
</clipPath>
</defs>
</svg>
