<svg width="512" height="512" viewBox="0 0 512 512" fill="none" xmlns="http://www.w3.org/2000/svg">
<path d="M499.031 259.086C507.733 260.8 513.401 269.234 511.697 277.926L505.349 310.258C503.594 319.208 494.716 324.948 485.755 322.749C477.363 320.695 472.273 312.116 473.935 303.641L474.111 302.774L432.261 304.683C431.001 304.735 429.907 305.571 429.515 306.779C425.427 319.125 420.049 330.894 413.535 341.898C412.874 343.013 412.977 344.427 413.813 345.418L432.323 367.407C435.998 363.907 440.798 362.09 445.65 362.09C449.738 362.09 453.867 363.381 457.367 366.065C465.842 372.548 467.452 384.677 460.969 393.163L455.601 400.172C449.304 408.41 437.567 410.619 429.019 404.725C421.659 399.656 418.996 390.541 421.659 382.623L394.994 370.906C393.787 370.38 392.393 370.689 391.516 371.66C379.169 385.214 364.799 396.879 348.881 406.191C347.787 406.831 347.198 408.069 347.405 409.318L354.228 450.941L360.133 448.577C368.609 445.191 378.25 449.527 381.275 458.25C384.104 466.416 379.665 475.345 371.643 478.545L341.469 490.623C333.004 494.009 323.362 489.674 320.338 480.951C317.509 472.785 321.948 463.856 329.969 460.645L330.785 460.325L306.443 426.217C305.71 425.185 304.419 424.731 303.191 425.051C288.646 428.819 273.388 430.842 257.656 430.842C245.206 430.842 233.066 429.572 221.329 427.178C220.09 426.93 218.82 427.456 218.139 428.519L193.786 466.725L194.643 467.035C202.571 469.926 207.485 477.41 207.485 485.379C207.485 487.609 207.103 489.87 206.298 492.079C206.298 503.507 197.513 509.659 186.777 505.736L156.85 494.825C146.837 491.181 141.613 480.187 145.072 470.142C148.623 459.788 160.422 454.565 170.704 458.312L171.396 458.56L176.351 413.788C176.495 412.529 175.835 411.331 174.709 410.743C155.756 400.957 138.754 387.919 124.436 372.362C123.569 371.422 122.216 371.113 121.039 371.598L84.5162 386.577C88.6455 394.298 86.3228 404.085 78.7869 409.04C70.9207 414.212 60.2982 411.806 54.9302 404.085L45.5774 390.613C40.3436 383.087 41.5617 372.599 48.7673 366.921C56.4477 360.872 67.4005 362.441 73.1505 370.049L98.8757 340.979C99.7325 340.009 99.877 338.605 99.2473 337.48C88.6868 318.444 81.4606 297.302 78.3533 274.85C78.1778 273.59 77.2591 272.568 76.0306 272.289L34.9239 262.792L34.8827 267.613C34.8414 272.434 32.8593 276.801 29.6695 279.949C26.49 283.108 22.1129 285.049 17.2817 285.049C7.68123 285.049 -0.0920838 277.214 0.000824253 267.613L0.269225 237.748C0.35181 227.983 8.42449 219.755 18.1798 220.013C27.6461 220.261 35.2027 228.044 35.1511 237.542L75.9584 227.972C77.1971 227.683 78.1159 226.661 78.2811 225.402C81.4812 201.659 89.2958 179.371 100.785 159.468C101.425 158.353 101.312 156.959 100.476 155.968L81.0167 133.113L79.3237 135.343C74.0796 142.28 64.0661 143.488 57.3045 137.862C50.9661 132.576 50.1918 123.1 55.1676 116.524L68.1334 99.3874C71.1478 95.413 75.7209 93.3174 80.356 93.3174C83.5665 93.3174 86.808 94.3291 89.5746 96.4144C95.9852 101.256 97.4924 110.154 93.2599 116.823L120.472 128.592C121.669 129.108 123.052 128.798 123.94 127.838C136.782 113.757 151.823 101.72 168.526 92.2541C169.62 91.6244 170.229 90.396 170.043 89.1469L163.777 47.4311L157.831 49.7229C149.325 52.9953 139.735 48.5254 136.834 39.7714C134.108 31.5645 138.671 22.6969 146.734 19.6L177.063 7.93488C185.58 4.66245 195.159 9.12204 198.06 17.8864C200.786 26.0829 196.233 34.9505 188.16 38.0577L187.345 38.3674L211.212 72.7847C211.935 73.8274 213.215 74.3022 214.443 74.0029C228.297 70.6065 242.759 68.8103 257.656 68.8103H257.676C258.977 68.8103 260.143 68.0154 260.577 66.787L268.485 44.6749C259.328 41.805 253.227 32.7723 254.394 22.9241C255.725 11.7648 266.41 3.8366 277.569 5.24054L288.429 6.6032C299.495 7.99682 307.795 17.907 306.587 29.0044C305.637 37.6448 299.423 44.3755 291.536 46.4401L294.282 70.4104C294.427 71.7008 295.387 72.7538 296.667 73.0325C315.021 77.0688 332.333 83.8924 348.127 93.0284C349.232 93.6581 350.595 93.5652 351.575 92.76L384.331 66.1779L379.355 62.2242C372.201 56.5465 371.189 46.0272 377.259 39.0797C382.937 32.5658 392.899 31.9877 399.66 37.3661L425.107 57.5684C432.261 63.2358 433.273 73.7654 427.203 80.7129C421.525 87.2164 411.563 87.7945 404.801 82.4265L404.11 81.8794L386.571 119.961C386.034 121.107 386.282 122.46 387.169 123.368C399.516 136.014 410.025 150.466 418.263 166.281C418.861 167.427 420.111 168.077 421.391 167.902L446.259 164.423C442.605 154.224 448.024 142.92 458.451 139.503C468.392 136.241 479.107 141.764 482.762 151.571L488.491 166.932C492.104 176.646 487.768 187.764 478.271 191.893C469.166 195.847 458.895 192.275 454.001 184.202L433.365 198.2C432.282 198.933 431.796 200.275 432.147 201.535C436.39 216.916 438.661 233.103 438.661 249.826C438.661 252.624 438.599 255.401 438.465 258.157C438.413 259.427 439.126 260.593 440.282 261.099L478.973 277.998L480.191 271.753C481.905 263.05 490.339 257.383 499.031 259.086V259.086Z" fill="#F79595"/>
<path d="M336.257 182.074C350.371 182.074 361.812 172.507 361.812 160.706C361.812 148.905 350.371 139.339 336.257 139.339C322.142 139.339 310.701 148.905 310.701 160.706C310.701 172.507 322.142 182.074 336.257 182.074Z" fill="#EE6161"/>
<path d="M244.032 321.707C259.459 321.707 271.966 309.2 271.966 293.773C271.966 278.346 259.459 265.84 244.032 265.84C228.605 265.84 216.099 278.346 216.099 293.773C216.099 309.2 228.605 321.707 244.032 321.707Z" fill="#EE6161"/>
<path d="M352.896 299.221C363.941 299.221 372.896 290.266 372.896 279.22C372.896 268.175 363.941 259.22 352.896 259.22C341.85 259.22 332.896 268.175 332.896 279.22C332.896 290.266 341.85 299.221 352.896 299.221Z" fill="#F9B1B1"/>
<path d="M279.033 396.268C289.772 396.268 298.478 387.562 298.478 376.823C298.478 366.084 289.772 357.379 279.033 357.379C268.294 357.379 259.589 366.084 259.589 376.823C259.589 387.562 268.294 396.268 279.033 396.268Z" fill="#F9B1B1"/>
<path d="M147.574 241.156C147.574 171.57 180.77 109.724 232.168 70.5896C226.167 71.4361 220.243 72.5799 214.443 74.0024C213.215 74.3018 211.935 73.8269 211.212 72.7843L187.345 38.367L188.16 38.0573C196.233 34.95 200.786 26.0825 198.06 17.8859C195.159 9.1216 185.58 4.66201 177.063 7.93444L146.734 19.5996C138.671 22.6965 134.108 31.5641 136.834 39.7709C139.735 48.525 149.325 52.9949 157.831 49.7224L163.777 47.4307L170.043 89.1464C170.229 90.3955 169.62 91.624 168.526 92.2537C151.823 101.72 136.782 113.757 123.94 127.837C123.052 128.798 121.669 129.107 120.472 128.591L93.2599 116.823C97.4924 110.154 95.9852 101.255 89.5746 96.4139C86.808 94.3286 83.5665 93.317 80.356 93.317C75.7209 93.317 71.1478 95.4126 68.1334 99.387L55.1676 116.523C50.1918 123.099 50.9661 132.576 57.3045 137.861C64.0661 143.487 74.0796 142.28 79.3237 135.342L81.0167 133.113L100.476 155.968C101.312 156.959 101.425 158.353 100.785 159.468C89.2958 179.371 81.4812 201.658 78.2811 225.401C78.1159 226.661 77.1971 227.683 75.9584 227.972L35.1511 237.541C35.2027 228.044 27.6461 220.26 18.1798 220.013C8.42449 219.755 0.35181 227.982 0.269225 237.748L0.000824253 267.613C-0.0920838 277.213 7.68123 285.048 17.2817 285.048C22.1129 285.048 26.49 283.108 29.6695 279.949C32.8593 276.8 34.8414 272.433 34.8827 267.613L34.9239 262.792L76.0306 272.289C77.2591 272.568 78.1778 273.59 78.3533 274.849C81.4606 297.302 88.6868 318.444 99.2473 337.479C99.877 338.605 99.7325 340.009 98.8757 340.979L73.1505 370.049C67.4005 362.441 56.4477 360.872 48.7673 366.921C41.5617 372.599 40.3436 383.087 45.5774 390.613L54.9302 404.084C60.2982 411.806 70.9207 414.211 78.7869 409.039C86.3228 404.084 88.6455 394.298 84.5162 386.576L121.039 371.597C122.216 371.112 123.569 371.422 124.436 372.361C138.754 387.918 155.756 400.956 174.709 410.743C175.835 411.331 176.495 412.529 176.351 413.788L171.396 458.559L170.704 458.312C160.422 454.564 148.623 459.788 145.072 470.142C141.613 480.186 146.837 491.18 156.85 494.824L186.777 505.736C197.513 509.659 206.298 503.506 206.298 492.079C207.103 489.869 207.485 487.609 207.485 485.379C207.485 477.409 202.571 469.925 194.643 467.035L193.786 466.725L218.139 428.519C218.82 427.456 220.09 426.929 221.329 427.177C233.066 429.572 245.206 430.842 257.656 430.842C259.12 430.842 260.609 430.823 262.066 430.789C194.008 394.901 147.574 323.444 147.574 241.156V241.156Z" fill="#F37C7C"/>
<path d="M157.363 350.567C168.55 350.567 177.619 341.498 177.619 330.311C177.619 319.124 168.55 310.055 157.363 310.055C146.176 310.055 137.107 319.124 137.107 330.311C137.107 341.498 146.176 350.567 157.363 350.567Z" fill="#EE6161"/>
<path d="M307.277 241.157H300.433C296.156 241.157 292.69 237.69 292.69 233.414C292.69 229.138 296.156 225.672 300.433 225.672H307.277C311.554 225.672 315.019 229.138 315.019 233.414C315.019 237.69 311.554 241.157 307.277 241.157Z" fill="#F9B1B1"/>
<path d="M216.097 376.492H209.065C204.788 376.492 201.323 373.026 201.323 368.75C201.323 364.474 204.788 361.007 209.065 361.007H216.097C220.374 361.007 223.84 364.474 223.84 368.75C223.84 373.026 220.374 376.492 216.097 376.492Z" fill="#F9B1B1"/>
<path d="M143.881 263.741H137.107C132.83 263.741 129.365 260.275 129.365 255.999C129.365 251.723 132.83 248.257 137.107 248.257H143.881C148.158 248.257 151.623 251.723 151.623 255.999C151.623 260.275 148.158 263.741 143.881 263.741Z" fill="#EE6161"/>
<path d="M281.391 128.285H271.964C267.687 128.285 264.221 124.819 264.221 120.543C264.221 116.267 267.687 112.801 271.964 112.801H281.391C285.668 112.801 289.133 116.267 289.133 120.543C289.133 124.819 285.668 128.285 281.391 128.285Z" fill="#F9B1B1"/>
<path d="M343.306 351.289H332.896C328.619 351.289 325.154 347.823 325.154 343.547C325.154 339.271 328.619 335.805 332.896 335.805H343.306C347.583 335.805 351.048 339.271 351.048 343.547C351.048 347.823 347.582 351.289 343.306 351.289Z" fill="#EE6161"/>
<path d="M225.217 216.984C248.335 198.755 254.734 168.326 239.51 149.019C224.286 129.712 193.203 128.838 170.085 147.067C146.967 165.296 140.568 195.726 155.792 215.033C171.017 234.34 202.099 235.213 225.217 216.984Z" fill="#EE6161"/>
</svg>
