<svg width="342" height="221" viewBox="0 0 342 221" fill="none" xmlns="http://www.w3.org/2000/svg">
<path d="M57.715 219.228C57.2522 219.228 56.7964 219.117 56.3862 218.902C55.976 218.688 55.6236 218.378 55.359 217.999C55.0945 217.619 54.9256 217.181 54.8668 216.722C54.808 216.263 54.861 215.797 55.0212 215.363L62.0643 196.28H73.2654L60.171 217.862C59.9128 218.281 59.5514 218.627 59.1213 218.866C58.6913 219.105 58.207 219.23 57.715 219.228Z" fill="black"/>
<path d="M157.422 219.228C157.884 219.228 158.34 219.117 158.75 218.902C159.161 218.688 159.513 218.378 159.777 217.999C160.042 217.619 160.211 217.181 160.27 216.722C160.329 216.263 160.276 215.797 160.115 215.363L153.072 196.28H141.871L154.966 217.862C155.224 218.281 155.585 218.627 156.015 218.866C156.445 219.105 156.929 219.23 157.422 219.228Z" fill="black"/>
<path d="M168.492 139.577H46.645V203.233H168.492V139.577Z" fill="#CA7358"/>
<path d="M160.296 147.773H54.8408V195.037H160.296V147.773Z" fill="#FFBE21"/>
<path d="M160.432 171.479H54.8408" stroke="#CA7358" stroke-width="4" stroke-miterlimit="10"/>
<path d="M107.568 163.146C109.228 163.146 110.573 161.801 110.573 160.141C110.573 158.481 109.228 157.136 107.568 157.136C105.909 157.136 104.563 158.481 104.563 160.141C104.563 161.801 105.909 163.146 107.568 163.146Z" fill="#30242A"/>
<path d="M107.568 186.095C109.228 186.095 110.573 184.749 110.573 183.09C110.573 181.43 109.228 180.084 107.568 180.084C105.909 180.084 104.563 181.43 104.563 183.09C104.563 184.749 105.909 186.095 107.568 186.095Z" fill="#30242A"/>
<path d="M84.483 112.604C86.6708 112.604 88.4444 110.831 88.4444 108.643C88.4444 106.455 86.6708 104.682 84.483 104.682C82.2952 104.682 80.5216 106.455 80.5216 108.643C80.5216 110.831 82.2952 112.604 84.483 112.604Z" fill="#FFBE21"/>
<path d="M104.973 112.604C107.161 112.604 108.934 110.831 108.934 108.643C108.934 106.455 107.161 104.682 104.973 104.682C102.785 104.682 101.011 106.455 101.011 108.643C101.011 110.831 102.785 112.604 104.973 112.604Z" fill="#FFBE21"/>
<path d="M94.7279 104.682C94.1961 104.682 93.6712 104.802 93.1925 105.034C92.9536 104.241 92.4729 103.543 91.8176 103.038C91.1624 102.532 90.3654 102.243 89.5382 102.213C88.711 102.182 87.8949 102.411 87.2042 102.868C86.5135 103.324 85.9827 103.984 85.686 104.757C85.3894 105.53 85.3417 106.376 85.5498 107.177C85.7578 107.979 86.2111 108.695 86.8462 109.226C87.4813 109.757 88.2665 110.076 89.0919 110.138C89.9173 110.201 90.7416 110.004 91.4495 109.575C91.6929 110.171 92.094 110.69 92.6099 111.077C93.1258 111.463 93.7371 111.701 94.3782 111.766C95.0192 111.832 95.666 111.721 96.2492 111.447C96.8323 111.173 97.3299 110.745 97.6886 110.21C98.0473 109.675 98.2535 109.052 98.2853 108.408C98.3171 107.765 98.1731 107.125 97.8689 106.556C97.5647 105.988 97.1117 105.514 96.5584 105.184C96.005 104.853 95.3723 104.68 94.7279 104.682Z" fill="#FFBE21"/>
<path d="M101.812 104.692C101.54 104.028 101.092 103.451 100.517 103.021C99.9419 102.592 99.2608 102.326 98.5467 102.254C97.8325 102.181 97.1121 102.304 96.4624 102.61C95.8127 102.915 95.2581 103.391 94.858 103.987C94.4578 104.583 94.2271 105.276 94.1905 105.993C94.1538 106.71 94.3127 107.423 94.6501 108.057C94.9874 108.69 95.4906 109.22 96.1058 109.59C96.721 109.96 97.4252 110.156 98.143 110.156C98.2808 110.156 98.4184 110.149 98.5555 110.135C98.8784 110.649 99.3278 111.072 99.8608 111.363C100.394 111.654 100.993 111.804 101.6 111.798C102.207 111.791 102.803 111.63 103.33 111.328C103.857 111.026 104.297 110.594 104.61 110.073C104.922 109.552 105.095 108.96 105.113 108.352C105.132 107.745 104.994 107.144 104.713 106.605C104.433 106.067 104.019 105.609 103.511 105.276C103.003 104.943 102.418 104.746 101.812 104.703V104.692Z" fill="#FFBE21"/>
<path d="M93.3619 106.321C95.0216 106.321 96.3671 104.975 96.3671 103.316C96.3671 101.656 95.0216 100.31 93.3619 100.31C91.7022 100.31 90.3567 101.656 90.3567 103.316C90.3567 104.975 91.7022 106.321 93.3619 106.321Z" fill="#FFBE21"/>
<path d="M103.334 99.2176C104.465 99.2176 105.383 98.3002 105.383 97.1686C105.383 96.037 104.465 95.1196 103.334 95.1196C102.202 95.1196 101.285 96.037 101.285 97.1686C101.285 98.3002 102.202 99.2176 103.334 99.2176Z" fill="#FFBE21"/>
<path d="M78.4261 108.506L83.8901 139.651H87.7614L83.4366 108.506H78.4261Z" fill="#FF7235"/>
<path d="M105.929 108.506L101.602 139.651H105.473L110.937 108.506H105.929Z" fill="#FF7235"/>
<path d="M99.0991 108.506L97.0555 139.651H101.602L105.929 108.506H99.0991Z" fill="#F5EBDD"/>
<path d="M83.4366 108.506L87.7614 139.651H92.3074L90.2666 108.506H83.4366Z" fill="#F5EBDD"/>
<path d="M90.2666 108.506L92.3074 139.651H97.0556L99.0991 108.506H90.2666Z" fill="#FF7235"/>
<path d="M143.327 118.434H194.446V219.231H121.228V140.531C121.229 134.67 123.558 129.05 127.702 124.906C131.846 120.762 137.467 118.434 143.327 118.434Z" fill="#FFB7D5"/>
<path d="M199.879 63.7783H272.067C277.927 63.779 283.548 66.1076 287.691 70.2519C291.835 74.3962 294.163 80.0168 294.163 85.8773V219.228H177.78V85.8773C177.78 80.0163 180.109 74.3953 184.253 70.2509C188.397 66.1066 194.018 63.7783 199.879 63.7783Z" fill="#FFB7D5"/>
<path d="M173.925 145.35H272.067C277.927 145.351 283.547 147.679 287.69 151.823C291.834 155.966 294.162 161.586 294.163 167.446V219.228H151.826V167.446C151.827 161.586 154.156 155.965 158.3 151.822C162.444 147.678 168.065 145.35 173.925 145.35Z" fill="#FFB7D5"/>
<path d="M220.536 169.88H160.94" stroke="#CA7358" stroke-width="4" stroke-miterlimit="10"/>
<path d="M151.826 167.446V219.228" stroke="#CA7358" stroke-width="4" stroke-miterlimit="10"/>
<path d="M294.163 118.109H247.954" stroke="#CA7358" stroke-width="4" stroke-miterlimit="10"/>
<path d="M169.038 0H47.1914V82.506H169.038V0Z" fill="#F5EBDD"/>
<path d="M160.842 8.19597H55.3872V74.3101H160.842V8.19597Z" fill="#30242A"/>
<path d="M131.976 49.2414C132.916 49.3315 133.853 49.4299 134.79 49.531L136.861 44.4249L138.825 50.0036C139.836 50.1293 140.844 50.2613 141.849 50.3997L138.401 40.6165L141.849 32.1009H138.929L138.899 32.1419L137.035 36.7425L135.396 32.0981H132.517L135.495 40.5454L131.976 49.2414Z" fill="#FF7235"/>
<path d="M129.793 49.0419V32.1036H126.911V48.8124C127.872 48.8853 128.833 48.9645 129.793 49.0501" fill="#FF7235"/>
<path d="M108.139 48.0939C108.917 48.0939 109.695 48.0985 110.472 48.1076V41.8814H113.934V39.2314H110.472V34.7536H114.458V32.1009H107.568V48.0967H108.131" fill="#FF7235"/>
<path d="M99.1892 48.266C100.151 48.2333 101.102 48.2032 102.074 48.1813V34.7536H104.768V32.1009H96.4955V34.7536H99.1892V48.266Z" fill="#FF7235"/>
<path d="M77.1449 50.0418V39.9499L80.5572 49.632C81.6062 49.5155 82.6581 49.4044 83.7126 49.2987V32.0872H80.9478V42.5562L77.2624 32.1009H74.3801V50.4052H74.3965C75.309 50.2795 76.227 50.1593 77.1449 50.0418Z" fill="#FF7235"/>
<path d="M93.7171 34.7536V32.1009H86.8325V49.0119C89.1165 48.8152 91.4095 48.6494 93.7117 48.5147V45.8619C92.3803 45.9384 91.0525 46.0295 89.7284 46.1351V41.8841H93.1899V39.2314H89.7284V34.7536H93.7171Z" fill="#FF7235"/>
<path d="M120.174 45.7362V32.1009H117.278V48.266C119.582 48.3516 121.876 48.4682 124.16 48.6157V45.963C122.834 45.8755 121.505 45.8009 120.174 45.7389" fill="#FF7235"/>
<path d="M205.373 105.228C205.373 105.228 179.693 110.965 166.579 118.342C153.094 125.926 151.826 136.569 143.409 162.133C139.716 173.334 137.861 181.377 135.874 186.884L158.793 197.706C159.886 195.679 160.858 193.684 161.662 191.832C161.662 191.832 172.169 191.365 173.171 177.303C173.92 166.799 174.281 159.024 177.947 151.177L240.591 105.108L205.373 105.228Z" fill="#30242A"/>
<path d="M126.474 196.717C126.359 196.736 126.244 196.758 126.127 196.774C118.01 198.006 114.622 199.585 113.286 203.265L147.163 219.056C147.55 219.237 147.987 219.277 148.4 219.171C148.813 219.064 149.177 218.817 149.428 218.472C149.571 218.275 149.674 218.052 149.73 217.816C149.787 217.579 149.796 217.334 149.756 217.094C149.717 216.854 149.631 216.625 149.502 216.418C149.374 216.212 149.205 216.033 149.007 215.893L126.692 205.765C127.219 202.764 127.144 199.689 126.474 196.717Z" fill="#30242A"/>
<path d="M158.793 197.706L135.874 186.884C134.702 190.135 133.484 192.507 131.815 194.132C130.427 195.498 128.722 196.318 126.474 196.717C127.144 199.689 127.219 202.764 126.692 205.765L149.018 215.893C148.932 215.831 148.84 215.777 148.745 215.731L147.925 215.341C149.253 213.428 151.337 210.308 153.567 206.702C155.337 203.875 157.17 200.755 158.793 197.706Z" fill="#EAA58B"/>
<path d="M161.473 192.22L137.62 181.041" stroke="#F5EBDD" stroke-width="4" stroke-linecap="round" stroke-linejoin="round"/>
<path d="M253.593 116.268L252.637 105.739H233.786C233.786 105.739 202.095 113.323 188.624 119.784C175.215 126.21 176.824 141.134 179.351 167.26C180.641 180.579 182.25 189.726 182.165 196.203H207.026C207.163 194.101 207.254 191.884 207.3 189.551C207.3 189.551 216.998 184.958 211.944 170.069C208.559 160.097 205.636 153.494 205.636 144.834H227.503C231.143 144.834 234.743 144.076 238.074 142.607C241.404 141.139 244.393 138.992 246.847 136.305C249.302 133.617 251.17 130.447 252.332 126.997C253.493 123.547 253.923 119.893 253.593 116.268Z" fill="#30242A"/>
<path d="M176.261 208.361C169.945 212.655 167.716 215.464 168.065 219.22L205.469 219.171C205.87 219.154 206.248 218.983 206.526 218.694C206.803 218.404 206.958 218.019 206.958 217.618C206.958 217.217 206.803 216.831 206.526 216.542C206.248 216.253 205.87 216.082 205.469 216.065H180.512C180.512 216.065 179.146 211.453 176.261 208.361Z" fill="#30242A"/>
<path d="M182.165 196.203C182.119 199.891 181.523 202.716 180.004 204.946C179.185 206.127 178.142 207.136 176.933 207.915L176.261 208.361C179.149 211.445 180.512 216.065 180.512 216.065H204.139C205.036 212.401 205.722 208.688 206.193 204.946C206.532 202.334 206.827 199.408 207.034 196.203H182.165Z" fill="#EAA58B"/>
<path d="M205.92 113.151C199.882 115.08 192.757 117.44 188.162 119.708C177.668 124.879 176.33 134.963 177.469 151.754" stroke="#A15842" stroke-width="4" stroke-linecap="round" stroke-linejoin="round"/>
<path d="M205.374 145.481H198.595" stroke="#A15842" stroke-width="4" stroke-linecap="round" stroke-linejoin="round"/>
<path d="M207.286 190.012H181.878" stroke="#F5EBDD" stroke-width="4" stroke-miterlimit="10" stroke-linecap="round"/>
<path d="M243.045 118.434H294.163V219.231H220.946V140.531C220.947 134.67 223.275 129.05 227.419 124.906C231.564 120.762 237.184 118.434 243.045 118.434Z" fill="#FFB7D5"/>
<path d="M220.399 144.845V218.903" stroke="#CA7358" stroke-width="4" stroke-miterlimit="10"/>
<path d="M28.2041 179.538C21.9205 179.538 16.7953 175.771 16.6013 171.069V219.152H39.8232V171.069C39.6129 175.771 34.4958 179.538 28.2041 179.538Z" fill="#4756DF"/>
<path d="M17.033 208.27C24.6552 207.451 33.7336 202.123 32.0288 189.51C30.6628 179.401 20.6911 182.27 26.4283 191.832C29.7995 197.452 35.3427 201.279 39.3396 203.478" stroke="#3EC1F3" stroke-width="4" stroke-miterlimit="10" stroke-linecap="round"/>
<path d="M16.9646 196.905C21.5079 200.014 29.5563 207.156 32.6244 218.666" stroke="#3EC1F3" stroke-width="4" stroke-miterlimit="10" stroke-linecap="round"/>
<path d="M16.9373 212.286C19.9179 213.169 23.7399 215.07 26.6167 218.698" stroke="#3EC1F3" stroke-width="4" stroke-miterlimit="10" stroke-linecap="round"/>
<path d="M25.2589 173.571C23.3247 176.94 20.4408 179.665 16.9673 181.404" stroke="#3EC1F3" stroke-width="4" stroke-miterlimit="10" stroke-linecap="round"/>
<path d="M28.204 179.538C34.4875 179.538 39.6127 175.771 39.8067 171.069H16.593C16.7952 175.771 21.9122 179.538 28.204 179.538Z" fill="#30242A"/>
<path d="M21.6472 128.86L27.9308 176.123" stroke="#30242A" stroke-width="4" stroke-miterlimit="10" stroke-linecap="round"/>
<path d="M19.6365 147.907L26.9855 175.727" stroke="#30242A" stroke-width="4" stroke-miterlimit="10" stroke-linecap="round"/>
<path d="M42.4337 159.007C47.6668 156.769 51.4079 153.784 50.7898 152.338C50.1717 150.892 45.4284 151.534 40.1954 153.772C34.9623 156.009 31.2212 158.995 31.8393 160.441C32.4574 161.886 37.2006 161.244 42.4337 159.007Z" fill="#30242A"/>
<path d="M24.0176 164.966C24.5504 163.553 19.8219 160.461 13.4561 158.061C7.09026 155.661 1.49775 154.861 0.964868 156.274C0.431986 157.687 5.16052 160.778 11.5263 163.179C17.8922 165.579 23.4847 166.379 24.0176 164.966Z" fill="#30242A"/>
<path d="M32.7081 149.905C36.3923 147.13 38.8085 144.123 38.105 143.189C37.4014 142.255 33.8444 143.748 30.1602 146.523C26.476 149.298 24.0597 152.305 24.7633 153.239C25.4669 154.173 29.0239 152.681 32.7081 149.905Z" fill="#30242A"/>
<path d="M36.1269 134.597L29.0237 178.309" stroke="#30242A" stroke-width="4" stroke-miterlimit="10" stroke-linecap="round"/>
<path d="M24.4202 139.126C23.7639 138.038 22.8555 137.124 21.7717 136.461C20.6878 135.798 19.4603 135.405 18.1928 135.315C16.9252 135.226 15.6548 135.443 14.4886 135.948C13.3225 136.453 12.2949 137.23 11.4925 138.216C10.6901 139.201 10.1365 140.365 9.87843 141.609C9.62031 142.853 9.66526 144.141 10.0095 145.365C10.3537 146.588 10.9871 147.71 11.8562 148.637C12.7253 149.564 13.8046 150.269 15.0031 150.691C15.4038 148.101 16.4876 145.664 18.1427 143.631C19.7979 141.599 21.9647 140.044 24.4202 139.126Z" fill="#FFB7D5"/>
<path d="M20.7976 144.039C19.3543 140.748 16.7651 138.094 13.5114 136.569" stroke="#F5EBDD" stroke-width="4" stroke-miterlimit="10" stroke-linecap="round"/>
<path d="M19.5982 145.232C17.0955 142.629 13.7217 141.039 10.121 140.766" stroke="#F5EBDD" stroke-width="4" stroke-miterlimit="10" stroke-linecap="round"/>
<path d="M15.0031 150.691C16.5422 151.233 18.2113 151.287 19.7821 150.845C21.353 150.403 22.7491 149.487 23.7795 148.221C24.81 146.956 25.4245 145.403 25.5392 143.775C25.6539 142.147 25.2631 140.524 24.4202 139.126C21.9647 140.044 19.7979 141.599 18.1427 143.631C16.4875 145.664 15.4038 148.101 15.0031 150.691Z" fill="#FF7235"/>
<path d="M12.7191 123.724C12.6916 122.453 12.97 121.195 13.5307 120.055C14.0915 118.915 14.9181 117.927 15.941 117.173C16.9639 116.42 18.153 115.923 19.408 115.726C20.663 115.528 21.9471 115.635 23.152 116.038C24.3569 116.441 25.4473 117.127 26.3311 118.04C27.215 118.953 27.8665 120.064 28.2305 121.282C28.5946 122.499 28.6606 123.786 28.423 125.034C28.1854 126.282 27.6512 127.454 26.8654 128.453C25.1403 126.479 22.9203 125 20.4339 124.169C17.9476 123.337 15.2846 123.184 12.7191 123.724Z" fill="#FFB7D5"/>
<path d="M18.4099 125.934C17.8666 122.381 18.6337 118.753 20.5681 115.724" stroke="#F5EBDD" stroke-width="4" stroke-miterlimit="10" stroke-linecap="round"/>
<path d="M20.0573 126.3C20.7803 122.762 22.7796 119.615 25.6742 117.456" stroke="#F5EBDD" stroke-width="4" stroke-miterlimit="10" stroke-linecap="round"/>
<path d="M26.8653 128.453C25.8556 129.735 24.4744 130.675 22.9105 131.143C21.3465 131.61 19.6763 131.584 18.1281 131.066C16.5799 130.549 15.2294 129.565 14.2612 128.251C13.293 126.937 12.7545 125.356 12.7191 123.724C15.2846 123.184 17.9475 123.337 20.4339 124.169C22.9203 125 25.1403 126.479 26.8653 128.453Z" fill="#FF7235"/>
<path d="M31.7393 124.278C32.5203 123.276 33.5311 122.476 34.6863 121.946C35.8415 121.416 37.1072 121.172 38.3766 121.234C39.6459 121.296 40.8817 121.663 41.9796 122.303C43.0775 122.943 44.0053 123.838 44.6847 124.912C45.3641 125.986 45.7751 127.208 45.8831 128.474C45.9912 129.74 45.793 131.014 45.3053 132.188C44.8176 133.361 44.0548 134.4 43.0812 135.217C42.1075 136.034 40.9517 136.605 39.7112 136.881C39.6217 134.261 38.8359 131.713 37.4348 129.498C36.0337 127.283 34.0678 125.481 31.7393 124.278Z" fill="#FFB7D5"/>
<path d="M34.7526 129.586C36.5749 126.488 39.4616 124.157 42.8748 123.03" stroke="#F5EBDD" stroke-width="4" stroke-miterlimit="10" stroke-linecap="round"/>
<path d="M35.7961 130.914C38.5912 128.628 42.1303 127.451 45.7378 127.608" stroke="#F5EBDD" stroke-width="4" stroke-miterlimit="10" stroke-linecap="round"/>
<path d="M39.7111 136.881C38.1186 137.235 36.4554 137.09 34.9487 136.464C33.4421 135.838 32.1655 134.762 31.2933 133.383C30.4211 132.004 29.9958 130.39 30.0756 128.76C30.1554 127.13 30.7364 125.565 31.7391 124.278C34.0676 125.481 36.0336 127.283 37.4347 129.498C38.8358 131.713 39.6216 134.261 39.7111 136.881Z" fill="#FF7235"/>
<path d="M341.937 218.343C341.913 218.41 341.881 218.474 341.844 218.534C341.882 218.474 341.913 218.41 341.937 218.343Z" fill="#CA7358"/>
<path d="M328.917 212.325L321.756 219.155H340.06C341.025 219.155 341.588 218.931 341.839 218.545C340.429 218.808 332.255 214.237 328.917 212.325Z" fill="#CA7358"/>
<path d="M341.937 218.343C342.85 215.772 333.504 207.962 333.504 207.962L328.917 212.333C332.255 214.245 340.429 218.816 341.839 218.551C341.879 218.485 341.912 218.416 341.937 218.343Z" fill="#FFB7D5"/>
<path d="M340.607 193.744C340.334 195.11 327.767 197.296 327.767 197.296L326.98 192.083L326.674 192.105L328.712 207.678C328.712 207.678 341.426 196.476 340.607 193.744Z" fill="#CA7358"/>
<path d="M340.607 193.744C339.897 191.378 328.958 191.96 326.98 192.083L327.767 197.296C327.767 197.296 340.334 195.11 340.607 193.744Z" fill="#FFB7D5"/>
<path d="M325.496 193.591L325.969 183.754" stroke="#30242A" stroke-width="4" stroke-linecap="round" stroke-linejoin="round"/>
<path d="M323.576 192.515L321.021 179.967" stroke="#30242A" stroke-width="4" stroke-linecap="round" stroke-linejoin="round"/>
<path d="M281.869 219.228L269.089 202.2L275.039 195.916C274.493 194.004 272.034 185.535 268.756 182.803C265.477 180.071 262.472 180.071 260.833 180.617L260.784 180.634C260.379 180.783 260.023 181.04 259.754 181.377C259.485 181.715 259.313 182.119 259.257 182.546C259.2 182.974 259.262 183.409 259.435 183.804C259.608 184.199 259.885 184.54 260.237 184.789L263.292 187.461C263.292 187.461 256.462 192.652 256.462 198.389C256.462 202.388 258.62 204.437 260.759 205.492L255.096 213.415C255.096 213.415 249.358 214.234 238.157 210.956C234.745 209.956 231.054 208.224 227.606 206.634C227.606 210.355 225.896 213.335 223.364 215.529C229.172 217.819 236.565 219.228 242.302 219.228H281.869Z" fill="#A15842"/>
<path d="M247.446 213.278C248.397 215.111 249.563 216.991 251.621 218.655" stroke="#30242A" stroke-width="4" stroke-miterlimit="10" stroke-linecap="round"/>
<path d="M274.22 194.974L272.034 196.613" stroke="#30242A" stroke-width="4" stroke-miterlimit="10" stroke-linecap="round"/>
<path d="M227.606 206.634C221.869 204.003 216.815 201.842 214.935 204.399C211.725 208.77 216.403 212.781 223.364 215.529C225.896 213.335 227.62 210.355 227.606 206.634Z" fill="#F5EBDD"/>
<path d="M331.865 201.113C331.865 199.954 333.323 198.435 334.471 197.968C332.332 192.105 323.761 187.007 314.926 191.559C314.926 191.559 313.833 186.095 310.828 183.909C308.017 181.863 305.091 181.661 302.905 182.48L302.84 182.505C302.446 182.663 302.098 182.918 301.83 183.247C301.561 183.576 301.381 183.968 301.305 184.386C301.23 184.804 301.262 185.234 301.399 185.636C301.535 186.039 301.772 186.399 302.086 186.685L305.911 190.193L303.998 193.955C302.05 192.189 299.761 190.84 297.272 189.991C297.056 200.211 283.637 204.713 276.952 202.487C274.602 199.208 272.66 197.525 272.162 197.124L272.034 197.233C272.034 197.233 266.297 193.471 261.106 197.296C261.106 197.296 258.374 191.012 255.096 188.491C252.323 186.357 246.9 186.305 245.534 187.671L245.493 187.712C245.177 188.034 244.938 188.424 244.794 188.851C244.649 189.278 244.602 189.732 244.657 190.18C244.712 190.628 244.867 191.057 245.111 191.437C245.354 191.816 245.68 192.136 246.064 192.373L249.905 194.774C249.905 194.774 240.07 209.527 253.183 219.228H322.849C333.307 219.228 335.76 210.838 335.525 204.11C334.288 203.787 331.865 202.921 331.865 201.113Z" fill="#CA7358"/>
<path d="M276.952 202.487C283.637 204.713 297.056 200.211 297.272 189.991C294.525 189.02 291.592 188.694 288.699 189.037C280.776 189.969 273.209 196.228 272.162 197.124C272.66 197.525 274.602 199.195 276.952 202.487Z" fill="#F5EBDD"/>
<path d="M331.865 201.113C331.865 202.921 334.288 203.787 335.525 204.118C335.472 202.157 335.16 200.213 334.596 198.334C334.558 198.214 334.512 198.096 334.471 197.976C333.323 198.435 331.865 199.954 331.865 201.113Z" fill="#30242A"/>
<path d="M329.671 201.765L333.556 201.192" stroke="#30242A" stroke-width="4" stroke-linecap="round" stroke-linejoin="round"/>
<path d="M315.62 191.695C316.732 196.176 318.101 202.438 318.625 206.448" stroke="#30242A" stroke-width="4" stroke-linecap="round" stroke-linejoin="round"/>
<path d="M303.588 185.139L302.572 186.66" stroke="#30242A" stroke-width="4" stroke-linecap="round" stroke-linejoin="round"/>
<path d="M305.501 186.778L304.43 188.382" stroke="#30242A" stroke-width="4" stroke-linecap="round" stroke-linejoin="round"/>
<path d="M246.763 190.056L245.736 191.597" stroke="#30242A" stroke-width="4" stroke-linecap="round" stroke-linejoin="round"/>
<path d="M248.949 191.422L247.839 193.083" stroke="#30242A" stroke-width="4" stroke-linecap="round" stroke-linejoin="round"/>
<path d="M303.583 193.785C298.613 202.866 294.51 212.497 302.28 218.868" stroke="#30242A" stroke-width="4" stroke-linecap="round" stroke-linejoin="round"/>
<path d="M279.683 208.907C278.591 203.989 275.228 197.853 270.941 196.067C267.663 194.701 264.384 194.974 261.379 196.613C261.379 196.613 260.081 193.829 259.038 192.305" stroke="#30242A" stroke-width="4" stroke-miterlimit="10" stroke-linecap="round"/>
<path d="M327.594 198.588C327.594 198.588 328.414 201.145 329.671 201.765C329.671 201.765 328.78 203.041 328.633 205.511" stroke="#30242A" stroke-width="4" stroke-linecap="round" stroke-linejoin="round"/>
<path d="M293.343 189.1C293.343 189.1 291.158 192.925 287.606 192.652C284.055 192.378 284.328 187.188 288.426 184.182C290.155 183.166 292.202 182.836 294.163 183.259C297.654 184.021 299.698 191.053 299.698 191.053C299.698 191.053 296.075 189.373 293.343 189.1Z" fill="#CA7358"/>
<path d="M324.215 167.37L328.712 164.621L326.712 171.615L332.001 168.473" stroke="#FFB7D5" stroke-width="4" stroke-linecap="round" stroke-linejoin="round"/>
<path d="M334.039 156.024L338.774 155.647L334.315 160.458L339.651 160.086" stroke="#FFB7D5" stroke-width="4" stroke-linecap="round" stroke-linejoin="round"/>
<path d="M287.183 190.034L287.177 192.105" stroke="#30242A" stroke-width="4" stroke-linecap="round" stroke-linejoin="round"/>
<path d="M289.683 189.797L289.677 191.848" stroke="#30242A" stroke-width="4" stroke-linecap="round" stroke-linejoin="round"/>
<path d="M261.139 183.305L260.15 184.363" stroke="#30242A" stroke-width="4" stroke-linecap="round" stroke-linejoin="round"/>
<path d="M263.073 184.737L261.896 185.996" stroke="#30242A" stroke-width="4" stroke-linecap="round" stroke-linejoin="round"/>
<path d="M163.383 79.9407L154.558 73.8511L154.179 73.5779C151.843 72.4851 145.502 72.7993 145.822 70.2476C145.89 69.7012 146.532 69.2887 147.545 69.0046L134.722 60.1775C134.247 59.8522 133.663 59.7271 133.097 59.8294C132.531 59.9317 132.028 60.2531 131.697 60.7239L130.331 62.6882C131.014 63.2829 131.455 64.1084 131.568 65.007C131.681 65.9057 131.459 66.8146 130.945 67.5602C130.431 68.3058 129.66 68.836 128.78 69.0495C127.9 69.263 126.972 69.1449 126.173 68.7177L124.61 70.9825C124.284 71.4573 124.159 72.0416 124.261 72.6084C124.363 73.1753 124.685 73.6788 125.157 74.0096L153.815 93.7728C154.29 94.099 154.874 94.2245 155.441 94.1222C156.008 94.0199 156.512 93.698 156.842 93.2264L159.339 89.6065L163.94 82.9623C164.264 82.4866 164.386 81.9027 164.282 81.337C164.178 80.7714 163.855 80.2697 163.383 79.9407ZM146.772 85.0113C145.611 85.0113 144.475 84.6668 143.509 84.0214C142.543 83.3759 141.79 82.4586 141.346 81.3853C140.901 80.312 140.785 79.131 141.011 77.9916C141.238 76.8522 141.797 75.8056 142.619 74.9841C143.44 74.1627 144.487 73.6032 145.626 73.3766C146.766 73.15 147.947 73.2663 149.02 73.7108C150.093 74.1554 151.011 74.9083 151.656 75.8742C152.302 76.8401 152.646 77.9758 152.646 79.1375C152.645 80.6951 152.026 82.1887 150.925 83.2901C149.824 84.3915 148.33 85.0106 146.772 85.0113ZM159.749 84.0196L156.334 88.9371C156.185 89.1498 155.958 89.295 155.702 89.341C155.446 89.3871 155.182 89.3303 154.968 89.183C154.755 89.0346 154.608 88.8074 154.562 88.5514C154.515 88.2954 154.572 88.0313 154.72 87.817L158.137 82.8995C158.211 82.7933 158.305 82.7026 158.414 82.6327C158.523 82.5628 158.644 82.515 158.771 82.4921C158.898 82.4691 159.029 82.4714 159.155 82.4989C159.282 82.5264 159.401 82.5785 159.507 82.6522C159.614 82.7259 159.704 82.8199 159.774 82.9286C159.844 83.0374 159.892 83.1588 159.915 83.286C159.938 83.4133 159.935 83.5438 159.908 83.6701C159.881 83.7964 159.828 83.9161 159.755 84.0223L159.749 84.0196Z" fill="#4756DF"/>
<path d="M146.772 85.0113C150.016 85.0113 152.646 82.3815 152.646 79.1375C152.646 75.8935 150.016 73.2637 146.772 73.2637C143.528 73.2637 140.898 75.8935 140.898 79.1375C140.898 82.3815 143.528 85.0113 146.772 85.0113Z" fill="#3EC1F3"/>
<path d="M131.61 65.4776C131.61 64.9506 131.497 64.4298 131.278 63.9504C131.06 63.471 130.74 63.0443 130.342 62.6991L126.184 68.7286C126.718 69.0164 127.315 69.1667 127.922 69.1657C128.9 69.1657 129.838 68.7772 130.53 68.0855C131.221 67.3938 131.61 66.4557 131.61 65.4776Z" fill="#3EC1F3"/>
<path d="M159.495 82.6481C159.281 82.5011 159.017 82.4448 158.761 82.4913C158.505 82.5379 158.278 82.6836 158.129 82.8967L154.712 87.8143C154.564 88.0285 154.507 88.2926 154.554 88.5486C154.6 88.8047 154.746 89.0318 154.96 89.1803C155.174 89.3276 155.438 89.3843 155.694 89.3383C155.949 89.2923 156.177 89.1471 156.326 88.9344L159.741 84.0168C159.89 83.8027 159.948 83.5382 159.902 83.2815C159.855 83.0249 159.709 82.797 159.495 82.6481Z" fill="#30242A"/>
<path d="M149.914 91.0217C149.914 91.0217 147.455 93.7536 144.996 91.2949C144.996 91.2949 141.991 92.1144 140.898 89.6557C140.898 89.6557 138.44 90.7485 137.347 88.2897C137.276 88.1312 135.926 88.8798 134.615 87.1969C132.703 84.7381 131.61 77.9081 133.249 77.6349C136.063 77.165 137.254 82.4432 137.303 82.2793C137.918 80.2002 138.983 78.4545 140.079 78.4545C141.991 78.4545 142.264 80.3669 142.264 80.3669C142.264 80.3669 143.42 78.8233 144.996 79.2741C146.909 79.8205 146.362 82.2793 146.362 82.2793C146.362 82.2793 148.116 81.1155 149.094 82.8257C150.187 84.7381 148.002 87.1969 148.275 89.9289L149.914 91.0217Z" fill="#EAA58B"/>
<path d="M146.204 81.8531C145.038 83.8912 143.199 87.8416 144.357 90.896" stroke="#A15842" stroke-width="4" stroke-linecap="round" stroke-linejoin="round"/>
<path d="M142.038 79.9571C141.297 81.7056 139.746 85.9456 140.415 89.3633" stroke="#A15842" stroke-width="4" stroke-linecap="round" stroke-linejoin="round"/>
<path d="M137 81.5963C136.639 83.3448 136.374 85.6751 136.839 87.8034" stroke="#A15842" stroke-width="4" stroke-linecap="round" stroke-linejoin="round"/>
<path d="M240.07 41.0263C243.348 39.9335 247.173 35.2891 244.441 31.4643C240.821 26.3938 234.606 33.1035 234.606 33.1035C231.973 31.1833 229.975 28.5192 228.869 25.4539C228.049 25.7271 225.59 26.0003 223.678 25.4539C223.678 25.4539 222.858 27.6395 222.312 31.4643C222.238 31.9889 222.151 32.4943 222.055 32.9806C222.055 32.9806 219.58 32.8303 219.307 33.9231C218.968 35.2727 221.134 36.7234 221.134 36.7234C220.287 39.775 219.583 42.1218 220.673 44.8511C221.634 47.2579 223.678 50.0418 230.235 49.2222L229.86 52.0908H249.413C249.522 50.9461 249.651 49.5829 249.787 48.1103C247.569 47.3645 242.018 45.1407 240.07 41.0263Z" fill="#EAA58B"/>
<path d="M242.255 16.4384C234.332 12.8868 226.956 18.3508 226.956 18.3508C226.956 18.3508 220.219 16.4111 219.853 20.8096C219.58 24.0879 223.678 25.4539 223.678 25.4539C225.59 26.0003 228.049 25.7271 228.868 25.4539C229.975 28.5191 231.973 31.1832 234.606 33.1035C234.606 33.1035 240.821 26.3937 244.441 31.4643C247.173 35.2891 243.348 39.9335 240.07 41.0263C242.018 45.1406 247.569 47.3645 249.787 48.1103C250.268 42.9004 250.845 36.3027 250.998 33.1035C251.246 27.8881 250.724 20.2386 242.255 16.4384Z" fill="#4756DF"/>
<path d="M187.889 76.5421C187.889 76.5421 168.765 71.0781 161.388 69.4389C156.903 68.4418 150.559 68.1713 147.54 69.0155C146.526 69.2887 145.884 69.7094 145.816 70.2585C145.496 72.8102 151.826 72.4933 154.173 73.5888L163.383 79.9407C163.854 80.2714 164.176 80.775 164.279 81.3418C164.381 81.9087 164.255 82.493 163.929 82.9677L159.35 89.6065C166.397 93.2577 174.016 95.6766 181.878 96.7588C189.126 97.7615 197.923 93.729 204.221 90.019L193.656 72.5807C190.26 74.8974 187.889 76.5421 187.889 76.5421Z" fill="#EAA58B"/>
<path d="M249.413 52.0908H229.86L229.415 55.5058C229.415 55.5058 219.812 55.3036 213.023 59.6038C207.892 62.8521 199.341 68.6685 193.656 72.5671L204.221 90.019C207.085 88.3404 209.842 86.4854 212.477 84.4649L205.374 105.228H252.637L249.085 55.5058C249.085 55.5058 249.219 54.1535 249.413 52.0908Z" fill="#FF7235"/>
<path d="M228.869 56.1888L228.459 59.4672" stroke="#A15842" stroke-width="4" stroke-linecap="round" stroke-linejoin="round"/>
<path d="M215.892 73.1271L212.203 84.0551" stroke="#A15842" stroke-width="4" stroke-linecap="round" stroke-linejoin="round"/>
<path d="M223.364 39.2505C223.814 39.5237 225.508 39.7504 226.194 38.4473" stroke="#A15842" stroke-width="4" stroke-linecap="round" stroke-linejoin="round"/>
<path d="M226.683 32.8303C227.136 32.8303 227.502 32.4633 227.502 32.0107C227.502 31.558 227.136 31.1911 226.683 31.1911C226.23 31.1911 225.863 31.558 225.863 32.0107C225.863 32.4633 226.23 32.8303 226.683 32.8303Z" fill="black"/>
<path d="M240.889 34.7427L237.884 36.6551" stroke="#A15842" stroke-width="4" stroke-linecap="round" stroke-linejoin="round"/>
<path d="M233.475 52.6317L233.035 56.1751" stroke="#A15842" stroke-width="4" stroke-linecap="round" stroke-linejoin="round"/>
<path d="M237.57 52.6317L237.133 56.1751" stroke="#A15842" stroke-width="4" stroke-linecap="round" stroke-linejoin="round"/>
<path d="M241.665 52.6317L241.228 56.1751" stroke="#A15842" stroke-width="4" stroke-linecap="round" stroke-linejoin="round"/>
<path d="M230.434 49.7031C231.737 49.4736 233.551 48.9955 235.016 47.9928" stroke="#A15842" stroke-width="4" stroke-linecap="round" stroke-linejoin="round"/>
<path d="M250.785 90.7484L251.271 100.857C251.271 100.857 228.243 107.31 220.378 113.211C216.826 115.875 212.455 120.885 210.837 122.986C209.22 125.087 202.565 134.733 205.374 135.007C208.182 135.28 212.512 129.223 212.512 129.223C212.512 129.223 209.745 136.646 210.564 139.105C211.384 141.563 213.925 139.867 213.925 139.867C216.301 142.656 218.411 139.577 218.411 139.577C222.585 142.656 226.831 127.529 226.831 127.529C229.134 126.403 231.19 124.83 232.879 122.901C232.879 122.901 256.27 123.827 265.477 116.156C270.086 112.315 272.362 102.081 272.452 90.7484H250.785Z" fill="#EAA58B"/>
<path d="M268.756 64.7945C266.731 58.623 260.013 55.5058 255.915 55.5058H249.085L250.784 90.7484H272.452C272.52 81.9296 271.266 72.4468 268.756 64.7945Z" fill="#FF7235"/>
<path d="M251.388 90.5026L250.588 73.6735" stroke="#A15842" stroke-width="4" stroke-linecap="round" stroke-linejoin="round"/>
<path d="M251.705 100.16L255.779 99.081" stroke="#A15842" stroke-width="4" stroke-linecap="round" stroke-linejoin="round"/>
<path d="M211.87 129.696C212.728 127.401 214.037 123.999 215.072 121.757" stroke="#A15842" stroke-width="4" stroke-linecap="round" stroke-linejoin="round"/>
<path d="M218.897 123.669C215.968 129.977 214.252 137.056 213.706 139.613" stroke="#A15842" stroke-width="4" stroke-linecap="round" stroke-linejoin="round"/>
<path d="M222.995 125.854C221.121 130.168 219.391 135.919 218.451 139.269" stroke="#A15842" stroke-width="4" stroke-linecap="round" stroke-linejoin="round"/>
<path d="M57.715 219.228C57.2522 219.228 56.7964 219.117 56.3862 218.902C55.976 218.688 55.6236 218.378 55.359 217.999C55.0945 217.619 54.9256 217.181 54.8668 216.722C54.808 216.263 54.861 215.797 55.0212 215.363L62.0643 196.28H73.2654L60.171 217.862C59.9128 218.281 59.5514 218.627 59.1213 218.866C58.6913 219.105 58.207 219.23 57.715 219.228Z" fill="black"/>
<path d="M157.422 219.228C157.884 219.228 158.34 219.117 158.75 218.902C159.161 218.688 159.513 218.378 159.777 217.999C160.042 217.619 160.211 217.181 160.27 216.722C160.329 216.263 160.276 215.797 160.115 215.363L153.072 196.28H141.871L154.966 217.862C155.224 218.281 155.585 218.627 156.015 218.866C156.445 219.105 156.929 219.23 157.422 219.228Z" fill="black"/>
<path d="M168.492 139.577H46.645V203.233H168.492V139.577Z" fill="#CA7358"/>
<path d="M160.296 147.773H54.8408V195.037H160.296V147.773Z" fill="#FFBE21"/>
<path d="M160.432 171.479H54.8408" stroke="#CA7358" stroke-width="4" stroke-miterlimit="10"/>
<path d="M107.568 163.146C109.228 163.146 110.573 161.801 110.573 160.141C110.573 158.481 109.228 157.136 107.568 157.136C105.909 157.136 104.563 158.481 104.563 160.141C104.563 161.801 105.909 163.146 107.568 163.146Z" fill="#30242A"/>
<path d="M107.568 186.095C109.228 186.095 110.573 184.749 110.573 183.09C110.573 181.43 109.228 180.084 107.568 180.084C105.909 180.084 104.563 181.43 104.563 183.09C104.563 184.749 105.909 186.095 107.568 186.095Z" fill="#30242A"/>
<path d="M84.483 112.604C86.6708 112.604 88.4444 110.831 88.4444 108.643C88.4444 106.455 86.6708 104.682 84.483 104.682C82.2952 104.682 80.5216 106.455 80.5216 108.643C80.5216 110.831 82.2952 112.604 84.483 112.604Z" fill="#FFBE21"/>
<path d="M104.973 112.604C107.161 112.604 108.934 110.831 108.934 108.643C108.934 106.455 107.161 104.682 104.973 104.682C102.785 104.682 101.011 106.455 101.011 108.643C101.011 110.831 102.785 112.604 104.973 112.604Z" fill="#FFBE21"/>
<path d="M94.7279 104.682C94.1961 104.682 93.6712 104.802 93.1925 105.034C92.9536 104.241 92.4729 103.543 91.8176 103.038C91.1624 102.532 90.3654 102.243 89.5382 102.213C88.711 102.182 87.8949 102.411 87.2042 102.868C86.5135 103.324 85.9827 103.984 85.686 104.757C85.3894 105.53 85.3417 106.376 85.5498 107.177C85.7578 107.979 86.2111 108.695 86.8462 109.226C87.4813 109.757 88.2665 110.076 89.0919 110.138C89.9173 110.201 90.7416 110.004 91.4495 109.575C91.6929 110.171 92.094 110.69 92.6099 111.077C93.1258 111.463 93.7371 111.701 94.3782 111.766C95.0192 111.832 95.666 111.721 96.2492 111.447C96.8323 111.173 97.3299 110.745 97.6886 110.21C98.0473 109.675 98.2535 109.052 98.2853 108.408C98.3171 107.765 98.1731 107.125 97.8689 106.556C97.5647 105.988 97.1117 105.514 96.5584 105.184C96.005 104.853 95.3723 104.68 94.7279 104.682Z" fill="#FFBE21"/>
<path d="M101.812 104.692C101.54 104.028 101.092 103.451 100.517 103.021C99.9419 102.592 99.2608 102.326 98.5467 102.254C97.8325 102.181 97.1121 102.304 96.4624 102.61C95.8127 102.915 95.2581 103.391 94.858 103.987C94.4578 104.583 94.2271 105.276 94.1905 105.993C94.1538 106.71 94.3127 107.423 94.6501 108.057C94.9874 108.69 95.4906 109.22 96.1058 109.59C96.721 109.96 97.4252 110.156 98.143 110.156C98.2808 110.156 98.4184 110.149 98.5555 110.135C98.8784 110.649 99.3278 111.072 99.8608 111.363C100.394 111.654 100.993 111.804 101.6 111.798C102.207 111.791 102.803 111.63 103.33 111.328C103.857 111.026 104.297 110.594 104.61 110.073C104.922 109.552 105.095 108.96 105.113 108.352C105.132 107.745 104.994 107.144 104.713 106.605C104.433 106.067 104.019 105.609 103.511 105.276C103.003 104.943 102.418 104.746 101.812 104.703V104.692Z" fill="#FFBE21"/>
<path d="M93.3619 106.321C95.0216 106.321 96.3671 104.975 96.3671 103.316C96.3671 101.656 95.0216 100.31 93.3619 100.31C91.7022 100.31 90.3567 101.656 90.3567 103.316C90.3567 104.975 91.7022 106.321 93.3619 106.321Z" fill="#FFBE21"/>
<path d="M103.334 99.2176C104.465 99.2176 105.383 98.3002 105.383 97.1686C105.383 96.037 104.465 95.1196 103.334 95.1196C102.202 95.1196 101.285 96.037 101.285 97.1686C101.285 98.3002 102.202 99.2176 103.334 99.2176Z" fill="#FFBE21"/>
<path d="M78.4261 108.506L83.8901 139.651H87.7614L83.4366 108.506H78.4261Z" fill="#FF7235"/>
<path d="M105.929 108.506L101.602 139.651H105.473L110.937 108.506H105.929Z" fill="#FF7235"/>
<path d="M99.0991 108.506L97.0555 139.651H101.602L105.929 108.506H99.0991Z" fill="#F5EBDD"/>
<path d="M83.4366 108.506L87.7614 139.651H92.3074L90.2666 108.506H83.4366Z" fill="#F5EBDD"/>
<path d="M90.2666 108.506L92.3074 139.651H97.0556L99.0991 108.506H90.2666Z" fill="#FF7235"/>
<path d="M143.327 118.434H194.446V219.231H121.228V140.531C121.229 134.67 123.558 129.05 127.702 124.906C131.846 120.762 137.467 118.434 143.327 118.434Z" fill="#FFB7D5"/>
<path d="M199.879 63.7783H272.067C277.927 63.779 283.548 66.1076 287.691 70.2519C291.835 74.3962 294.163 80.0168 294.163 85.8773V219.228H177.78V85.8773C177.78 80.0163 180.109 74.3953 184.253 70.2509C188.397 66.1066 194.018 63.7783 199.879 63.7783Z" fill="#FFB7D5"/>
<path d="M173.925 145.35H272.067C277.927 145.351 283.547 147.679 287.69 151.823C291.834 155.966 294.162 161.586 294.163 167.446V219.228H151.826V167.446C151.827 161.586 154.156 155.965 158.3 151.822C162.444 147.678 168.065 145.35 173.925 145.35Z" fill="#FFB7D5"/>
<path d="M220.536 169.88H160.94" stroke="#CA7358" stroke-width="4" stroke-miterlimit="10"/>
<path d="M151.826 167.446V219.228" stroke="#CA7358" stroke-width="4" stroke-miterlimit="10"/>
<path d="M294.163 118.109H247.954" stroke="#CA7358" stroke-width="4" stroke-miterlimit="10"/>
<path d="M169.038 0H47.1914V82.506H169.038V0Z" fill="#F5EBDD"/>
<path d="M160.842 8.19597H55.3872V74.3101H160.842V8.19597Z" fill="#30242A"/>
<path d="M131.976 49.2414C132.916 49.3315 133.853 49.4299 134.79 49.531L136.861 44.4249L138.825 50.0036C139.836 50.1293 140.844 50.2613 141.849 50.3997L138.401 40.6165L141.849 32.1009H138.929L138.899 32.1419L137.035 36.7425L135.396 32.0981H132.517L135.495 40.5454L131.976 49.2414Z" fill="#FF7235"/>
<path d="M129.793 49.0419V32.1036H126.911V48.8124C127.872 48.8853 128.833 48.9645 129.793 49.0501" fill="#FF7235"/>
<path d="M108.139 48.0939C108.917 48.0939 109.695 48.0985 110.472 48.1076V41.8814H113.934V39.2314H110.472V34.7536H114.458V32.1009H107.568V48.0967H108.131" fill="#FF7235"/>
<path d="M99.1892 48.266C100.151 48.2333 101.102 48.2032 102.074 48.1813V34.7536H104.768V32.1009H96.4955V34.7536H99.1892V48.266Z" fill="#FF7235"/>
<path d="M77.1449 50.0418V39.9499L80.5572 49.632C81.6062 49.5155 82.6581 49.4044 83.7126 49.2987V32.0872H80.9478V42.5562L77.2624 32.1009H74.3801V50.4052H74.3965C75.309 50.2795 76.227 50.1593 77.1449 50.0418Z" fill="#FF7235"/>
<path d="M93.7171 34.7536V32.1009H86.8325V49.0119C89.1165 48.8152 91.4095 48.6494 93.7117 48.5147V45.8619C92.3803 45.9384 91.0525 46.0295 89.7284 46.1351V41.8841H93.1899V39.2314H89.7284V34.7536H93.7171Z" fill="#FF7235"/>
<path d="M120.174 45.7362V32.1009H117.278V48.266C119.582 48.3516 121.876 48.4682 124.16 48.6157V45.963C122.834 45.8755 121.505 45.8009 120.174 45.7389" fill="#FF7235"/>
<path d="M205.373 105.228C205.373 105.228 179.693 110.965 166.579 118.342C153.094 125.926 151.826 136.569 143.409 162.133C139.716 173.334 137.861 181.377 135.874 186.884L158.793 197.706C159.886 195.679 160.858 193.684 161.662 191.832C161.662 191.832 172.169 191.365 173.171 177.303C173.92 166.799 174.281 159.024 177.947 151.177L240.591 105.108L205.373 105.228Z" fill="#30242A"/>
<path d="M126.474 196.717C126.359 196.736 126.244 196.758 126.127 196.774C118.01 198.006 114.622 199.585 113.286 203.265L147.163 219.056C147.55 219.237 147.987 219.277 148.4 219.171C148.813 219.064 149.177 218.817 149.428 218.472C149.571 218.275 149.674 218.052 149.73 217.816C149.787 217.579 149.796 217.334 149.756 217.094C149.717 216.854 149.631 216.625 149.502 216.418C149.374 216.212 149.205 216.033 149.007 215.893L126.692 205.765C127.219 202.764 127.144 199.689 126.474 196.717Z" fill="#30242A"/>
<path d="M158.793 197.706L135.874 186.884C134.702 190.135 133.484 192.507 131.815 194.132C130.427 195.498 128.722 196.318 126.474 196.717C127.144 199.689 127.219 202.764 126.692 205.765L149.018 215.893C148.932 215.831 148.84 215.777 148.745 215.731L147.925 215.341C149.253 213.428 151.337 210.308 153.567 206.702C155.337 203.875 157.17 200.755 158.793 197.706Z" fill="#EAA58B"/>
<path d="M161.473 192.22L137.62 181.041" stroke="#F5EBDD" stroke-width="4" stroke-linecap="round" stroke-linejoin="round"/>
<path d="M253.593 116.268L252.637 105.739H233.786C233.786 105.739 202.095 113.323 188.624 119.784C175.215 126.21 176.824 141.134 179.351 167.26C180.641 180.579 182.25 189.726 182.165 196.203H207.026C207.163 194.101 207.254 191.884 207.3 189.551C207.3 189.551 216.998 184.958 211.944 170.069C208.559 160.097 205.636 153.494 205.636 144.834H227.503C231.143 144.834 234.743 144.076 238.074 142.607C241.404 141.139 244.393 138.992 246.847 136.305C249.302 133.617 251.17 130.447 252.332 126.997C253.493 123.547 253.923 119.893 253.593 116.268Z" fill="#30242A"/>
<path d="M176.261 208.361C169.945 212.655 167.716 215.464 168.065 219.22L205.469 219.171C205.87 219.154 206.248 218.983 206.526 218.694C206.803 218.404 206.958 218.019 206.958 217.618C206.958 217.217 206.803 216.831 206.526 216.542C206.248 216.253 205.87 216.082 205.469 216.065H180.512C180.512 216.065 179.146 211.453 176.261 208.361Z" fill="#30242A"/>
<path d="M182.165 196.203C182.119 199.891 181.523 202.716 180.004 204.946C179.185 206.127 178.142 207.136 176.933 207.915L176.261 208.361C179.149 211.445 180.512 216.065 180.512 216.065H204.139C205.036 212.401 205.722 208.688 206.193 204.946C206.532 202.334 206.827 199.408 207.034 196.203H182.165Z" fill="#EAA58B"/>
<path d="M205.92 113.151C199.882 115.08 192.757 117.44 188.162 119.708C177.668 124.879 176.33 134.963 177.469 151.754" stroke="#A15842" stroke-width="4" stroke-linecap="round" stroke-linejoin="round"/>
<path d="M205.374 145.481H198.595" stroke="#A15842" stroke-width="4" stroke-linecap="round" stroke-linejoin="round"/>
<path d="M207.286 190.012H181.878" stroke="#F5EBDD" stroke-width="4" stroke-miterlimit="10" stroke-linecap="round"/>
<path d="M243.045 118.434H294.163V219.231H220.946V140.531C220.947 134.67 223.275 129.05 227.419 124.906C231.564 120.762 237.184 118.434 243.045 118.434Z" fill="#FFB7D5"/>
<path d="M220.399 144.845V218.903" stroke="#CA7358" stroke-width="4" stroke-miterlimit="10"/>
<path d="M28.2041 179.538C21.9205 179.538 16.7953 175.771 16.6013 171.069V219.152H39.8232V171.069C39.6129 175.771 34.4958 179.538 28.2041 179.538Z" fill="#4756DF"/>
<path d="M17.033 208.27C24.6552 207.451 33.7336 202.123 32.0288 189.51C30.6628 179.401 20.6911 182.27 26.4283 191.832C29.7995 197.452 35.3427 201.279 39.3396 203.478" stroke="#3EC1F3" stroke-width="4" stroke-miterlimit="10" stroke-linecap="round"/>
<path d="M16.9646 196.905C21.5079 200.014 29.5563 207.156 32.6244 218.666" stroke="#3EC1F3" stroke-width="4" stroke-miterlimit="10" stroke-linecap="round"/>
<path d="M16.9373 212.286C19.9179 213.169 23.7399 215.07 26.6167 218.698" stroke="#3EC1F3" stroke-width="4" stroke-miterlimit="10" stroke-linecap="round"/>
<path d="M25.2589 173.571C23.3247 176.94 20.4408 179.665 16.9673 181.404" stroke="#3EC1F3" stroke-width="4" stroke-miterlimit="10" stroke-linecap="round"/>
<path d="M28.204 179.538C34.4875 179.538 39.6127 175.771 39.8067 171.069H16.593C16.7952 175.771 21.9122 179.538 28.204 179.538Z" fill="#30242A"/>
<path d="M21.6472 128.86L27.9308 176.123" stroke="#30242A" stroke-width="4" stroke-miterlimit="10" stroke-linecap="round"/>
<path d="M19.6365 147.907L26.9855 175.727" stroke="#30242A" stroke-width="4" stroke-miterlimit="10" stroke-linecap="round"/>
<path d="M42.4337 159.007C47.6668 156.769 51.4079 153.784 50.7898 152.338C50.1717 150.892 45.4284 151.534 40.1954 153.772C34.9623 156.009 31.2212 158.995 31.8393 160.441C32.4574 161.886 37.2006 161.244 42.4337 159.007Z" fill="#30242A"/>
<path d="M24.0176 164.966C24.5504 163.553 19.8219 160.461 13.4561 158.061C7.09026 155.661 1.49775 154.861 0.964868 156.274C0.431986 157.687 5.16052 160.778 11.5263 163.179C17.8922 165.579 23.4847 166.379 24.0176 164.966Z" fill="#30242A"/>
<path d="M32.7081 149.905C36.3923 147.13 38.8085 144.123 38.105 143.189C37.4014 142.255 33.8444 143.748 30.1602 146.523C26.476 149.298 24.0597 152.305 24.7633 153.239C25.4669 154.173 29.0239 152.681 32.7081 149.905Z" fill="#30242A"/>
<path d="M36.1269 134.597L29.0237 178.309" stroke="#30242A" stroke-width="4" stroke-miterlimit="10" stroke-linecap="round"/>
<path d="M24.4202 139.126C23.7639 138.038 22.8555 137.124 21.7717 136.461C20.6878 135.798 19.4603 135.405 18.1928 135.315C16.9252 135.226 15.6548 135.443 14.4886 135.948C13.3225 136.453 12.2949 137.23 11.4925 138.216C10.6901 139.201 10.1365 140.365 9.87843 141.609C9.62031 142.853 9.66526 144.141 10.0095 145.365C10.3537 146.588 10.9871 147.71 11.8562 148.637C12.7253 149.564 13.8046 150.269 15.0031 150.691C15.4038 148.101 16.4876 145.664 18.1427 143.631C19.7979 141.599 21.9647 140.044 24.4202 139.126Z" fill="#FFB7D5"/>
<path d="M20.7976 144.039C19.3543 140.748 16.7651 138.094 13.5114 136.569" stroke="#F5EBDD" stroke-width="4" stroke-miterlimit="10" stroke-linecap="round"/>
<path d="M19.5982 145.232C17.0955 142.629 13.7217 141.039 10.121 140.766" stroke="#F5EBDD" stroke-width="4" stroke-miterlimit="10" stroke-linecap="round"/>
<path d="M15.0031 150.691C16.5422 151.233 18.2113 151.287 19.7821 150.845C21.353 150.403 22.7491 149.487 23.7795 148.221C24.81 146.956 25.4245 145.403 25.5392 143.775C25.6539 142.147 25.2631 140.524 24.4202 139.126C21.9647 140.044 19.7979 141.599 18.1427 143.631C16.4875 145.664 15.4038 148.101 15.0031 150.691Z" fill="#FF7235"/>
<path d="M12.7191 123.724C12.6916 122.453 12.97 121.195 13.5307 120.055C14.0915 118.915 14.9181 117.927 15.941 117.173C16.9639 116.42 18.153 115.923 19.408 115.726C20.663 115.528 21.9471 115.635 23.152 116.038C24.3569 116.441 25.4473 117.127 26.3311 118.04C27.215 118.953 27.8665 120.064 28.2305 121.282C28.5946 122.499 28.6606 123.786 28.423 125.034C28.1854 126.282 27.6512 127.454 26.8654 128.453C25.1403 126.479 22.9203 125 20.4339 124.169C17.9476 123.337 15.2846 123.184 12.7191 123.724Z" fill="#FFB7D5"/>
<path d="M18.4099 125.934C17.8666 122.381 18.6337 118.753 20.5681 115.724" stroke="#F5EBDD" stroke-width="4" stroke-miterlimit="10" stroke-linecap="round"/>
<path d="M20.0573 126.3C20.7803 122.762 22.7796 119.615 25.6742 117.456" stroke="#F5EBDD" stroke-width="4" stroke-miterlimit="10" stroke-linecap="round"/>
<path d="M26.8653 128.453C25.8556 129.735 24.4744 130.675 22.9105 131.143C21.3465 131.61 19.6763 131.584 18.1281 131.066C16.5799 130.549 15.2294 129.565 14.2612 128.251C13.293 126.937 12.7545 125.356 12.7191 123.724C15.2846 123.184 17.9475 123.337 20.4339 124.169C22.9203 125 25.1403 126.479 26.8653 128.453Z" fill="#FF7235"/>
<path d="M31.7393 124.278C32.5203 123.276 33.5311 122.476 34.6863 121.946C35.8415 121.416 37.1072 121.172 38.3766 121.234C39.6459 121.296 40.8817 121.663 41.9796 122.303C43.0775 122.943 44.0053 123.838 44.6847 124.912C45.3641 125.986 45.7751 127.208 45.8831 128.474C45.9912 129.74 45.793 131.014 45.3053 132.188C44.8176 133.361 44.0548 134.4 43.0812 135.217C42.1075 136.034 40.9517 136.605 39.7112 136.881C39.6217 134.261 38.8359 131.713 37.4348 129.498C36.0337 127.283 34.0678 125.481 31.7393 124.278Z" fill="#FFB7D5"/>
<path d="M34.7526 129.586C36.5749 126.488 39.4616 124.157 42.8748 123.03" stroke="#F5EBDD" stroke-width="4" stroke-miterlimit="10" stroke-linecap="round"/>
<path d="M35.7961 130.914C38.5912 128.628 42.1303 127.451 45.7378 127.608" stroke="#F5EBDD" stroke-width="4" stroke-miterlimit="10" stroke-linecap="round"/>
<path d="M39.7111 136.881C38.1186 137.235 36.4554 137.09 34.9487 136.464C33.4421 135.838 32.1655 134.762 31.2933 133.383C30.4211 132.004 29.9958 130.39 30.0756 128.76C30.1554 127.13 30.7364 125.565 31.7391 124.278C34.0676 125.481 36.0336 127.283 37.4347 129.498C38.8358 131.713 39.6216 134.261 39.7111 136.881Z" fill="#FF7235"/>
<path d="M341.937 218.343C341.913 218.41 341.881 218.474 341.844 218.534C341.882 218.474 341.913 218.41 341.937 218.343Z" fill="#CA7358"/>
<path d="M328.917 212.325L321.756 219.155H340.06C341.025 219.155 341.588 218.931 341.839 218.545C340.429 218.808 332.255 214.237 328.917 212.325Z" fill="#CA7358"/>
<path d="M341.937 218.343C342.85 215.772 333.504 207.962 333.504 207.962L328.917 212.333C332.255 214.245 340.429 218.816 341.839 218.551C341.879 218.485 341.912 218.416 341.937 218.343Z" fill="#FFB7D5"/>
<path d="M340.607 193.744C340.334 195.11 327.767 197.296 327.767 197.296L326.98 192.083L326.674 192.105L328.712 207.678C328.712 207.678 341.426 196.476 340.607 193.744Z" fill="#CA7358"/>
<path d="M340.607 193.744C339.897 191.378 328.958 191.96 326.98 192.083L327.767 197.296C327.767 197.296 340.334 195.11 340.607 193.744Z" fill="#FFB7D5"/>
<path d="M325.496 193.591L325.969 183.754" stroke="#30242A" stroke-width="4" stroke-linecap="round" stroke-linejoin="round"/>
<path d="M323.576 192.515L321.021 179.967" stroke="#30242A" stroke-width="4" stroke-linecap="round" stroke-linejoin="round"/>
<path d="M281.869 219.228L269.089 202.2L275.039 195.916C274.493 194.004 272.034 185.535 268.756 182.803C265.477 180.071 262.472 180.071 260.833 180.617L260.784 180.634C260.379 180.783 260.023 181.04 259.754 181.377C259.485 181.715 259.313 182.119 259.257 182.546C259.2 182.974 259.262 183.409 259.435 183.804C259.608 184.199 259.885 184.54 260.237 184.789L263.292 187.461C263.292 187.461 256.462 192.652 256.462 198.389C256.462 202.388 258.62 204.437 260.759 205.492L255.096 213.415C255.096 213.415 249.358 214.234 238.157 210.956C234.745 209.956 231.054 208.224 227.606 206.634C227.606 210.355 225.896 213.335 223.364 215.529C229.172 217.819 236.565 219.228 242.302 219.228H281.869Z" fill="#A15842"/>
<path d="M247.446 213.278C248.397 215.111 249.563 216.991 251.621 218.655" stroke="#30242A" stroke-width="4" stroke-miterlimit="10" stroke-linecap="round"/>
<path d="M274.22 194.974L272.034 196.613" stroke="#30242A" stroke-width="4" stroke-miterlimit="10" stroke-linecap="round"/>
<path d="M227.606 206.634C221.869 204.003 216.815 201.842 214.935 204.399C211.725 208.77 216.403 212.781 223.364 215.529C225.896 213.335 227.62 210.355 227.606 206.634Z" fill="#F5EBDD"/>
<path d="M331.865 201.113C331.865 199.954 333.323 198.435 334.471 197.968C332.332 192.105 323.761 187.007 314.926 191.559C314.926 191.559 313.833 186.095 310.828 183.909C308.017 181.863 305.091 181.661 302.905 182.48L302.84 182.505C302.446 182.663 302.098 182.918 301.83 183.247C301.561 183.576 301.381 183.968 301.305 184.386C301.23 184.804 301.262 185.234 301.399 185.636C301.535 186.039 301.772 186.399 302.086 186.685L305.911 190.193L303.998 193.955C302.05 192.189 299.761 190.84 297.272 189.991C297.056 200.211 283.637 204.713 276.952 202.487C274.602 199.208 272.66 197.525 272.162 197.124L272.034 197.233C272.034 197.233 266.297 193.471 261.106 197.296C261.106 197.296 258.374 191.012 255.096 188.491C252.323 186.357 246.9 186.305 245.534 187.671L245.493 187.712C245.177 188.034 244.938 188.424 244.794 188.851C244.649 189.278 244.602 189.732 244.657 190.18C244.712 190.628 244.867 191.057 245.111 191.437C245.354 191.816 245.68 192.136 246.064 192.373L249.905 194.774C249.905 194.774 240.07 209.527 253.183 219.228H322.849C333.307 219.228 335.76 210.838 335.525 204.11C334.288 203.787 331.865 202.921 331.865 201.113Z" fill="#CA7358"/>
<path d="M276.952 202.487C283.637 204.713 297.056 200.211 297.272 189.991C294.525 189.02 291.592 188.694 288.699 189.037C280.776 189.969 273.209 196.228 272.162 197.124C272.66 197.525 274.602 199.195 276.952 202.487Z" fill="#F5EBDD"/>
<path d="M331.865 201.113C331.865 202.921 334.288 203.787 335.525 204.118C335.472 202.157 335.16 200.213 334.596 198.334C334.558 198.214 334.512 198.096 334.471 197.976C333.323 198.435 331.865 199.954 331.865 201.113Z" fill="#30242A"/>
<path d="M329.671 201.765L333.556 201.192" stroke="#30242A" stroke-width="4" stroke-linecap="round" stroke-linejoin="round"/>
<path d="M315.62 191.695C316.732 196.176 318.101 202.438 318.625 206.448" stroke="#30242A" stroke-width="4" stroke-linecap="round" stroke-linejoin="round"/>
<path d="M303.588 185.139L302.572 186.66" stroke="#30242A" stroke-width="4" stroke-linecap="round" stroke-linejoin="round"/>
<path d="M305.501 186.778L304.43 188.382" stroke="#30242A" stroke-width="4" stroke-linecap="round" stroke-linejoin="round"/>
<path d="M246.763 190.056L245.736 191.597" stroke="#30242A" stroke-width="4" stroke-linecap="round" stroke-linejoin="round"/>
<path d="M248.949 191.422L247.839 193.083" stroke="#30242A" stroke-width="4" stroke-linecap="round" stroke-linejoin="round"/>
<path d="M303.583 193.785C298.613 202.866 294.51 212.497 302.28 218.868" stroke="#30242A" stroke-width="4" stroke-linecap="round" stroke-linejoin="round"/>
<path d="M279.683 208.907C278.591 203.989 275.228 197.853 270.941 196.067C267.663 194.701 264.384 194.974 261.379 196.613C261.379 196.613 260.081 193.829 259.038 192.305" stroke="#30242A" stroke-width="4" stroke-miterlimit="10" stroke-linecap="round"/>
<path d="M327.594 198.588C327.594 198.588 328.414 201.145 329.671 201.765C329.671 201.765 328.78 203.041 328.633 205.511" stroke="#30242A" stroke-width="4" stroke-linecap="round" stroke-linejoin="round"/>
<path d="M293.343 189.1C293.343 189.1 291.158 192.925 287.606 192.652C284.055 192.378 284.328 187.188 288.426 184.182C290.155 183.166 292.202 182.836 294.163 183.259C297.654 184.021 299.698 191.053 299.698 191.053C299.698 191.053 296.075 189.373 293.343 189.1Z" fill="#CA7358"/>
<path d="M324.215 167.37L328.712 164.621L326.712 171.615L332.001 168.473" stroke="#FFB7D5" stroke-width="4" stroke-linecap="round" stroke-linejoin="round"/>
<path d="M334.039 156.024L338.774 155.647L334.315 160.458L339.651 160.086" stroke="#FFB7D5" stroke-width="4" stroke-linecap="round" stroke-linejoin="round"/>
<path d="M287.183 190.034L287.177 192.105" stroke="#30242A" stroke-width="4" stroke-linecap="round" stroke-linejoin="round"/>
<path d="M289.683 189.797L289.677 191.848" stroke="#30242A" stroke-width="4" stroke-linecap="round" stroke-linejoin="round"/>
<path d="M261.139 183.305L260.15 184.363" stroke="#30242A" stroke-width="4" stroke-linecap="round" stroke-linejoin="round"/>
<path d="M263.073 184.737L261.896 185.996" stroke="#30242A" stroke-width="4" stroke-linecap="round" stroke-linejoin="round"/>
<path d="M163.383 79.9407L154.558 73.8511L154.179 73.5779C151.843 72.4851 145.502 72.7993 145.822 70.2476C145.89 69.7012 146.532 69.2887 147.545 69.0046L134.722 60.1775C134.247 59.8522 133.663 59.7271 133.097 59.8294C132.531 59.9317 132.028 60.2531 131.697 60.7239L130.331 62.6882C131.014 63.2829 131.455 64.1084 131.568 65.007C131.681 65.9057 131.459 66.8146 130.945 67.5602C130.431 68.3058 129.66 68.836 128.78 69.0495C127.9 69.263 126.972 69.1449 126.173 68.7177L124.61 70.9825C124.284 71.4573 124.159 72.0416 124.261 72.6084C124.363 73.1753 124.685 73.6788 125.157 74.0096L153.815 93.7728C154.29 94.099 154.874 94.2245 155.441 94.1222C156.008 94.0199 156.512 93.698 156.842 93.2264L159.339 89.6065L163.94 82.9623C164.264 82.4866 164.386 81.9027 164.282 81.337C164.178 80.7714 163.855 80.2697 163.383 79.9407ZM146.772 85.0113C145.611 85.0113 144.475 84.6668 143.509 84.0214C142.543 83.3759 141.79 82.4586 141.346 81.3853C140.901 80.312 140.785 79.131 141.011 77.9916C141.238 76.8522 141.797 75.8056 142.619 74.9841C143.44 74.1627 144.487 73.6032 145.626 73.3766C146.766 73.15 147.947 73.2663 149.02 73.7108C150.093 74.1554 151.011 74.9083 151.656 75.8742C152.302 76.8401 152.646 77.9758 152.646 79.1375C152.645 80.6951 152.026 82.1887 150.925 83.2901C149.824 84.3915 148.33 85.0106 146.772 85.0113ZM159.749 84.0196L156.334 88.9371C156.185 89.1498 155.958 89.295 155.702 89.341C155.446 89.3871 155.182 89.3303 154.968 89.183C154.755 89.0346 154.608 88.8074 154.562 88.5514C154.515 88.2954 154.572 88.0313 154.72 87.817L158.137 82.8995C158.211 82.7933 158.305 82.7026 158.414 82.6327C158.523 82.5628 158.644 82.515 158.771 82.4921C158.898 82.4691 159.029 82.4714 159.155 82.4989C159.282 82.5264 159.401 82.5785 159.507 82.6522C159.614 82.7259 159.704 82.8199 159.774 82.9286C159.844 83.0374 159.892 83.1588 159.915 83.286C159.938 83.4133 159.935 83.5438 159.908 83.6701C159.881 83.7964 159.828 83.9161 159.755 84.0223L159.749 84.0196Z" fill="#4756DF"/>
<path d="M146.772 85.0113C150.016 85.0113 152.646 82.3815 152.646 79.1375C152.646 75.8935 150.016 73.2637 146.772 73.2637C143.528 73.2637 140.898 75.8935 140.898 79.1375C140.898 82.3815 143.528 85.0113 146.772 85.0113Z" fill="#3EC1F3"/>
<path d="M131.61 65.4776C131.61 64.9506 131.497 64.4298 131.278 63.9504C131.06 63.471 130.74 63.0443 130.342 62.6991L126.184 68.7286C126.718 69.0164 127.315 69.1667 127.922 69.1657C128.9 69.1657 129.838 68.7772 130.53 68.0855C131.221 67.3938 131.61 66.4557 131.61 65.4776Z" fill="#3EC1F3"/>
<path d="M159.495 82.6481C159.281 82.5011 159.017 82.4448 158.761 82.4913C158.505 82.5379 158.278 82.6836 158.129 82.8967L154.712 87.8143C154.564 88.0285 154.507 88.2926 154.554 88.5486C154.6 88.8047 154.746 89.0318 154.96 89.1803C155.174 89.3276 155.438 89.3843 155.694 89.3383C155.949 89.2923 156.177 89.1471 156.326 88.9344L159.741 84.0168C159.89 83.8027 159.948 83.5382 159.902 83.2815C159.855 83.0249 159.709 82.797 159.495 82.6481Z" fill="#30242A"/>
<path d="M149.914 91.0217C149.914 91.0217 147.455 93.7536 144.996 91.2949C144.996 91.2949 141.991 92.1144 140.898 89.6557C140.898 89.6557 138.44 90.7485 137.347 88.2897C137.276 88.1312 135.926 88.8798 134.615 87.1969C132.703 84.7381 131.61 77.9081 133.249 77.6349C136.063 77.165 137.254 82.4432 137.303 82.2793C137.918 80.2002 138.983 78.4545 140.079 78.4545C141.991 78.4545 142.264 80.3669 142.264 80.3669C142.264 80.3669 143.42 78.8233 144.996 79.2741C146.909 79.8205 146.362 82.2793 146.362 82.2793C146.362 82.2793 148.116 81.1155 149.094 82.8257C150.187 84.7381 148.002 87.1969 148.275 89.9289L149.914 91.0217Z" fill="#EAA58B"/>
<path d="M146.204 81.8531C145.038 83.8912 143.199 87.8416 144.357 90.896" stroke="#A15842" stroke-width="4" stroke-linecap="round" stroke-linejoin="round"/>
<path d="M142.038 79.9571C141.297 81.7056 139.746 85.9456 140.415 89.3633" stroke="#A15842" stroke-width="4" stroke-linecap="round" stroke-linejoin="round"/>
<path d="M137 81.5963C136.639 83.3448 136.374 85.6751 136.839 87.8034" stroke="#A15842" stroke-width="4" stroke-linecap="round" stroke-linejoin="round"/>
<path d="M240.07 41.0263C243.348 39.9335 247.173 35.2891 244.441 31.4643C240.821 26.3938 234.606 33.1035 234.606 33.1035C231.973 31.1833 229.975 28.5192 228.869 25.4539C228.049 25.7271 225.59 26.0003 223.678 25.4539C223.678 25.4539 222.858 27.6395 222.312 31.4643C222.238 31.9889 222.151 32.4943 222.055 32.9806C222.055 32.9806 219.58 32.8303 219.307 33.9231C218.968 35.2727 221.134 36.7234 221.134 36.7234C220.287 39.775 219.583 42.1218 220.673 44.8511C221.634 47.2579 223.678 50.0418 230.235 49.2222L229.86 52.0908H249.413C249.522 50.9461 249.651 49.5829 249.787 48.1103C247.569 47.3645 242.018 45.1407 240.07 41.0263Z" fill="#EAA58B"/>
<path d="M242.255 16.4384C234.332 12.8868 226.956 18.3508 226.956 18.3508C226.956 18.3508 220.219 16.4111 219.853 20.8096C219.58 24.0879 223.678 25.4539 223.678 25.4539C225.59 26.0003 228.049 25.7271 228.868 25.4539C229.975 28.5191 231.973 31.1832 234.606 33.1035C234.606 33.1035 240.821 26.3937 244.441 31.4643C247.173 35.2891 243.348 39.9335 240.07 41.0263C242.018 45.1406 247.569 47.3645 249.787 48.1103C250.268 42.9004 250.845 36.3027 250.998 33.1035C251.246 27.8881 250.724 20.2386 242.255 16.4384Z" fill="#4756DF"/>
<path d="M187.889 76.5421C187.889 76.5421 168.765 71.0781 161.388 69.4389C156.903 68.4418 150.559 68.1713 147.54 69.0155C146.526 69.2887 145.884 69.7094 145.816 70.2585C145.496 72.8102 151.826 72.4933 154.173 73.5888L163.383 79.9407C163.854 80.2714 164.176 80.775 164.279 81.3418C164.381 81.9087 164.255 82.493 163.929 82.9677L159.35 89.6065C166.397 93.2577 174.016 95.6766 181.878 96.7588C189.126 97.7615 197.923 93.729 204.221 90.019L193.656 72.5807C190.26 74.8974 187.889 76.5421 187.889 76.5421Z" fill="#EAA58B"/>
<path d="M249.413 52.0908H229.86L229.415 55.5058C229.415 55.5058 219.812 55.3036 213.023 59.6038C207.892 62.8521 199.341 68.6685 193.656 72.5671L204.221 90.019C207.085 88.3404 209.842 86.4854 212.477 84.4649L205.374 105.228H252.637L249.085 55.5058C249.085 55.5058 249.219 54.1535 249.413 52.0908Z" fill="#FF7235"/>
<path d="M228.869 56.1888L228.459 59.4672" stroke="#A15842" stroke-width="4" stroke-linecap="round" stroke-linejoin="round"/>
<path d="M215.892 73.1271L212.203 84.0551" stroke="#A15842" stroke-width="4" stroke-linecap="round" stroke-linejoin="round"/>
<path d="M223.364 39.2505C223.814 39.5237 225.508 39.7504 226.194 38.4473" stroke="#A15842" stroke-width="4" stroke-linecap="round" stroke-linejoin="round"/>
<path d="M226.683 32.8303C227.136 32.8303 227.502 32.4633 227.502 32.0107C227.502 31.558 227.136 31.1911 226.683 31.1911C226.23 31.1911 225.863 31.558 225.863 32.0107C225.863 32.4633 226.23 32.8303 226.683 32.8303Z" fill="black"/>
<path d="M240.889 34.7427L237.884 36.6551" stroke="#A15842" stroke-width="4" stroke-linecap="round" stroke-linejoin="round"/>
<path d="M233.475 52.6317L233.035 56.1751" stroke="#A15842" stroke-width="4" stroke-linecap="round" stroke-linejoin="round"/>
<path d="M237.57 52.6317L237.133 56.1751" stroke="#A15842" stroke-width="4" stroke-linecap="round" stroke-linejoin="round"/>
<path d="M241.665 52.6317L241.228 56.1751" stroke="#A15842" stroke-width="4" stroke-linecap="round" stroke-linejoin="round"/>
<path d="M230.434 49.7031C231.737 49.4736 233.551 48.9955 235.016 47.9928" stroke="#A15842" stroke-width="4" stroke-linecap="round" stroke-linejoin="round"/>
<path d="M250.785 90.7484L251.271 100.857C251.271 100.857 228.243 107.31 220.378 113.211C216.826 115.875 212.455 120.885 210.837 122.986C209.22 125.087 202.565 134.733 205.374 135.007C208.182 135.28 212.512 129.223 212.512 129.223C212.512 129.223 209.745 136.646 210.564 139.105C211.384 141.563 213.925 139.867 213.925 139.867C216.301 142.656 218.411 139.577 218.411 139.577C222.585 142.656 226.831 127.529 226.831 127.529C229.134 126.403 231.19 124.83 232.879 122.901C232.879 122.901 256.27 123.827 265.477 116.156C270.086 112.315 272.362 102.081 272.452 90.7484H250.785Z" fill="#EAA58B"/>
<path d="M268.756 64.7945C266.731 58.623 260.013 55.5058 255.915 55.5058H249.085L250.784 90.7484H272.452C272.52 81.9296 271.266 72.4468 268.756 64.7945Z" fill="#FF7235"/>
<path d="M251.388 90.5026L250.588 73.6735" stroke="#A15842" stroke-width="4" stroke-linecap="round" stroke-linejoin="round"/>
<path d="M251.705 100.16L255.779 99.081" stroke="#A15842" stroke-width="4" stroke-linecap="round" stroke-linejoin="round"/>
<path d="M211.87 129.696C212.728 127.401 214.037 123.999 215.072 121.757" stroke="#A15842" stroke-width="4" stroke-linecap="round" stroke-linejoin="round"/>
<path d="M218.897 123.669C215.968 129.977 214.252 137.056 213.706 139.613" stroke="#A15842" stroke-width="4" stroke-linecap="round" stroke-linejoin="round"/>
<path d="M222.995 125.854C221.121 130.168 219.391 135.919 218.451 139.269" stroke="#A15842" stroke-width="4" stroke-linecap="round" stroke-linejoin="round"/>
</svg>
