<svg width="140" height="144" viewBox="0 0 140 144" fill="none" xmlns="http://www.w3.org/2000/svg">
<g clip-path="url(#clip0)">
<path fill-rule="evenodd" clip-rule="evenodd" d="M120.795 131.918C126.56 126.535 130.338 118.847 130.338 110.938C130.238 99.8443 122.684 89.1899 125.268 78.3157C127.455 68.7597 136.898 62.2791 139.383 52.7231C140.775 47.0114 139.582 40.9702 137.296 35.6979C130.139 18.1235 113.042 6.70019 95.149 2.41643C77.2564 -1.86732 58.3698 0.219636 40.1791 3.62467C32.525 5.05259 24.7716 6.81003 18.0122 10.8741C11.054 15.048 5.48738 21.4187 2.20707 28.9977C0.815429 32.4027 -0.178602 36.1373 0.0202043 39.8718C0.616623 46.3524 4.89096 51.7345 7.37604 57.8855C14.3343 75.3501 4.59275 95.7803 7.77365 114.563C8.66828 119.945 10.6563 124.998 13.539 129.501C16.3223 133.785 19.9008 137.519 24.374 139.606C32.8232 143.67 42.1671 141.803 51.014 140.595C60.9543 139.387 68.4096 141.803 78.0517 143.341C91.4711 145.538 110.358 141.693 120.795 131.918Z" fill="#D7DBFA"/>
<path d="M113.141 51.9541C106.978 54.7001 98.8268 58.215 97.4352 58.215C95.2483 58.3248 78.9462 57.9953 73.2802 59.7527C67.5148 61.62 47.833 73.8122 42.5647 79.5239C37.3957 85.1257 55.4871 104.897 64.0357 105.995C72.6838 106.984 94.4531 94.9015 100.318 92.485C106.183 90.0685 110.556 81.9404 110.556 81.9404L118.31 79.5239C118.31 78.4255 118.409 77.3271 118.409 76.2287C118.409 67.4415 116.521 59.2035 113.141 51.9541Z" fill="#7D86D4"/>
<path d="M101.511 74.0319C95.4471 72.7138 88.6877 74.0319 83.4193 77.5468C77.7533 81.3911 74.9701 87.4323 72.3856 93.9129C72.2862 94.1326 72.6838 94.3522 72.7832 94.1326C75.7653 88.2012 78.9462 82.16 84.4134 78.6452C89.6817 75.2401 95.5465 74.8008 101.411 75.0204C102.107 75.1303 102.107 74.1417 101.511 74.0319Z" fill="#343EA3"/>
<path d="M24.7715 56.4576C30.1393 57.4461 37.8927 58.6544 39.682 58.1052C44.6522 56.6772 59.662 50.9656 65.4274 50.9656C71.2922 50.9656 83.1212 60.1921 90.0794 61.2905C97.0376 62.3889 98.0316 64.0365 97.634 66.0136C97.2364 68.1006 86.5009 70.0777 75.6659 66.8924C75.6659 66.8924 98.5287 82.4896 99.9203 86.334C101.312 90.2882 96.9382 92.3752 95.7454 92.0457C95.7454 92.0457 94.8507 94.4622 92.9621 95.8901C90.477 97.6475 87.4949 97.318 87.4949 97.318C87.4949 97.318 87.0973 103.139 80.9343 102.59C80.9343 102.59 81.8289 106.545 76.66 107.204C71.5904 107.753 54.9901 103.908 48.3301 100.064C41.6701 96.3294 32.8232 87.4324 31.1333 86.7734C30.1393 86.334 25.9644 85.1258 22.2865 84.1372C22.0876 82.7093 21.8888 81.2814 21.7894 79.8535C21.193 71.6155 22.2865 63.5972 24.7715 56.4576Z" fill="#4756DF"/>
<path d="M80.835 102.261C73.6779 99.1853 66.1233 97.4279 59.0657 93.913C58.7675 93.8031 58.6681 94.2425 58.8669 94.3523C65.4275 98.3066 73.0815 102.371 80.6361 102.92C80.9344 102.92 81.1332 102.48 80.835 102.261Z" fill="#CED3F8"/>
<path d="M87.495 96.9884C80.1391 91.9358 72.1869 88.9701 64.7316 84.4667C64.6322 84.3569 64.5328 84.5765 64.6322 84.6864C71.7893 89.8489 79.1451 94.2424 87.2962 97.318C87.6938 97.4278 87.7932 97.2081 87.495 96.9884Z" fill="#CED3F8"/>
<path d="M95.8448 91.6063C92.8627 88.2012 88.6878 85.8946 85.1092 83.3683C81.1331 80.6223 77.0576 77.8763 72.9821 75.35C72.7833 75.2401 72.485 75.5697 72.6838 75.6795C76.66 78.6452 80.5367 81.501 84.5128 84.3568C88.0913 86.8832 91.6698 90.2882 95.646 91.9358C95.8448 92.0456 96.0436 91.7161 95.8448 91.6063Z" fill="#CED3F8"/>
<path d="M68.2107 57.1166C64.6322 58.7642 63.0417 62.2791 59.5626 66.7826C56.9781 70.1876 51.8092 73.8123 54.0954 76.3386C56.2823 78.8649 63.5387 74.3615 66.9184 71.3958C70.1987 68.3203 75.9641 68.1006 76.6599 68.3203C77.2564 68.6498 86.8985 74.1418 93.9561 73.1533C101.014 72.1647 104.493 56.7871 104.493 56.7871C104.493 56.7871 96.64 57.4462 91.2722 55.5789C81.1331 52.2837 74.4731 54.3707 68.2107 57.1166Z" fill="#7D86D4"/>
<path d="M46.7397 100.723C46.2426 104.348 51.014 107.533 53.1015 106.215C55.0895 104.787 61.6501 93.6932 61.2525 91.4964C60.7555 89.1898 58.0716 87.3225 56.183 88.8603C54.2943 90.398 47.1373 97.7573 46.7397 100.723Z" fill="#7D86D4"/>
<path d="M41.5707 92.8145C40.3779 95.9998 44.0558 100.064 46.2427 99.1852C48.4295 98.4163 56.4812 89.9587 56.4812 87.7619C56.4812 85.6749 54.3937 83.2584 52.3062 84.247C50.3182 85.1257 42.4653 90.1783 41.5707 92.8145Z" fill="#7D86D4"/>
<path d="M55.0894 105.885C55.2883 109.291 60.2584 111.158 61.8489 109.4C63.4393 107.643 67.4154 96.1097 66.6202 94.2425C65.7256 92.2653 62.9423 91.1669 61.4512 92.9244C60.0596 94.7917 54.8906 103.139 55.0894 105.885Z" fill="#7D86D4"/>
<path d="M62.6441 109.181C63.3399 112.256 68.1112 112.915 69.3041 111.048C70.4969 109.071 72.1868 97.977 71.0933 96.3294C69.9999 94.7917 67.316 94.3523 66.322 96.3294C65.3279 98.1967 62.0476 106.764 62.6441 109.181Z" fill="#7D86D4"/>
</g>
<defs>
<clipPath id="clip0">
<rect width="140" height="144" fill="white"/>
</clipPath>
</defs>
</svg>
