<?xml version="1.0" encoding="UTF-8"?>
<!DOCTYPE svg PUBLIC "-//W3C//DTD SVG 1.1//EN" "http://www.w3.org/Graphics/SVG/1.1/DTD/svg11.dtd">
<!-- Creator: CorelDRAW X7 -->
<svg xmlns="http://www.w3.org/2000/svg" xml:space="preserve" width="97.0055mm" height="114.13mm" version="1.1" style="shape-rendering:geometricPrecision; text-rendering:geometricPrecision; image-rendering:optimizeQuality; fill-rule:evenodd; clip-rule:evenodd"
viewBox="0 0 660 777"
 xmlns:xlink="http://www.w3.org/1999/xlink">
 <defs>
  <style type="text/css">
   <![CDATA[
    .fil1 {fill:#FEFEFE}
    .fil3 {fill:#2E4594}
    .fil2 {fill:#4756DF}
    .fil0 {fill:#D7DBFA}
   ]]>
  </style>
 </defs>
 <g id="Layer_x0020_1">
  <metadata id="CorelCorpID_0Corel-Layer"/>
  <g id="_2201835456544">
   <path class="fil0" d="M445 30c-71,-32 -154,-39 -229,-18 -41,12 -81,33 -103,70 -51,90 40,213 -9,305 -19,37 -58,60 -81,95 -36,55 -27,131 11,184 37,54 100,86 163,100 64,14 130,12 196,8 62,-3 126,-7 181,-37 55,-29 97,-91 84,-152 -10,-44 -44,-78 -55,-121 -11,-46 6,-93 15,-139 25,-127 -61,-243 -173,-295z"/>
   <path class="fil1" d="M566 741c-34,-100 -114,-153 -188,-154 -77,0 -150,46 -220,90 15,33 32,64 51,91 60,11 122,9 184,6 59,-3 120,-7 173,-33z"/>
   <path class="fil2" d="M167 680c16,34 33,64 51,90 -6,-1 -13,-3 -19,-4 -18,-28 -34,-58 -46,-86l-3 -5 5 -3c67,-43 142,-91 222,-91 0,0 1,0 1,0 71,0 157,49 194,157 -4,2 -8,4 -11,6 -35,-103 -116,-150 -183,-150 0,0 -1,0 -1,0 -74,0 -146,45 -210,86z"/>
   <path class="fil1" d="M263 607c12,-13 24,-26 30,-43 4,-13 4,-27 3,-40 0,-15 0,-30 -1,-45 0,-5 0,-11 -4,-14 -4,-4 -12,-3 -16,1 -5,4 -7,9 -9,15 -5,11 -9,22 -14,33 4,-27 3,-53 2,-81 0,-6 0,-12 -4,-16 -4,-5 -12,-7 -15,-2 3,-8 -7,-19 -16,-21 -7,-1 -12,6 -15,17 -4,-3 -10,-5 -14,-2 -4,3 -6,12 -8,20 -7,8 -17,13 -21,23 -18,46 -17,98 2,143 4,10 -14,113 -18,154 17,7 34,13 52,17 18,4 37,6 55,8 0,-56 4,-161 11,-167z"/>
   <path class="fil2" d="M246 773c0,-21 0,-47 1,-67 4,-96 9,-101 11,-104l0 0c11,-11 23,-24 29,-40 4,-12 3,-25 3,-38l-1 -45c0,-3 0,-8 -2,-10 -2,-1 -6,0 -8,2 -3,3 -5,7 -7,12l-14 33c-1,4 -5,5 -8,4 -3,-1 -5,-4 -4,-7 4,-24 3,-47 2,-71l0 -8c0,-5 -1,-10 -3,-13 -1,-2 -3,-2 -4,-2l0 0c0,0 -1,0 -1,0 -2,2 -6,3 -8,2 -3,-2 -4,-5 -3,-8 0,-2 0,-3 -2,-6 -2,-3 -5,-6 -9,-6 -4,-1 -7,9 -8,12 -1,2 -2,4 -5,4 -2,1 -4,0 -6,-1 -1,-2 -4,-2 -5,-2 -1,1 -3,3 -6,16 0,1 -1,2 -1,3 -3,4 -6,6 -9,9 -5,4 -9,7 -11,12 -18,45 -17,95 2,139 3,7 0,31 -10,100 -3,21 -7,44 -8,59 -4,-2 -9,-3 -13,-5 2,-12 4,-30 8,-55 5,-35 13,-87 11,-94 -20,-47 -21,-101 -2,-148 3,-8 9,-13 14,-18 3,-2 5,-4 7,-6 2,-9 5,-18 10,-22 4,-3 9,-3 14,-2 6,-13 14,-15 20,-14 7,1 15,6 19,13 1,1 1,3 2,5 0,0 0,0 0,0l0 0c5,0 11,2 14,7 5,6 5,13 6,20l0 8c0,11 1,22 1,33 2,-5 4,-9 9,-13 6,-6 17,-8 24,-1 6,5 7,14 7,19l1 45c0,13 1,28 -4,43 -6,18 -19,31 -31,44 -5,11 -9,111 -10,164 -4,-1 -8,-1 -12,-2z"/>
   <path class="fil3" d="M220 490c-1,0 -1,0 -1,0 -3,-1 -6,-4 -6,-7 2,-25 7,-49 16,-72 1,-4 5,-5 9,-4 3,1 4,5 3,8 -8,22 -14,45 -15,69 0,3 -3,6 -6,6z"/>
   <path class="fil2" d="M192 494c0,0 0,0 0,0 -3,0 -6,-2 -6,-6 0,-29 5,-58 14,-85 1,-4 5,-5 8,-4 4,1 5,4 4,8 -9,26 -13,53 -13,81 0,4 -3,6 -7,6z"/>
   <path class="fil2" d="M175 491c0,0 0,0 0,0 -3,0 -6,-3 -6,-7 0,-22 3,-44 9,-65 0,-3 4,-5 7,-5 4,1 6,5 5,8 -5,21 -8,42 -8,63 0,3 -3,6 -7,6z"/>
   <path class="fil2" d="M206 364c-16,-33 -21,-72 -15,-108 -18,-28 -19,-66 -2,-94 17,-28 51,-45 84,-42 32,3 63,26 75,56 23,-4 49,-7 72,1 9,4 19,9 26,17 7,8 10,20 7,29 7,-3 20,-2 27,1 7,3 14,8 20,13 10,9 21,19 26,33 7,20 -2,45 -21,56 19,11 21,36 14,56 -7,20 -22,36 -34,54 -23,32 -37,72 -40,112 -30,-13 -59,-31 -83,-53l-156 -131z"/>
   <path class="fil2" d="M211 360l155 130c22,20 47,37 74,48 4,-38 17,-75 40,-106 3,-5 6,-9 9,-14 10,-12 19,-24 24,-38 6,-18 4,-40 -11,-48l-10 -6 10 -5c16,-10 24,-32 18,-49 -5,-12 -15,-22 -24,-30 -6,-4 -12,-9 -19,-12 -6,-3 -16,-3 -22,-1l-13 6 5 -14c2,-7 0,-16 -6,-23 -5,-6 -13,-11 -24,-15 -20,-7 -45,-5 -68,0l-5 1 -2 -5c-12,-29 -39,-50 -70,-52 -30,-3 -61,13 -77,39 -16,25 -15,60 1,86l1 2 0 3c-6,35 -1,71 14,103zm240 197l-8 -3c-32,-13 -61,-31 -86,-55l-156 -131 -1 -1c-16,-34 -22,-73 -16,-110 -18,-30 -18,-69 0,-98 18,-30 54,-48 89,-45 34,3 65,25 79,55 23,-4 48,-6 70,2 13,5 22,11 29,19 6,7 10,16 10,25 7,-1 15,0 21,3 9,3 16,9 22,14 11,9 22,21 28,35 7,21 1,45 -16,59 15,15 16,39 9,58 -5,16 -15,29 -25,42 -3,5 -7,9 -10,13 -22,32 -36,70 -38,109l-1 9z"/>
   <path class="fil1" d="M202 375c-3,41 -5,84 -2,125 3,28 14,57 36,75 28,22 65,15 98,13 4,0 26,92 28,102 24,11 54,8 76,-6 22,-13 38,-37 40,-63 -15,-30 -45,-88 -49,-126 17,0 34,-9 44,-21 7,-9 10,-20 7,-31 -6,-15 -22,-18 -35,-15 -9,2 -17,7 -24,12 0,-46 -5,-58 -24,-99 -6,-13 -4,-28 -1,-42 1,-10 -6,-18 -15,-19 -35,-3 -72,-8 -106,-10 -21,-1 -45,-2 -60,13 -7,7 -7,39 -9,49 -1,15 -3,29 -4,43z"/>
   <path class="fil2" d="M368 685c21,8 47,6 67,-6 20,-12 34,-34 36,-57 -1,-3 -3,-7 -5,-11 -16,-32 -40,-81 -43,-115l-1 -7 8 0c13,0 28,-8 38,-19 6,-7 8,-17 6,-24 -6,-16 -24,-13 -27,-12 -8,2 -16,7 -23,11l-10 6 0 -11c1,-45 -4,-56 -23,-97 -7,-14 -4,-31 -2,-45 1,-3 0,-6 -2,-8 -1,-2 -4,-4 -7,-4 -14,-1 -29,-3 -44,-4 -20,-2 -41,-4 -61,-5 -21,-2 -42,-2 -55,10 -4,4 -6,27 -6,36 -1,4 -1,8 -1,10 -2,14 -4,29 -5,42l0 0c-3,48 -4,88 -1,125 2,29 15,55 33,70 23,18 52,15 81,12 4,0 8,0 12,-1 0,0 0,0 0,0 7,0 10,2 34,103l1 1zm26 18c-12,0 -24,-2 -34,-7l-3 -1 -2 -8c-16,-64 -22,-86 -25,-92 -3,0 -5,0 -8,0 -30,3 -63,6 -90,-15 -22,-17 -35,-46 -38,-79 -3,-37 -2,-78 1,-127l0 0c2,-14 3,-28 5,-42 0,-3 0,-6 1,-10 1,-21 3,-37 10,-44 17,-16 42,-16 65,-14 20,1 41,3 61,5 15,2 30,3 44,4 7,1 13,4 16,9 4,5 6,12 5,18 -2,13 -4,27 0,38 18,37 25,52 25,90 5,-2 11,-5 16,-6 17,-4 36,0 43,19 4,12 1,26 -8,37 -11,13 -26,21 -41,23 5,32 26,75 40,104 3,5 5,9 7,13l1 2 -1 2c-2,28 -19,54 -43,68 -14,9 -31,13 -47,13z"/>
   <path class="fil2" d="M428 474c-1,0 -2,0 -3,-1 -3,-2 -4,-5 -3,-9 7,-12 18,-21 32,-25 3,-1 7,0 8,4 1,3 -1,7 -5,8 -10,3 -19,10 -23,19 -1,3 -4,4 -6,4z"/>
   <path class="fil2" d="M252 501c0,0 -1,0 -1,0 -7,-1 -14,-4 -19,-8 -6,-5 -10,-10 -11,-16 -2,-10 4,-18 8,-23l14 -20c3,-3 7,-4 9,-1 3,2 4,6 2,9l-15 20c-3,4 -6,9 -5,13 0,3 3,6 5,8 4,3 9,5 14,6 4,0 6,4 5,7 0,3 -3,5 -6,5z"/>
   <path class="fil2" d="M258 533c-7,0 -13,-2 -18,-6 -3,-3 -3,-7 -1,-9 3,-3 7,-3 9,-1 7,5 18,2 21,1 3,-2 7,-3 10,-5 5,-2 10,-5 16,-6 10,-3 24,-3 32,7 3,3 2,7 -1,9 -2,2 -6,2 -9,-1 -4,-5 -12,-5 -19,-3 -4,1 -8,3 -13,6 -4,1 -8,3 -12,5 -5,2 -10,3 -15,3z"/>
   <path class="fil1" d="M378 623c12,-13 25,-26 30,-42 5,-13 4,-27 4,-41 0,-15 -1,-30 -1,-45 0,-5 -1,-11 -4,-14 -5,-4 -12,-3 -16,1 -5,4 -7,10 -10,15 -4,11 -9,22 -13,33 4,-27 3,-53 2,-80 0,-6 -1,-13 -4,-17 -4,-5 -12,-6 -16,-2 3,-8 -6,-19 -15,-20 -7,-2 -12,5 -16,16 -3,-3 -9,-4 -13,-2 -4,3 -7,12 -8,20 -8,8 -18,13 -22,23 -17,46 -16,99 3,144 3,8 -11,102 -19,163 36,3 73,2 109,0 1,-57 4,-146 9,-152z"/>
   <path class="fil2" d="M363 776c1,-76 4,-150 11,-157l0 0c11,-12 23,-25 28,-40 4,-12 4,-26 4,-39l-1 -45c-1,-4 -1,-8 -3,-9 -1,-2 -5,-1 -7,1 -4,3 -6,8 -8,12l-13 34c-2,3 -5,4 -8,4 -3,-1 -5,-4 -5,-8 4,-24 4,-47 3,-71l-1 -8c0,-5 0,-10 -2,-13 -1,-1 -3,-2 -4,-2l0 0c-1,0 -1,0 -1,0 -2,3 -6,3 -9,2 -2,-2 -4,-5 -3,-8 1,-1 0,-3 -1,-5 -2,-4 -6,-7 -9,-7 -4,-1 -7,9 -8,12 -1,2 -3,4 -5,5 -2,0 -4,0 -6,-2 -2,-1 -4,-2 -6,-1 0,0 -2,2 -5,16 0,1 -1,2 -2,3 -2,3 -5,5 -8,8 -5,4 -10,8 -12,13 -17,44 -16,94 3,138 3,7 -1,37 -13,125 -2,14 -4,28 -6,41 -4,0 -8,0 -12,-1 1,-12 3,-25 5,-42 7,-47 16,-110 14,-118 -20,-47 -21,-101 -3,-148 4,-8 9,-13 15,-18 3,-2 5,-4 7,-6 2,-9 4,-18 10,-22 4,-3 9,-3 14,-2 6,-13 14,-15 20,-14 7,1 14,6 18,13 1,2 2,3 3,5 0,0 0,0 0,0l0 0c5,0 10,3 14,7 5,6 5,14 5,20l1 8c0,12 0,22 0,33 2,-4 5,-9 9,-13 7,-5 18,-7 25,-1 6,6 6,14 6,19l2 45c0,13 0,29 -4,43 -6,18 -20,32 -31,44 -4,9 -7,76 -8,148 -5,0 -9,1 -13,1z"/>
   <path class="fil2" d="M335 506c0,0 0,0 0,0 -4,0 -6,-3 -6,-7 1,-25 7,-49 16,-72 1,-3 5,-5 8,-4 4,2 5,5 4,9 -9,21 -14,45 -15,68 0,3 -3,6 -7,6z"/>
   <path class="fil2" d="M308 511c0,0 0,0 0,0 -4,0 -6,-3 -6,-7 0,-29 5,-57 14,-85 1,-3 5,-5 8,-4 3,1 5,5 4,8 -9,26 -13,54 -14,81 0,4 -2,7 -6,7z"/>
   <path class="fil2" d="M291 507c0,0 0,0 0,0 -4,0 -6,-3 -6,-6 0,-22 3,-44 8,-65 1,-4 5,-6 8,-5 4,1 6,4 5,8 -5,20 -8,41 -8,62 0,3 -3,6 -7,6z"/>
   <path class="fil2" d="M228 383c0,0 -1,0 -2,0 -9,-1 -18,-5 -24,-13 -2,-2 -1,-7 1,-9 3,-2 7,-1 9,1 4,5 9,8 15,8 6,1 11,-2 15,-6 3,-2 7,-2 10,0 2,3 2,7 0,10 -7,6 -15,9 -24,9z"/>
   <path class="fil2" d="M327 393c-1,0 -2,0 -4,0 -11,-2 -21,-9 -26,-19 -1,-4 0,-7 3,-9 3,-1 7,0 9,3 3,6 9,11 16,12 7,1 14,-2 18,-7 3,-3 7,-3 9,-1 3,2 4,6 1,9 -6,8 -16,12 -26,12z"/>
   <path class="fil2" d="M253 329c-1,0 -2,0 -3,-1 -11,-5 -24,-6 -35,-1 -3,1 -7,-1 -8,-4 -1,-3 0,-7 3,-8 15,-6 32,-6 46,2 3,2 4,6 3,9 -2,2 -4,3 -6,3z"/>
   <path class="fil2" d="M373 348c-1,0 -3,0 -4,-1 -8,-7 -19,-12 -33,-14 -12,-3 -25,-3 -38,-3 -3,0 -6,-3 -6,-6 0,-4 3,-7 6,-7 0,0 0,0 0,0 13,0 27,1 41,3 15,3 28,9 38,17 3,2 3,6 1,9 -1,2 -3,2 -5,2z"/>
  </g>
 </g>
</svg>
