<svg width="140" height="144" viewBox="0 0 140 144" fill="none" xmlns="http://www.w3.org/2000/svg">
<g clip-path="url(#clip0)">
<path fill-rule="evenodd" clip-rule="evenodd" d="M38.8614 4.09063C32.2253 7.47812 26.8016 13.55 25.015 20.8363C22.3988 31.1266 26.8654 42.823 21.8883 52.1546C17.4855 60.3996 7.14856 63.851 2.55435 71.9681C-0.125608 76.8257 -0.380842 82.7058 0.384861 88.2025C2.9372 106.226 16.018 121.31 31.651 130.003C47.2841 138.631 65.3419 141.763 83.0807 143.425C90.6101 144.128 98.2671 144.575 105.541 142.658C112.943 140.677 119.707 136.202 124.556 130.131C126.726 127.382 128.512 124.25 129.15 120.799C130.235 114.599 127.491 108.463 126.662 102.264C124.365 84.3037 138.403 68.0693 139.87 49.9815C140.317 44.8683 139.679 39.5633 138.084 34.7058C136.552 30.04 134.064 25.6938 130.427 22.4981C123.599 16.554 114.411 15.851 105.86 14.5727C96.3529 13.1026 89.9082 8.88424 81.3579 4.85761C69.4257 -0.702977 50.9212 -2.17302 38.8614 4.09063Z" fill="#D7DBFA"/>
<path d="M80.9112 34.6418H61.8962V26.7803H80.9112V34.6418Z" fill="#DA866C"/>
<path d="M87.7387 58.4821C87.7387 59.313 88.4406 60.016 89.2701 60.016H90.4187V62.8922H89.2701C88.4406 62.8922 87.7387 63.5952 87.7387 64.4261C87.7387 65.257 88.4406 65.9601 89.2701 65.9601H90.4187V68.9002H89.2701C88.4406 68.9002 87.7387 69.5393 87.7387 70.3702C87.7387 71.2011 88.4406 71.9042 89.2701 71.9042H90.4187V74.8442H89.2701C88.4406 74.8442 87.7387 75.4834 87.7387 76.3143C87.7387 77.1452 88.4406 77.8482 89.2701 77.8482H90.4187V116.389C90.4187 119.585 87.8025 122.205 84.6121 122.205H58.2592C55.0049 122.205 52.3888 119.585 52.3888 116.389V77.8482H54.1116C54.9411 77.8482 55.643 77.1452 55.643 76.3143C55.643 75.4834 54.9411 74.8442 54.1116 74.8442H52.3888V71.9042H54.1116C54.9411 71.9042 55.643 71.2011 55.643 70.3702C55.643 69.5393 54.9411 68.9002 54.1116 68.9002H52.3888V65.9601H54.1116C54.9411 65.9601 55.643 65.257 55.643 64.4261C55.643 63.5952 54.9411 62.8922 54.1116 62.8922H52.3888V60.016H54.1116C54.9411 60.016 55.643 59.313 55.643 58.4821C55.643 57.6512 54.9411 56.9481 54.1116 56.9481H52.3888V50.2371C52.3888 48.3196 53.2821 46.4661 54.8135 45.2517L64.4486 37.6458V34.6418H78.3589V37.6458L88.0578 45.2517C89.5254 46.4661 90.4187 48.3196 90.4187 50.2371V56.9481H89.2701C88.4406 56.9481 87.7387 57.6512 87.7387 58.4821Z" fill="#7984E8"/>
<path d="M90.4187 108.399H52.3888V85.454H90.4187V108.399Z" fill="#4756DF"/>
</g>
<defs>
<clipPath id="clip0">
<rect width="140" height="144" fill="white"/>
</clipPath>
</defs>
</svg>
