<svg width="140" height="144" viewBox="0 0 140 144" fill="none" xmlns="http://www.w3.org/2000/svg">
<g clip-path="url(#clip0)">
<path fill-rule="evenodd" clip-rule="evenodd" d="M54.6308 5.17043C46.2274 8.94944 38.377 15.6124 37.8241 23.966C37.4924 28.7395 39.5932 33.8113 37.603 38.2865C35.281 43.7561 27.9834 45.9439 22.1231 48.629C8.41242 55.1925 -0.543763 69.0157 0.00908825 82.9384C0.561939 96.861 10.6238 110.187 24.7768 115.756C31.3005 118.342 38.7087 119.535 44.016 123.811C48.7706 127.69 51.0925 133.657 55.6259 137.635C63.9187 144.894 76.966 144.496 88.3547 143.204C94.8783 142.507 101.402 141.513 107.152 138.828C113.012 136.043 117.877 131.17 118.651 125.402C119.867 116.054 110.469 107.601 111.464 98.1539C112.459 88.5074 123.405 82.8389 130.482 75.4798C137.006 68.7174 140.433 59.5682 139.991 50.6179C139.438 40.5737 133.246 33.513 128.16 25.1594C119.757 11.2367 106.82 3.18148 89.0181 0.695296C77.4082 -0.995311 65.1349 0.396954 54.6308 5.17043Z" fill="#D7DBFA"/>
<path fill-rule="evenodd" clip-rule="evenodd" d="M64.582 51.2155C64.8032 59.5691 65.0243 68.0221 65.356 76.4751C64.0292 74.6851 62.5918 72.9945 60.4909 71.9006C58.5007 70.9061 55.6258 70.8066 53.9673 72.3978C52.3087 73.8895 52.9722 77.0718 55.2941 77.3702C53.8567 79.9558 49.3233 79.4586 47.1119 77.4696C44.1265 74.7845 43.4631 70.5083 40.0354 68.0221C38.598 66.9282 36.6078 66.4309 34.8386 67.0276C31.0793 68.221 31.411 72.6961 33.7329 75.0829C35.8338 77.3702 39.0403 78.4641 41.8046 80.0553C47.0014 83.0387 50.7607 88.0111 51.977 93.4807C53.3039 98.9503 51.977 104.818 48.5493 109.492C45.3428 113.669 37.9346 115.956 40.6989 122.917C41.1411 123.912 41.9151 124.906 43.0208 125.304C46.4485 126.895 50.3185 124.707 53.4144 122.718C56.621 120.63 60.9332 118.74 64.0292 120.829C65.9089 122.122 66.4617 124.409 67.2357 126.398C68.1203 128.685 70 131.072 72.8748 130.475C74.2016 130.077 75.1968 129.083 75.639 127.89C76.5236 125.403 75.4179 123.017 74.4228 120.63C73.2065 117.646 72.3219 114.365 74.0911 111.282C74.7545 109.989 75.9708 108.895 77.4082 108.497C81.1676 107.403 84.0424 110.088 86.8066 112.177C90.6766 115.061 95.5417 117.05 100.628 117.845C103.282 118.144 106.599 117.945 107.594 115.459C108.147 114.365 107.926 113.072 107.152 112.077C105.714 109.89 103.171 109.094 100.738 108.199C97.532 107.204 94.2148 106.011 92.114 103.425C91.4506 102.53 91.1189 101.536 90.8977 100.541C90.4555 96.8619 93.3303 95.6685 95.6523 94.0774V93.9779C100.075 90.5967 96.3157 84.1326 90.6766 85.326L85.1481 86.4199C83.4895 86.7182 81.831 87.116 80.1724 86.9171C78.5139 86.7182 76.7447 85.9227 76.0813 84.5304C74.9756 82.3425 76.7447 79.8564 78.9562 78.5635C81.6098 76.9724 85.0375 76.4751 87.3595 74.3867C88.4652 73.3923 89.1286 72.1989 89.018 70.9061C88.9075 67.7238 84.9269 66.8287 82.1627 67.8232C79.9513 68.7182 78.2927 70.5083 76.7447 72.2983C74.7545 74.5856 72.7642 76.9724 70.774 79.2597C70.774 68.5193 70.6634 57.779 70.5528 47.0387L64.582 51.2155Z" fill="#00CCFF"/>
<path d="M64.582 51.0166C64.8032 59.4696 65.0243 67.9227 65.356 76.2762C64.0292 74.5856 62.5918 72.7956 60.4909 71.8011C58.5007 70.7072 55.6258 70.7072 53.9673 72.1989C52.3087 73.6906 52.9722 76.8729 55.2941 77.1713C53.8567 79.7569 49.3233 79.3591 47.1119 77.2707C44.1265 74.5856 43.4631 70.4088 40.0354 67.9227C38.598 66.8287 36.6078 66.232 34.8386 66.8287C31.0793 68.0221 31.411 72.4972 33.7329 74.9834C35.8338 77.1713 39.0403 78.3646 41.8046 79.8564C47.0014 82.9392 50.7607 87.9116 51.977 93.2818C53.3039 98.7514 51.977 104.619 48.5493 109.293C45.3428 113.47 37.9346 115.757 40.6989 122.718C41.1411 123.812 41.9151 124.707 43.0208 125.204C46.4485 126.696 50.3185 124.508 53.4144 122.519C56.621 120.53 60.9332 118.541 64.0292 120.63C65.9089 121.923 66.4617 124.21 67.2357 126.199C68.1203 128.486 70 130.972 72.8748 130.276C74.2016 129.978 75.1968 128.983 75.639 127.79C76.5236 125.204 75.4179 122.818 74.4228 120.53C73.2065 117.448 72.3219 114.166 74.0911 111.083C74.7545 109.79 75.9708 108.796 77.4082 108.298C81.1676 107.204 84.0424 109.89 86.8066 111.978C90.6766 114.961 95.5417 116.95 100.628 117.646C103.282 118.044 106.599 117.845 107.594 115.359C108.147 114.166 107.926 112.873 107.152 111.878C105.714 109.79 103.171 108.895 100.738 108.099C97.532 107.006 94.2148 105.812 92.114 103.227C91.4506 102.431 91.1189 101.436 90.8977 100.343C90.4555 96.663 93.3303 95.5691 95.6523 93.8785C95.6523 93.8785 95.6523 93.8785 95.6523 93.779C100.075 90.4972 96.3157 83.9337 90.6766 85.1271L85.1481 86.221C83.4895 86.6188 81.831 86.9171 80.1724 86.7182C78.5139 86.5193 76.7447 85.7238 76.0813 84.3315C74.9756 82.2431 76.7447 79.7569 78.9562 78.4641C81.6098 76.8729 85.0375 76.3757 87.3595 74.1879C88.4652 73.2928 89.1286 72 89.018 70.7072C88.9075 67.5249 84.9269 66.6298 82.1627 67.7238C79.9513 68.5193 78.2927 70.4088 76.7447 72.0995C74.7545 74.4862 72.7642 76.7735 70.774 79.0608C70.774 68.3204 70.6634 57.5801 70.5528 46.8398" stroke="#4756DF" stroke-width="2.1862" stroke-linejoin="round"/>
<path fill-rule="evenodd" clip-rule="evenodd" d="M47.7755 85.2265C51.4243 83.2376 55.1837 81.3481 59.4959 80.9503C62.813 80.7514 66.1301 81.547 69.3367 82.3425C72.8749 83.1381 76.4131 84.0332 79.9514 84.8287C81.1677 85.1271 82.4945 85.5249 83.0474 86.5193C83.7108 87.6133 83.0474 89.105 81.8311 89.9006C80.7254 90.6961 79.1774 90.895 77.74 91.0939C74.8652 91.4917 71.9903 91.8895 69.1155 92.2873C75.7497 92.6851 81.8311 94.3757 88.3547 95.9669C89.6816 96.2652 91.2295 96.7624 92.1141 97.7569C92.9987 98.7514 92.8881 100.541 91.5613 101.039C93.7727 100.84 95.7629 103.425 95.6524 105.414C95.4312 106.906 93.6621 107.702 90.6767 107.901C91.3401 108.796 91.3401 110.088 90.345 110.884C89.4604 111.58 87.249 111.68 85.2588 111.58C82.8262 112.674 81.1677 114.564 78.514 114.961C66.683 116.354 54.2991 113.47 44.6795 107.006C42.247 105.315 38.8193 104.519 36.055 103.326C35.1705 97.4586 35.5022 91.989 37.3819 86.3204C39.925 87.5138 45.2323 86.5193 47.7755 85.2265Z" fill="#FEFEFE" stroke="#4756DF" stroke-width="2.1862" stroke-linejoin="round"/>
<path d="M92.1141 101.039C86.2539 101.834 80.2831 101.635 74.5334 100.74" stroke="#4756DF" stroke-width="2.1862" stroke-linecap="round" stroke-linejoin="round"/>
<path d="M92.3352 107.702C85.4799 108.199 78.5139 107.702 71.7692 106.309" stroke="#4756DF" stroke-width="2.1862" stroke-linecap="round" stroke-linejoin="round"/>
<path d="M87.249 111.58C82.0522 111.58 76.8554 111.083 71.7692 110.088" stroke="#4756DF" stroke-width="2.1862" stroke-linecap="round" stroke-linejoin="round"/>
<path fill-rule="evenodd" clip-rule="evenodd" d="M37.1607 84.1326C41.0307 82.6409 45.0112 81.0497 49.3234 81.0497C52.6405 81.1492 55.8471 82.2431 58.943 83.337C62.3707 84.4309 65.7984 85.6243 69.2261 86.8177C70.3318 87.2155 71.6586 87.7127 72.1009 88.7072C72.6537 89.9006 71.7692 91.3923 70.5529 91.989C69.2261 92.6851 67.7887 92.6851 66.3512 92.7845C63.3658 92.884 60.491 93.0829 57.6162 93.1823C64.1398 94.2762 70.0001 96.4641 76.3026 98.6519C77.6294 99.1492 79.0668 99.6464 79.8408 100.74C80.6148 101.834 80.2831 103.624 78.9562 104.022C81.0571 104.022 82.8262 106.807 82.4945 108.696C82.1628 110.287 80.1725 110.785 77.2977 110.685C77.74 111.779 77.6294 112.972 76.6343 113.669C75.6391 114.365 73.4277 114.166 71.4375 113.867C68.8944 114.762 67.0147 116.552 64.361 116.552C52.4194 116.95 40.3672 112.873 31.6322 105.613C29.4208 103.724 26.1037 102.63 23.45 101.138C23.2289 95.2707 24.1134 89.8011 26.6565 84.3315C29.0891 85.8232 34.507 85.2265 37.1607 84.1326Z" fill="#FEFEFE" stroke="#4756DF" stroke-width="2.1862" stroke-linejoin="round"/>
<path d="M79.3985 104.022C73.5382 104.221 67.678 103.624 62.0389 102.133" stroke="#4756DF" stroke-width="2.1862" stroke-linecap="round" stroke-linejoin="round"/>
<path d="M78.9563 110.685C72.1009 110.586 65.135 109.492 58.7219 107.403" stroke="#4756DF" stroke-width="2.1862" stroke-linecap="round" stroke-linejoin="round"/>
<path d="M73.4276 114.066C68.2308 113.669 63.1446 112.674 58.1689 111.182" stroke="#4756DF" stroke-width="2.1862" stroke-linecap="round" stroke-linejoin="round"/>
<path fill-rule="evenodd" clip-rule="evenodd" d="M129.045 34.6077C113.012 32.6188 54.1885 24.3647 61.4862 53.4033C62.7024 58.4751 72.3221 58.0774 71.8798 52.6077C70.8846 40.9724 88.2442 42.4641 96.7581 42.663C107.373 42.9613 117.988 43.8564 128.492 44.5525C135.789 45.0497 135.9 35.5028 129.045 34.6077Z" fill="#FEFEFE" stroke="#4756DF" stroke-width="2.1862" stroke-linejoin="round"/>
<path fill-rule="evenodd" clip-rule="evenodd" d="M84.2636 21.9779C84.3742 26.453 84.2636 31.1271 85.1482 35.6022C85.8116 38.6851 91.5613 39.1823 92.3353 35.9006C93.3304 31.4254 93.2198 26.8508 93.441 22.2763C93.6621 17.0055 84.0425 16.7072 84.2636 21.9779Z" fill="#FEFEFE" stroke="#4756DF" stroke-width="2.1862" stroke-linejoin="round"/>
<path fill-rule="evenodd" clip-rule="evenodd" d="M100.186 14.6188C92.3352 14.4199 84.2635 13.7238 76.5236 14.3204C70.2211 14.7182 69.6683 22.2762 76.0813 23.0718C83.8213 24.0663 91.8929 23.8674 99.7434 24.0663C106.488 24.2652 106.93 14.8177 100.186 14.6188Z" fill="#FEFEFE" stroke="#4756DF" stroke-width="2.1862" stroke-linejoin="round"/>
</g>
<defs>
<clipPath id="clip0">
<rect width="140" height="144" fill="white"/>
</clipPath>
</defs>
</svg>
