<?xml version="1.0" encoding="UTF-8"?>
<!DOCTYPE svg PUBLIC "-//W3C//DTD SVG 1.1//EN" "http://www.w3.org/Graphics/SVG/1.1/DTD/svg11.dtd">
<!-- Creator: CorelDRAW X7 -->
<svg xmlns="http://www.w3.org/2000/svg" xml:space="preserve" width="91.1046mm" height="121.186mm" version="1.1" style="shape-rendering:geometricPrecision; text-rendering:geometricPrecision; image-rendering:optimizeQuality; fill-rule:evenodd; clip-rule:evenodd"
viewBox="0 0 684 910"
 xmlns:xlink="http://www.w3.org/1999/xlink">
 <defs>
  <style type="text/css">
   <![CDATA[
    .str1 {stroke:#4756DF;stroke-width:16.426}
    .str0 {stroke:#4756DF;stroke-width:16.426}
    .str3 {stroke:#2E4594;stroke-width:16.426;stroke-linecap:round}
    .str2 {stroke:#4756DF;stroke-width:16.426;stroke-linecap:round}
    .str4 {stroke:#4756DF;stroke-width:16.426;stroke-linecap:round;stroke-linejoin:round}
    .fil2 {fill:none}
    .fil1 {fill:#FEFEFE}
    .fil3 {fill:#4756DF}
    .fil0 {fill:#D7DBFA}
   ]]>
  </style>
 </defs>
 <g id="Layer_x0020_1">
  <metadata id="CorelCorpID_0Corel-Layer"/>
  <g id="_2203174225632">
   <path class="fil0" d="M168 863c-71,-35 -131,-102 -134,-181 -2,-58 26,-114 19,-171 -5,-36 -23,-68 -37,-102 -13,-33 -23,-71 -10,-105 25,-65 115,-75 162,-126 23,-24 35,-55 53,-83 47,-70 139,-108 222,-91 84,18 153,89 167,173 14,81 -18,165 2,245 18,74 82,139 71,215 -8,63 -65,107 -117,144 -54,38 -122,110 -187,127 -30,7 -67,-3 -97,-8 -33,-7 -82,-37 -114,-37z"/>
   <path class="fil1" d="M108 823c42,-101 128,-156 208,-156 89,0 172,52 252,104 -2,4 -4,9 -6,13 -53,39 -120,107 -183,124 -30,7 -67,-3 -97,-8 -33,-7 -82,-37 -114,-37 -21,-10 -42,-24 -60,-40z"/>
   <path class="fil2 str0" d="M108 823c42,-101 128,-156 208,-156 89,0 172,52 252,104 -2,4 -4,9 -6,13"/>
   <path class="fil3" d="M513 411c19,-38 25,-82 18,-124 20,-32 22,-75 2,-108 -20,-32 -58,-51 -96,-48 -38,3 -72,29 -86,64 -27,-4 -57,-8 -82,1 -12,5 -23,10 -31,20 -8,9 -12,22 -8,34 -8,-4 -22,-4 -31,0 -8,3 -16,9 -23,15 -12,11 -24,22 -29,37 -9,24 1,53 23,66 -21,11 -24,41 -16,64 8,23 26,41 40,61 26,38 42,83 45,129 35,-14 68,-35 96,-61l178 -150z"/>
   <path class="fil2 str1" d="M513 404c19,-38 25,-83 18,-125 20,-31 22,-75 2,-107 -20,-32 -58,-51 -96,-48 -38,3 -72,29 -86,64 -27,-5 -57,-8 -82,1 -12,4 -23,10 -31,19 -8,10 -12,23 -8,34 -8,-3 -22,-3 -31,1 -8,3 -16,9 -23,15 -12,10 -24,22 -29,37 -9,24 1,53 23,65 -21,12 -24,41 -16,64 8,23 26,42 40,62 26,38 42,83 45,129 35,-15 68,-35 96,-61l178 -150"/>
   <path class="fil1" d="M518 423c4,48 6,97 2,144 -2,32 -15,65 -41,86 -32,25 -74,18 -112,15 -4,0 -30,106 -33,117 -27,12 -61,9 -87,-6 -25,-15 -43,-43 -46,-73 17,-35 52,-101 56,-144 -19,0 -38,-11 -50,-25 -8,-10 -12,-23 -7,-35 6,-18 24,-21 39,-18 10,3 19,8 28,14 -1,-53 6,-67 28,-114 6,-14 4,-31 1,-48 -2,-11 6,-21 17,-22 40,-3 82,-8 121,-11 24,-2 52,-2 69,15 8,7 9,45 10,57 2,16 4,32 5,48z"/>
   <path class="fil2 str0" d="M518 423c4,48 6,97 2,144 -2,32 -15,65 -41,86 -32,25 -74,18 -112,15 -4,0 -30,106 -33,117 -27,12 -61,9 -87,-6 -25,-15 -43,-43 -46,-73 17,-35 52,-101 56,-144 -19,0 -38,-11 -50,-25 -8,-10 -12,-23 -7,-35 6,-18 24,-21 39,-18 10,3 19,8 28,14 -1,-53 6,-67 28,-114 6,-14 4,-31 1,-48 -2,-11 6,-21 17,-22 40,-3 82,-8 121,-11 24,-2 52,-2 69,15 8,7 9,45 10,57 2,16 4,32 5,48"/>
   <path class="fil2 str2" d="M227 504c14,4 25,13 32,26"/>
   <path class="fil2 str3" d="M465 496c5,7 11,15 16,23 5,6 9,13 8,20 -1,6 -5,11 -9,14 -6,4 -12,7 -19,8"/>
   <path class="fil2 str4" d="M506 361c-15,-6 -32,-5 -46,2"/>
   <path class="fil2 str4" d="M408 365c-15,0 -30,0 -45,3 -15,2 -30,8 -41,17"/>
   <path class="fil2 str4" d="M487 395c1,14 2,28 3,41"/>
   <path class="fil2 str4" d="M386 403c1,13 2,27 4,41"/>
   <path class="fil1" d="M318 510c63,-40 144,-50 216,-27 5,41 2,86 -10,126 -4,14 -10,29 -20,41 -12,14 -31,23 -49,28 -20,5 -41,8 -61,3 -32,-9 -56,-39 -66,-71 -11,-32 -11,-66 -10,-100z"/>
   <path class="fil2 str0" d="M318 510c63,-40 144,-50 216,-27 5,41 2,86 -10,126 -4,14 -10,29 -20,41 -12,14 -31,23 -49,28 -20,5 -41,8 -61,3 -32,-9 -56,-39 -66,-71 -11,-32 -11,-66 -10,-100"/>
   <path class="fil2 str2" d="M533 510c-66,-19 -138,-11 -198,20"/>
   <path class="fil2 str2" d="M320 511c-18,-3 -36,-6 -54,-10"/>
   <path class="fil2 str2" d="M348 651c-18,-19 -38,-36 -60,-51 -13,-8 -26,-16 -40,-20"/>
  </g>
 </g>
</svg>
